<?xml version="1.0" encoding="UTF-8"?>
<svg id="Capa_1" xmlns="http://www.w3.org/2000/svg" version="1.1" viewBox="0 0 288.4 72.2">
  <!-- Generator: Adobe Illustrator 29.6.1, SVG Export Plug-In . SVG Version: 2.1.1 Build 9)  -->
  <defs>
    <style>
      .st0 {
        font-family: HyundaiSansHeadKRBold, 'HyundaiSans Head KR';
        font-size: 12px;
      }

      .st0, .st1 {
        fill: #4c4c4c;
      }
    </style>
  </defs>
  <g>
    <g>
      <g>
        <path class="st1" d="M181.9,40.8l-6.4,14.7h-3.4l-6.4-14.7h4.4l3.7,9.9,3.7-9.9h4.4,0Z"/>
        <path class="st1" d="M182.8,48.2c0-4.5,3.3-7.8,8.1-7.8s8.1,3.3,8.1,7.8-3.3,7.8-8.1,7.8-8.1-3.3-8.1-7.8ZM194.8,48.2c0-2.5-1.6-4.3-3.9-4.3s-3.9,1.8-3.9,4.3,1.6,4.3,3.9,4.3,3.9-1.8,3.9-4.3Z"/>
        <path class="st1" d="M202.1,33.8h4.1v21.7h-4.1v-21.7Z"/>
        <path class="st1" d="M219.2,43.9h-3.6v11.6h-4.1v-11.6h-2.2v-3.1h2.2v-4.2h4.1v4.2h3.6v3.1Z"/>
        <path class="st1" d="M221.8,36.2c0-1.3,1.1-2.3,2.4-2.3s2.4,1.1,2.4,2.3-1.1,2.3-2.4,2.3-2.4-1.1-2.4-2.3ZM222.2,40.8h4.1v14.7h-4.1v-14.7Z"/>
        <path class="st1" d="M240.3,55.5l-5.7-6.6v6.6h-4.1v-21.7h4.1v12.3l4.9-5.4h5.2l-6.5,6.7,7.4,8h-5.3Z"/>
        <path class="st1" d="M262.1,40.8v14.7h-3.4l-.5-1.8c-1.1,1.3-2.7,2.1-4.8,2.1-3.8,0-6.8-2.8-6.8-7.7s3-7.7,6.8-7.7,3.8.9,4.9,2.2l.5-1.8h3.4-.1ZM258.3,48.1c0-2.5-1.6-4.2-3.8-4.2s-3.7,1.7-3.7,4.2,1.5,4.2,3.7,4.2,3.8-1.7,3.8-4.2Z"/>
      </g>
      <g>
        <path class="st1" d="M28.8,55.8c-1.1,0-2.1-.2-3-.6-.9-.4-1.7-.9-2.4-1.6-.7-.7-1.2-1.5-1.6-2.5-.4-1-.6-2-.6-3.2s.2-2.2.6-3.2c.4-1,.9-1.8,1.6-2.5.7-.7,1.5-1.3,2.4-1.6.9-.4,1.9-.6,3-.6s2.8.4,4,1.1c1.2.7,2,1.7,2.7,2.9l-1.3.8c-.5-1-1.2-1.8-2.2-2.4-.9-.6-2-.8-3.2-.8s-1.6,0-2.3.4-1.4.7-1.9,1.3-1,1.2-1.3,2-.5,1.7-.5,2.7.2,1.9.5,2.7.7,1.5,1.3,2c.5.6,1.2,1,1.9,1.3s1.5.4,2.3.4,2.2-.3,3.2-.8c.9-.6,1.7-1.3,2.2-2.4l1.3.8c-.6,1.2-1.5,2.2-2.7,2.9s-2.5,1.1-4,1.1v-.2Z"/>
        <path class="st1" d="M39.2,40.3h1.5v2.9c.2-.4.5-.8.8-1.2s.7-.7,1.2-1c.4-.3.9-.5,1.5-.7s1.2-.3,1.9-.3h.2v1.6c-1.4,0-2.5.4-3.5,1.1-.9.7-1.6,1.6-2.1,2.8v10h-1.5s0-15.2,0-15.2Z"/>
        <path class="st1" d="M55.6,55.8c-1.1,0-2.1-.2-3-.6-.9-.4-1.7-.9-2.3-1.6-.6-.7-1.1-1.5-1.5-2.5s-.5-2-.5-3.2.2-2.2.5-3.2c.4-1,.8-1.8,1.5-2.5s1.4-1.3,2.3-1.6c.9-.4,1.9-.6,3-.6s2.1.2,3,.6c.9.4,1.6.9,2.3,1.6.6.7,1.1,1.5,1.5,2.4s.5,1.9.5,2.9,0,.3,0,.5v.4h-12.9c0,.9.2,1.7.5,2.5.3.7.7,1.3,1.2,1.8s1.1.9,1.8,1.2c.7.3,1.4.4,2.2.4s2.2-.3,3.2-.8,1.8-1.3,2.5-2.3l1.2.9c-.8,1.2-1.8,2.1-3,2.8s-2.5,1-3.9,1h-.1ZM55.6,41.5c-.8,0-1.5,0-2.2.4s-1.2.6-1.7,1.1-.9,1.1-1.2,1.8c-.3.7-.5,1.5-.6,2.3h11.3c0-.8-.2-1.6-.5-2.3s-.7-1.3-1.2-1.8-1.1-.9-1.8-1.1-1.4-.4-2.1-.4h0ZM54.9,37.4l2.1-4.6h1.7l-2.6,4.7h-1.3,0Z"/>
        <path class="st1" d="M78.7,53c-.6.9-1.4,1.6-2.4,2.1-.9.5-2,.8-3.2.8s-2.1-.2-3-.6c-.9-.4-1.7-.9-2.4-1.6-.7-.7-1.2-1.5-1.6-2.5s-.6-2-.6-3.2.2-2.2.6-3.2.9-1.8,1.6-2.5,1.5-1.3,2.4-1.6c.9-.4,1.9-.6,3-.6s2.3.2,3.2.8,1.7,1.2,2.4,2.1v-9.5h1.5v22.2h-1.5v-2.7ZM73.1,54.3c1.3,0,2.5-.3,3.4-1s1.7-1.5,2.2-2.5v-6c-.5-1-1.2-1.8-2.2-2.5-1-.6-2.1-1-3.4-1s-1.6.2-2.3.5-1.4.7-1.9,1.3-1,1.2-1.3,2-.5,1.7-.5,2.7.2,1.9.5,2.7.7,1.5,1.3,2c.5.6,1.2,1,1.9,1.3.7.3,1.5.5,2.3.5Z"/>
        <path class="st1" d="M85.1,33.3h1.5v3.5h-1.5v-3.5ZM85.1,40.3h1.5v15.2h-1.5v-15.2Z"/>
        <path class="st1" d="M97.3,55.6c-1.6,0-2.8-.4-3.6-1.2-.8-.8-1.2-2-1.2-3.7v-9.1h-2.8v-1.4h2.8v-4h1.5v4h4v1.4h-4v9c0,1.3.3,2.2.9,2.7s1.6.8,2.9.8h.2v1.3h-.7v.2h0Z"/>
        <path class="st1" d="M107.8,55.8c-1.1,0-2.1-.2-3-.6-.9-.4-1.7-.9-2.4-1.6-.7-.7-1.2-1.5-1.6-2.5s-.6-2-.6-3.2.2-2.2.6-3.2.9-1.8,1.6-2.5,1.5-1.3,2.4-1.6c.9-.4,1.9-.6,3-.6s2.1.2,3,.6c.9.4,1.7.9,2.4,1.6.7.7,1.2,1.5,1.6,2.5s.6,2,.6,3.2-.2,2.2-.6,3.2-.9,1.8-1.6,2.5-1.5,1.3-2.4,1.6c-.9.4-1.9.6-3,.6ZM107.8,54.3c.8,0,1.6-.2,2.3-.5.7-.3,1.4-.7,1.9-1.3s1-1.2,1.3-2,.5-1.7.5-2.7-.2-1.9-.5-2.7-.7-1.5-1.3-2c-.5-.6-1.2-1-1.9-1.3s-1.5-.5-2.3-.5-1.6.2-2.3.5-1.4.7-1.9,1.3-1,1.2-1.3,2-.5,1.7-.5,2.7.2,1.9.5,2.7.7,1.5,1.3,2c.5.6,1.2,1,1.9,1.3.7.3,1.5.5,2.3.5Z"/>
      </g>
      <path class="st1" d="M165.7,37.1c-1.8-1.4-3.7-2.3-5.6-3.1h0v-.5l.7-.8-1.2-1.2h0c-.7-.5-1.7-1.2-3-1.7-.4-.2-.8-.4-1.3-.5h0c-1.1-.4-2.4-.9-4-1.2-6.3-1.5-11.4-1.5-17.7,0-1.5.3-2.7.7-3.8,1.1h0c-.4,0-.9.3-1.5.6h-.1c-.8.5-1.9,1-2.8,1.7h0l-1.2,1.1.7.7v.5h0c-1.8.7-3.8,1.7-5.6,3.1h0l.9,1.5h0c1.3-.7,2.8-1.3,4.4-1.9,0,4.3.6,12.7,6.3,21,4.1,6.1,9.9,9.5,11.4,9.8h.8c1.5-.3,7.2-3.8,11.4-9.8,5.7-8.3,6.4-16.8,6.3-21.1,1.1.4,2.1.8,3.2,1.2.5.2.9.4,1.4.5h0l.9-1.3h0l-.6.3h0ZM141.2,57l1.5-3.7,5-3.9-4.4,6.8h.8l-3.4,4.1,1.4-3.3h-1s.1,0,.1,0ZM142.9,63c3.2-6.9,6.3-13.7,9.4-20.5h0c-3.3,3.4-6.7,6.9-10,10.3-3.4-3.5-6.7-6.9-10-10.3h0c3.1,6.9,6.3,13.7,9.5,20.7-.4-.2-.8-.5-1.4-.8-1.9-1.4-4.5-3.7-6.6-6.7-4.9-7.2-5.6-14.6-5.6-18.4,2.5,2.6,5,5.2,7.5,7.8,2,2.1,4.1,4.2,6.1,6.3.1,0,.2.3.2.4v.2h0c.2-.2.4-.4.6-.6.4-.4.7-.7,1-1,5-5.2,8.9-9.2,12.6-13,0,3.8-.7,11.2-5.6,18.3-1.5,2.2-3.2,3.9-4.8,5.3-1.2,1-2.3,1.7-3,2.1h0ZM150.2,33.1c.7.2,1.3.3,1.8.5-1.2,1.7-2.3,3.3-3.4,4.9-2,2.9-4.2,6-6.4,9.2-2.2-3.2-4.3-6.2-6.4-9.2-1.1-1.6-2.3-3.3-3.4-5,.5-.2,1.1-.3,1.7-.5,4.2-1,9-1.6,16,0h0Z"/>
    </g>
    <path class="st1" d="M264.9,61.3c-.3,0-.6,0-.9-.2s-.5-.3-.7-.5-.4-.5-.5-.7-.2-.6-.2-.9,0-.6.2-.9c.1-.3.3-.5.5-.7s.5-.4.7-.5.6-.2.9-.2.6,0,.9.2.5.3.7.5.4.5.5.7c.1.3.2.6.2.9s0,.6-.2.9c-.1.3-.3.5-.5.7s-.5.4-.7.5-.6.2-.9.2ZM264.9,60.8h.7c.2,0,.4-.2.6-.4.2-.2.3-.3.4-.6,0-.2.1-.5.1-.7s0-.5-.1-.7c0-.2-.2-.4-.4-.6-.2-.2-.4-.3-.6-.4h-1.4c-.2,0-.4.2-.6.4s-.3.3-.4.6c0,.2-.1.5-.1.7s0,.5.1.7c0,.2.2.4.4.6.2.2.3.3.6.4s.5,0,.7,0ZM264.2,57.9h1c.2,0,.4,0,.5.2.1,0,.2.3.2.5s0,.3-.1.4c0,0-.2.2-.3.2l.6.8h-.6l-.6-.8h-.2v.8h-.5v-2.2h0ZM265.1,58.8c.1,0,.2,0,.2-.2,0-.1,0-.2-.2-.2h-.4v.4h.4Z"/>
  </g>
  <text class="st0" transform="translate(105 17.7)"><tspan x="0" y="0">SOLICITA TU</tspan></text>
</svg>