<?xml version="1.0" encoding="UTF-8"?>
<svg id="Capa_1" xmlns="http://www.w3.org/2000/svg" version="1.1" viewBox="0 0 500 92.4">
  <!-- Generator: Adobe Illustrator 30.2.1, SVG Export Plug-In . SVG Version: 2.1.1 Build 1)  -->
  <defs>
    <style>
      .st0 {
        fill: #3f3f3f;
      }
    </style>
  </defs>
  <g>
    <g>
      <path class="st0" d="M322,34.1l-12.2,28h-6.5l-12.2-28h8.4l7,18.8,7-18.8h8.5Z"/>
      <path class="st0" d="M323.7,48.2c0-8.6,6.3-14.8,15.4-14.8s15.4,6.3,15.4,14.8-6.3,14.8-15.4,14.8-15.4-6.3-15.4-14.8ZM346.6,48.2c0-4.8-3-8.2-7.4-8.2s-7.4,3.4-7.4,8.2,3,8.2,7.4,8.2,7.4-3.4,7.4-8.2Z"/>
      <path class="st0" d="M360.5,20.8h7.8v41.3h-7.8V20.8Z"/>
      <path class="st0" d="M393,40h-6.9v22.1h-7.8v-22.1h-4.2v-5.9h4.2v-8h7.8v8h6.9v5.9Z"/>
      <path class="st0" d="M398,25.3c0-2.5,2.1-4.4,4.6-4.4s4.6,2.1,4.6,4.4-2.1,4.4-4.6,4.4-4.6-2.1-4.6-4.4ZM398.7,34.1h7.8v28h-7.8v-28Z"/>
      <path class="st0" d="M433.2,62.1l-10.9-12.6v12.6h-7.8V20.8h7.8v23.4l9.3-10.3h9.9l-12.4,12.8,14.1,15.2h-10.1v.2h.1Z"/>
      <path class="st0" d="M474.7,34.1v28h-6.5l-1-3.4c-2.1,2.5-5.1,4-9.1,4-7.2,0-12.9-5.3-12.9-14.7s5.7-14.7,12.9-14.7,7.2,1.7,9.3,4.2l1-3.4h6.5-.2,0ZM467.5,48c0-4.8-3-8-7.2-8s-7,3.2-7,8,2.9,8,7,8,7.2-3.2,7.2-8Z"/>
    </g>
    <g>
      <path class="st0" d="M30.6,62.6c-2.1,0-4-.4-5.7-1.1-1.7-.8-3.2-1.7-4.6-3-1.3-1.3-2.3-2.9-3-4.8-.8-1.9-1.1-3.8-1.1-6.1s.4-4.2,1.1-6.1c.8-1.9,1.7-3.4,3-4.8,1.3-1.3,2.9-2.5,4.6-3,1.7-.8,3.6-1.1,5.7-1.1s5.3.8,7.6,2.1,3.8,3.2,5.1,5.5l-2.5,1.5c-1-1.9-2.3-3.4-4.2-4.6-1.7-1.1-3.8-1.5-6.1-1.5s-3,.2-4.4.8-2.7,1.3-3.6,2.5-1.9,2.3-2.5,3.8-1,3.2-1,5.1.4,3.6,1,5.1,1.3,2.9,2.5,3.8c1,1.1,2.3,1.9,3.6,2.5s2.9.8,4.4.8,4.2-.6,6.1-1.5c1.7-1.1,3.2-2.5,4.2-4.6l2.5,1.5c-1.1,2.3-2.9,4.2-5.1,5.5s-4.8,2.1-7.6,2.1v-.4Z"/>
      <path class="st0" d="M50.4,33.1h2.9v5.5c.4-.8,1-1.5,1.5-2.3s1.3-1.3,2.3-1.9c.8-.6,1.7-1,2.9-1.3s2.3-.6,3.6-.6h.4v3c-2.7,0-4.8.8-6.7,2.1-1.7,1.3-3,3-4,5.3v19h-2.9v-28.9h0Z"/>
      <path class="st0" d="M81.6,62.6c-2.1,0-4-.4-5.7-1.1-1.7-.8-3.2-1.7-4.4-3-1.1-1.3-2.1-2.9-2.9-4.8s-1-3.8-1-6.1.4-4.2,1-6.1c.8-1.9,1.5-3.4,2.9-4.8s2.7-2.5,4.4-3c1.7-.8,3.6-1.1,5.7-1.1s4,.4,5.7,1.1c1.7.8,3,1.7,4.4,3,1.1,1.3,2.1,2.9,2.9,4.6s1,3.6,1,5.5,0,.6,0,1v.8h-24.6c0,1.7.4,3.2,1,4.8.6,1.3,1.3,2.5,2.3,3.4s2.1,1.7,3.4,2.3,2.7.8,4.2.8,4.2-.6,6.1-1.5,3.4-2.5,4.8-4.4l2.3,1.7c-1.5,2.3-3.4,4-5.7,5.3s-4.8,1.9-7.4,1.9l-.2-.2h-.2ZM81.6,35.4c-1.5,0-2.9.2-4.2.8s-2.3,1.1-3.2,2.1-1.7,2.1-2.3,3.4c-.6,1.3-1,2.9-1.1,4.4h21.5c0-1.5-.4-3-1-4.4s-1.3-2.5-2.3-3.4-2.1-1.7-3.4-2.1-2.7-.8-4-.8h0ZM80.3,27.6l4-8.8h3.2l-4.9,8.9h-2.5l.2-.2h0Z"/>
      <path class="st0" d="M125.6,57.3c-1.1,1.7-2.7,3-4.6,4-1.7,1-3.8,1.5-6.1,1.5s-4-.4-5.7-1.1c-1.7-.8-3.2-1.7-4.6-3-1.3-1.3-2.3-2.9-3-4.8s-1.1-3.8-1.1-6.1.4-4.2,1.1-6.1,1.7-3.4,3-4.8,2.9-2.5,4.6-3c1.7-.8,3.6-1.1,5.7-1.1s4.4.4,6.1,1.5,3.2,2.3,4.6,4v-18.1h2.9v42.3h-2.9v-5.1h0ZM114.9,59.8c2.5,0,4.8-.6,6.5-1.9s3.2-2.9,4.2-4.8v-11.4c-1-1.9-2.3-3.4-4.2-4.8-1.9-1.1-4-1.9-6.5-1.9s-3,.4-4.4,1-2.7,1.3-3.6,2.5-1.9,2.3-2.5,3.8-1,3.2-1,5.1.4,3.6,1,5.1,1.3,2.9,2.5,3.8c1,1.1,2.3,1.9,3.6,2.5,1.3.6,2.9,1,4.4,1Z"/>
      <path class="st0" d="M137.8,19.8h2.9v6.7h-2.9v-6.7ZM137.8,33.1h2.9v28.9h-2.9v-28.9Z"/>
      <path class="st0" d="M161,62.3c-3,0-5.3-.8-6.9-2.3-1.5-1.5-2.3-3.8-2.3-7v-17.3h-5.3v-2.7h5.3v-7.6h2.9v7.6h7.6v2.7h-7.6v17.1c0,2.5.6,4.2,1.7,5.1s3,1.5,5.5,1.5h.4v2.5h-1.3v.4h0Z"/>
      <path class="st0" d="M181,62.6c-2.1,0-4-.4-5.7-1.1-1.7-.8-3.2-1.7-4.6-3-1.3-1.3-2.3-2.9-3-4.8s-1.1-3.8-1.1-6.1.4-4.2,1.1-6.1,1.7-3.4,3-4.8,2.9-2.5,4.6-3c1.7-.8,3.6-1.1,5.7-1.1s4,.4,5.7,1.1c1.7.8,3.2,1.7,4.6,3,1.3,1.3,2.3,2.9,3,4.8s1.1,3.8,1.1,6.1-.4,4.2-1.1,6.1-1.7,3.4-3,4.8-2.9,2.5-4.6,3c-1.7.8-3.6,1.1-5.7,1.1ZM181,59.8c1.5,0,3-.4,4.4-1,1.3-.6,2.7-1.3,3.6-2.5s1.9-2.3,2.5-3.8,1-3.2,1-5.1-.4-3.6-1-5.1-1.3-2.9-2.5-3.8c-1-1.1-2.3-1.9-3.6-2.5s-2.9-1-4.4-1-3,.4-4.4,1-2.7,1.3-3.6,2.5-1.9,2.3-2.5,3.8-1,3.2-1,5.1.4,3.6,1,5.1,1.3,2.9,2.5,3.8c1,1.1,2.3,1.9,3.6,2.5s2.9,1,4.4,1Z"/>
    </g>
    <path class="st0" d="M291.2,27c-3.4-2.7-7-4.4-10.7-5.9h0v-1l1.3-1.5-2.3-2.3h0c-1.3-1-3.2-2.3-5.7-3.2-.8-.4-1.5-.8-2.5-1h0c-2.1-.8-4.6-1.7-7.6-2.3-12-2.9-21.7-2.9-33.7,0-2.9.6-5.1,1.3-7.2,2.1h0c-.8.3-1.7.6-2.9,1.1h-.2v.2c-1.5.8-3.6,1.7-5.3,3h0l-2.3,2.1,1.3,1.3v1h0c-3.4,1.3-7.2,3.2-10.7,5.9h0l1.7,2.9h0c2.5-1.3,5.3-2.5,8.4-3.6,0,8.2,1.1,24.2,12,40,7.8,11.6,18.8,18.1,21.7,18.7h1.5c2.9-.6,13.7-7.2,21.7-18.7,10.9-15.8,12.2-32,12-40.2,2.1.8,4,1.5,6.1,2.3,1,.4,1.7.8,2.7,1h0l1.7-2.5h0l-1.1.6h.1ZM244.5,64.9l2.9-7,9.5-7.4-8.4,12.9h1.5l-6.5,7.8,2.7-6.3h-1.9.2ZM247.8,76.4c6.1-13.1,12-26.1,17.9-39h0c-6.3,6.5-12.8,13.1-19,19.6-6.5-6.7-12.8-13.1-19-19.6h0c5.9,13.1,12,26.1,18.1,39.4-.8-.4-1.5-1-2.7-1.5-3.6-2.7-8.6-7-12.6-12.8-9.3-13.7-10.7-27.8-10.7-35,4.8,4.9,9.5,9.9,14.3,14.8,3.8,4,7.8,8,11.6,12,.2.2.4.6.4.8v.4h0c0,.2,0,0,0,0,.4-.4.8-.8,1.1-1.1.8-.8,1.3-1.3,1.9-1.9,9.5-9.9,16.9-17.5,24-24.7,0,7.2-1.3,21.3-10.7,34.8-2.9,4.2-6.1,7.4-9.1,10.1-2.3,1.9-4.4,3.2-5.7,4l.2-.2h0ZM261.7,19.4c1.3.4,2.5.6,3.4,1-2.3,3.2-4.4,6.3-6.5,9.3-3.8,5.5-8,11.4-12.2,17.5-4.2-6.1-8.2-11.8-12.2-17.5-2.1-3-4.4-6.3-6.5-9.5,1-.4,2.1-.6,3.2-1,8-1.9,17.1-3,30.5,0l.2.2h0Z"/>
  </g>
  <path class="st0" d="M480,73.1c-.6,0-1.1,0-1.7-.4s-1-.6-1.3-1-.8-1-1-1.3-.4-1.1-.4-1.7,0-1.1.4-1.7c.2-.6.6-1,1-1.3s1-.8,1.3-1,1.1-.4,1.7-.4,1.1,0,1.7.4,1,.6,1.3,1,.8,1,1,1.3c.2.6.4,1.1.4,1.7s0,1.1-.4,1.7c-.2.6-.6,1-1,1.3s-1,.8-1.3,1-1.1.4-1.7.4ZM480,72.2c.4,0,1,0,1.3-.2s.8-.4,1.1-.8c.4-.4.6-.6.8-1.1,0-.4.2-1,.2-1.3s0-1-.2-1.3c0-.4-.4-.8-.8-1.1-.4-.4-.8-.6-1.1-.8-.4,0-1-.2-1.3-.2s-1,0-1.3.2c-.4,0-.8.4-1.1.8s-.6.6-.8,1.1c0,.4-.2,1-.2,1.3s0,1,.2,1.3c0,.4.4.8.8,1.1.4.4.6.6,1.1.8s1,.2,1.3.2ZM478.7,66.6h1.9c.4,0,.8,0,1,.4.2.2.4.6.4,1s0,.6-.2.8c0,.2-.4.4-.6.4l1.1,1.5h-1.1l-1.1-1.5h-.4v1.5h-1v-4.2.2h0ZM480.4,68.4c.3,0,.4-.1.4-.4,0-.3-.1-.4-.4-.4h-.8v.8h.8Z"/>
</svg>