<?xml version="1.0" encoding="UTF-8"?>
<svg id="Capa_1" xmlns="http://www.w3.org/2000/svg" version="1.1" viewBox="0 0 500 500">
  <!-- Generator: Adobe Illustrator 29.6.1, SVG Export Plug-In . SVG Version: 2.1.1 Build 9)  -->
  <defs>
    <style>
      .st0 {
        isolation: isolate;
      }

      .st1 {
        fill: #e94e1b;
      }
    </style>
  </defs>
  <g id="FprYSf.tif">
    <g>
      <path class="st1" d="M298.5,110.8c1.7-.3,3.5-.3,5.3,0,24.6,18.9,47.2,40.6,71.1,60.5,1.5,1.7,3.1,4.9,3.1,7.2,0,7.7-12.2,12.7-10.9,20,18,47.3,40.4,93.8,57.9,141.1,2.3,6.1,6.1,12.4-1.1,17-4.1,2.6-28.6,12.6-33.5,13.8-11.9,3-8.6-10-18.9-8.4-21.3,8.5-41.8,19.7-63.2,28-17.8,6.9-31.6,3.2-38.9-15.3l-45.4-233.7-3.4-3.6,24.1-25.3,1.6.3,23,19.5c1.1.7,3.1,1.6,4.4,1.6,5-.2,13.3-13,17.1-16.9s4.4-5.2,7.5-5.7h.2ZM241.4,144.2c-3.9.9-5,4.8-4.5,8.4s3.3,13,4.4,14.4c3.3,4.5,11.2,1.8,11.4-3.9s-3.2-14.2-4.2-15.8c-1.5-2.6-4.1-3.7-7-3.1h0ZM251.9,177.6c-3.6.5-4.7,3.2-5.3,6.5,3.6,12.1,5.1,25.8,8.8,37.7,3.1,10.1,13.2,7.9,12.9-.5-.2-6.1-5.1-22.9-6.9-29.8-1.4-5.6-1.8-14.9-9.6-13.8h.1ZM344.6,352.8c4.7-2.4,20.4-7.1,22.9-10.9s1.3-2.8,1.3-4l-31.7-94.2c-9.7-22.4-34.6-22.8-53.7-12.4,11.9,9.9,25.4,18.2,31.4,33.3l29.8,88.1h0ZM274.1,240.8c-3.1.6-6.3,15.2-5.3,18.4l15.5,102.1c3.5,9,10.3,12.8,19.8,9.7,9.1-3,18.4-9,27.6-12l1-1.1c-9.4-26-16.7-53.2-26.4-79.2-1.6-4.3-3-8.8-5.2-12.9-5.9-10.7-17.6-17.7-27.1-25h.1Z"/>
      <path class="st1" d="M84.9,38.4c2.6-.4,4.1.3,6.4.9,34,7.9,68.5,21.7,102.5,30.4l41.6,33.6-24.7,26.1c-11.1-9.4-21.8-19.3-33.8-27.5l-98.8-29.2c-3.8-2.1-6.6-5.8-6.1-10.2s4.6-17.2,5.8-19.3,4.6-4.4,7.1-4.8h0Z"/>
      <path class="st1" d="M103.6,139.9c1.3-.2,8.6,10.4,9.9,12.3,11.2,16.2,28.6,43.2,18.6,62.9-16.2,32-72.4,15.3-57.5-27.5,5.8-16.7,17.8-34.1,29-47.6h0Z"/>
    </g>
  </g>
  <g class="st0">
    <g class="st0">
      <path class="st1" d="M125.2,472.7c-3,0-5.7-.5-8.2-1.5-2.5-1-4.7-2.4-6.5-4.3-1.8-1.8-3.2-4-4.3-6.5-1-2.5-1.5-5.3-1.5-8.3s.5-5.7,1.5-8.2c1-2.5,2.4-4.7,4.3-6.5,1.8-1.8,4-3.3,6.5-4.3,2.5-1,5.2-1.5,8.2-1.5s7.8.8,10.8,2.5c3,1.7,5.4,4,7.2,6.8l-6.7,5.1c-1.2-1.9-2.7-3.3-4.4-4.4-1.7-1.1-3.9-1.6-6.7-1.6s-3.3.3-4.7.9c-1.4.6-2.6,1.5-3.6,2.6s-1.7,2.4-2.3,3.9c-.5,1.5-.8,3.1-.8,4.9s.3,3.4.8,4.9,1.3,2.8,2.3,3.9c1,1.1,2.2,2,3.6,2.6,1.4.6,3,.9,4.7.9s3.3-.2,4.8-.5c1.5-.3,2.8-.9,3.8-1.5v-5.3h-8v-7.8h17.1v17.8c-1,.8-2.1,1.5-3.5,2.2-1.4.7-2.8,1.3-4.4,1.8-1.6.5-3.2,1-4.9,1.3-1.7.3-3.4.5-5.1.5Z"/>
      <path class="st1" d="M159.5,432.3h10.8l15,39.5h-9.4l-2.8-7.6h-16.6l-2.8,7.6h-9.4l15-39.5ZM159.5,456.4h10.8l-5.4-14.6-5.4,14.6Z"/>
      <path class="st1" d="M202.3,472.7c-2.4,0-4.5-.3-6.3-.8-1.8-.5-3.4-1.2-4.9-2.1-1.4-.9-2.6-1.8-3.6-2.8-1-1-1.9-2.1-2.6-3.1l5.8-5.9c.6.9,1.2,1.7,2,2.5.8.8,1.6,1.5,2.6,2.1,1,.6,2.1,1.1,3.3,1.5,1.2.4,2.5.6,4,.6,2.1,0,3.6-.4,4.6-1.3,1-.9,1.6-1.9,1.6-3.1s0-.9-.2-1.3c-.2-.4-.4-.8-.8-1.2s-1-.7-1.7-1c-.7-.3-1.6-.5-2.8-.7l-3.1-.5c-1.8-.3-3.5-.7-5-1.4-1.5-.6-2.8-1.5-3.8-2.4-1.1-1-1.9-2.1-2.5-3.4-.6-1.3-.9-2.7-.9-4.3s.3-3.4,1-5c.7-1.5,1.7-2.9,2.9-4,1.3-1.1,2.8-2,4.6-2.6,1.8-.6,3.9-1,6.1-1s5.9.6,8.4,1.7,4.5,2.7,6,4.5l-5.6,6c-1.2-1.4-2.6-2.4-4.1-3.2s-3.1-1.1-4.8-1.1-2.9.4-3.8,1.1c-.9.7-1.4,1.6-1.4,2.5s.3,1.7,1,2.4,1.8,1.1,3.4,1.4l3.1.5c4.2.6,7.5,2,9.8,4,2.3,2.1,3.5,4.9,3.5,8.3s-.4,3.8-1.2,5.4c-.8,1.6-1.9,3-3.3,4.1s-3.1,2-5,2.6c-1.9.6-4,.9-6.3.9Z"/>
      <path class="st1" d="M241.8,472.7c-3,0-5.7-.5-8.2-1.5-2.5-1-4.6-2.4-6.4-4.3-1.8-1.8-3.2-4-4.2-6.5-1-2.5-1.5-5.3-1.5-8.3s.5-5.7,1.5-8.2c1-2.5,2.4-4.7,4.2-6.5s3.9-3.3,6.4-4.3c2.5-1,5.2-1.5,8.2-1.5s5.7.5,8.2,1.5c2.5,1,4.6,2.5,6.4,4.3,1.8,1.8,3.2,4,4.2,6.5,1,2.5,1.5,5.3,1.5,8.2s-.5,5.7-1.5,8.3c-1,2.5-2.4,4.7-4.2,6.5-1.8,1.8-4,3.2-6.4,4.3-2.5,1-5.2,1.5-8.2,1.5ZM241.8,464.3c1.7,0,3.3-.3,4.6-.9,1.4-.6,2.5-1.5,3.4-2.6.9-1.1,1.6-2.4,2.1-3.9.5-1.5.8-3.1.8-4.9s-.3-3.4-.8-4.9c-.5-1.5-1.2-2.8-2.1-3.9-.9-1.1-2.1-2-3.4-2.6-1.4-.6-2.9-.9-4.6-.9s-3.3.3-4.6.9c-1.4.6-2.5,1.5-3.4,2.6s-1.6,2.4-2.1,3.9c-.5,1.5-.8,3.1-.8,4.9s.3,3.4.8,4.9c.5,1.5,1.2,2.8,2.1,3.9.9,1.1,2.1,2,3.4,2.6,1.4.6,2.9.9,4.6.9Z"/>
      <path class="st1" d="M267.7,432.3h9.1v31.7h18.2v7.8h-27.3v-39.5Z"/>
      <path class="st1" d="M299.5,432.3h9.1v39.5h-9.1v-39.5Z"/>
      <path class="st1" d="M316.2,432.3h7.9l19.7,24.5v-24.5h9.1v39.5h-7.8l-19.8-24.5v24.5h-9.1v-39.5Z"/>
      <path class="st1" d="M371.4,432.3h10.8l15,39.5h-9.4l-2.8-7.6h-16.6l-2.8,7.6h-9.4l15-39.5ZM371.4,456.4h10.8l-5.4-14.6-5.4,14.6Z"/>
    </g>
  </g>
</svg>