<?xml version="1.0" encoding="UTF-8"?>
<svg id="Capa_1" xmlns="http://www.w3.org/2000/svg" version="1.1" viewBox="0 0 111.4 31.8">
  <!-- Generator: Adobe Illustrator 29.6.1, SVG Export Plug-In . SVG Version: 2.1.1 Build 9)  -->
  <defs>
    <style>
      .st0 {
        fill: #fff;
      }

      .st1 {
        opacity: .8;
      }
    </style>
  </defs>
  <g class="st1">
    <path class="st0" d="M26.7,10.2v-4.9h.6l1.9,3.9,1.9-3.9h.6v4.9h-.6v-3.6l-1.7,3.6h-.3l-1.7-3.6v3.6h-.6Z"/>
    <path class="st0" d="M33.5,10.3c-.3,0-.5,0-.7-.2-.2-.1-.3-.2-.4-.4,0-.2-.1-.4-.1-.5s0-.4.1-.5c0-.1.2-.3.3-.4.1,0,.3-.2.5-.2.2,0,.4,0,.6-.1.2,0,.4,0,.7,0,.2,0,.4,0,.6,0h-.2c0-.2,0-.4-.2-.6-.1-.2-.4-.2-.7-.2s-.4,0-.6.2c-.2.1-.3.3-.4.5l-.6-.2c0-.3.3-.6.5-.8.3-.2.6-.3,1-.3s.6,0,.9.2.4.3.5.5c0,.1,0,.2,0,.4s0,.3,0,.4v2.3h-.5v-.9h.1c-.1.4-.3.6-.6.8-.3.2-.6.2-.9.2ZM33.6,9.8c.2,0,.4,0,.6-.1s.3-.2.4-.3c0-.1.2-.3.2-.4,0-.1,0-.2,0-.4,0-.1,0-.2,0-.3h.2c-.2.1-.4.1-.6.2-.2,0-.4,0-.5,0-.2,0-.3,0-.5,0-.1,0-.2,0-.3.1,0,0-.2.1-.2.2,0,0,0,.2,0,.3s0,.2,0,.3c0,0,.1.2.2.2.1,0,.3,0,.4,0Z"/>
    <path class="st0" d="M36.3,10.2v-3.7h.5v1h0v2.7h-.6ZM39,10.2v-1.9c0-.2,0-.3,0-.5,0-.2,0-.3-.2-.4,0-.1-.2-.2-.3-.3-.1,0-.3-.1-.5-.1s-.3,0-.4,0c-.1,0-.2.1-.3.2,0,.1-.2.2-.2.4,0,.2,0,.3,0,.6h-.4c0-.5,0-.8.2-1,.1-.3.3-.5.5-.6s.5-.2.8-.2.4,0,.6.1c.2,0,.3.2.4.3.1.1.2.3.3.4,0,.2.1.3.1.5s0,.3,0,.4v2h-.6Z"/>
    <path class="st0" d="M40.1,7v-.5h2.5v.5h-2.5ZM42.5,10.2c-.2,0-.4,0-.7,0-.2,0-.4,0-.6-.1-.2,0-.3-.2-.4-.4,0-.1-.1-.3-.1-.4s0-.3,0-.5v-3.3h.6v3.3c0,.2,0,.3,0,.4,0,.1,0,.2,0,.3,0,.1.2.2.4.3.2,0,.4,0,.7,0v.5Z"/>
    <path class="st0" d="M44.9,10.3c-.4,0-.7,0-1-.2-.3-.2-.5-.4-.6-.7-.2-.3-.2-.6-.2-1s0-.8.2-1.1.4-.5.6-.7c.3-.2.6-.2.9-.2s.7,0,1,.3c.3.2.5.4.6.7.1.3.2.7.2,1.1h-.6v-.2c0-.5,0-.8-.3-1-.2-.2-.4-.3-.8-.3s-.7.1-.9.4c-.2.2-.3.6-.3,1s0,.8.3,1c.2.2.5.4.8.4s.5,0,.6-.2.3-.3.4-.5l.6.2c-.1.3-.4.6-.7.8-.3.2-.6.3-1,.3ZM43.5,8.6v-.5h2.7v.5h-2.7Z"/>
    <path class="st0" d="M47.3,10.2v-3.7h.5v1h0v2.7h-.6ZM50,10.2v-1.9c0-.2,0-.3,0-.5,0-.2,0-.3-.2-.4,0-.1-.2-.2-.3-.3-.1,0-.3-.1-.5-.1s-.3,0-.4,0c-.1,0-.2.1-.3.2,0,.1-.2.2-.2.4,0,.2,0,.3,0,.6h-.4c0-.5,0-.8.2-1,.1-.3.3-.5.5-.6s.5-.2.8-.2.4,0,.6.1c.2,0,.3.2.4.3.1.1.2.3.3.4,0,.2.1.3.1.5s0,.3,0,.4v2h-.6Z"/>
    <path class="st0" d="M51.5,5.9v-.6h.6v.6h-.6ZM51.5,10.2v-3.7h.6v3.7h-.6Z"/>
    <path class="st0" d="M53.2,10.2v-3.7h.5v1h0v2.7h-.6ZM55.4,10.2v-2.3c0-.3,0-.5-.2-.7-.1-.2-.3-.2-.6-.2s-.4,0-.6.2c-.1.2-.2.4-.2.7l-.3-.2c0-.2,0-.5.2-.6s.3-.3.5-.4c.2-.1.4-.2.7-.2s.5,0,.7.2c.2.1.3.3.4.5s.2.4.2.7v2.5h-.6ZM57.6,10.2v-2.4c0-.3,0-.5-.2-.7-.1-.2-.3-.2-.6-.2s-.3,0-.4,0c-.1,0-.2.2-.3.3,0,.1-.1.3-.1.5h-.3c0-.4,0-.6.2-.8.1-.2.3-.4.5-.5.2-.1.4-.2.7-.2.4,0,.7.1.9.4.2.2.3.5.3.9v2.5h-.6Z"/>
    <path class="st0" d="M59.2,5.9v-.6h.6v.6h-.6ZM59.2,10.2v-3.7h.6v3.7h-.6Z"/>
    <path class="st0" d="M62.4,10.3c-.4,0-.7,0-1-.2-.3-.2-.5-.4-.6-.7-.2-.3-.2-.6-.2-1s0-.8.2-1.1.4-.5.6-.7c.3-.2.6-.2.9-.2s.7,0,1,.3c.3.2.5.4.6.7.1.3.2.7.2,1.1h-.6v-.2c0-.5,0-.8-.3-1-.2-.2-.4-.3-.8-.3s-.7.1-.9.4c-.2.2-.3.6-.3,1s0,.8.3,1c.2.2.5.4.8.4s.5,0,.6-.2.3-.3.4-.5l.6.2c-.1.3-.4.6-.7.8-.3.2-.6.3-1,.3ZM61.1,8.6v-.5h2.7v.5h-2.7Z"/>
    <path class="st0" d="M64.9,10.2v-3.7h.5v1h0v2.7h-.6ZM67.5,10.2v-1.9c0-.2,0-.3,0-.5,0-.2,0-.3-.2-.4,0-.1-.2-.2-.3-.3-.1,0-.3-.1-.5-.1s-.3,0-.4,0c-.1,0-.2.1-.3.2,0,.1-.2.2-.2.4,0,.2,0,.3,0,.6h-.4c0-.5,0-.8.2-1,.1-.3.3-.5.5-.6s.5-.2.8-.2.4,0,.6.1c.2,0,.3.2.4.3.1.1.2.3.3.4,0,.2.1.3.1.5s0,.3,0,.4v2h-.6Z"/>
    <path class="st0" d="M68.6,7v-.5h2.5v.5h-2.5ZM71.1,10.2c-.2,0-.4,0-.7,0-.2,0-.4,0-.6-.1-.2,0-.3-.2-.4-.4,0-.1-.1-.3-.1-.4s0-.3,0-.5v-3.3h.6v3.3c0,.2,0,.3,0,.4,0,.1,0,.2,0,.3,0,.1.2.2.4.3.2,0,.4,0,.7,0v.5Z"/>
    <path class="st0" d="M73.4,10.3c-.4,0-.7,0-1-.2-.3-.2-.5-.4-.6-.7-.1-.3-.2-.6-.2-1s0-.7.2-1c.1-.3.4-.5.6-.7.3-.2.6-.2.9-.2s.7,0,1,.3c.3.2.5.4.6.7.1.3.2.6.2,1s0,.7-.2,1c-.1.3-.3.5-.6.7-.3.2-.6.2-1,.2ZM73.4,9.8c.4,0,.7-.1.9-.4s.3-.6.3-1,0-.7-.3-1-.5-.4-.9-.4-.5,0-.6.2-.3.3-.4.5-.1.4-.1.7c0,.4,0,.8.3,1,.2.3.5.4.8.4Z"/>
    <path class="st0" d="M77.3,10.2v-3.7h.5v1h0v2.7h-.6ZM79.5,10.2v-2.3c0-.3,0-.5-.2-.7-.1-.2-.3-.2-.6-.2s-.4,0-.6.2c-.1.2-.2.4-.2.7l-.3-.2c0-.2,0-.5.2-.6s.3-.3.5-.4c.2-.1.4-.2.7-.2s.5,0,.7.2c.2.1.3.3.4.5s.2.4.2.7v2.5h-.6ZM81.8,10.2v-2.4c0-.3,0-.5-.2-.7-.1-.2-.3-.2-.6-.2s-.3,0-.4,0c-.1,0-.2.2-.3.3,0,.1-.1.3-.1.5h-.3c0-.4,0-.6.2-.8.1-.2.3-.4.5-.5.2-.1.4-.2.7-.2.4,0,.7.1.9.4.2.2.3.5.3.9v2.5h-.6Z"/>
    <path class="st0" d="M83.3,10.2v-3.7h.6v3.7h-.6ZM83.9,6h-.5l.4-1.1h.5l-.4,1.1Z"/>
    <path class="st0" d="M85,10.2v-3.7h.5v1h0v2.7h-.6ZM87.6,10.2v-1.9c0-.2,0-.3,0-.5,0-.2,0-.3-.2-.4,0-.1-.2-.2-.3-.3-.1,0-.3-.1-.5-.1s-.3,0-.4,0c-.1,0-.2.1-.3.2,0,.1-.2.2-.2.4,0,.2,0,.3,0,.6h-.4c0-.5,0-.8.2-1,.1-.3.3-.5.5-.6s.5-.2.8-.2.4,0,.6.1c.2,0,.3.2.4.3.1.1.2.3.3.4,0,.2.1.3.1.5s0,.3,0,.4v2h-.6Z"/>
    <path class="st0" d="M89.2,5.9v-.6h.6v.6h-.6ZM89.2,10.2v-3.7h.6v3.7h-.6Z"/>
    <path class="st0" d="M90.8,10.2v-3.7h.5v1h0v2.7h-.6ZM93,10.2v-2.3c0-.3,0-.5-.2-.7-.1-.2-.3-.2-.6-.2s-.4,0-.6.2c-.1.2-.2.4-.2.7l-.3-.2c0-.2,0-.5.2-.6s.3-.3.5-.4c.2-.1.4-.2.7-.2s.5,0,.7.2c.2.1.3.3.4.5s.2.4.2.7v2.5h-.6ZM95.3,10.2v-2.4c0-.3,0-.5-.2-.7-.1-.2-.3-.2-.6-.2s-.3,0-.4,0c-.1,0-.2.2-.3.3,0,.1-.1.3-.1.5h-.3c0-.4,0-.6.2-.8.1-.2.3-.4.5-.5.2-.1.4-.2.7-.2.4,0,.7.1.9.4.2.2.3.5.3.9v2.5h-.6Z"/>
    <path class="st0" d="M98.3,10.3c-.4,0-.7,0-1-.2-.3-.2-.5-.4-.6-.7-.1-.3-.2-.6-.2-1s0-.7.2-1c.1-.3.4-.5.6-.7.3-.2.6-.2.9-.2s.7,0,1,.3c.3.2.5.4.6.7.1.3.2.6.2,1s0,.7-.2,1c-.1.3-.3.5-.6.7-.3.2-.6.2-1,.2ZM98.3,9.8c.4,0,.7-.1.9-.4s.3-.6.3-1,0-.7-.3-1-.5-.4-.9-.4-.5,0-.6.2-.3.3-.4.5-.1.4-.1.7c0,.4,0,.8.3,1,.2.3.5.4.8.4Z"/>
    <path class="st0" d="M28.4,18.6c-.3,0-.7,0-.9-.2-.3-.1-.5-.3-.7-.5s-.3-.5-.4-.8h.6c0,.2.2.5.5.6.3.2.5.3.9.3s.4,0,.6-.1c.2,0,.3-.2.4-.3.1-.1.2-.3.2-.5s0-.2,0-.3c0,0,0-.1-.2-.2,0,0-.1-.1-.2-.1,0,0-.2,0-.3,0l-1.3-.4c-.1,0-.3,0-.4-.2-.1,0-.2-.1-.3-.2-.1,0-.2-.2-.2-.3,0-.1,0-.3,0-.5,0-.3,0-.5.2-.7s.4-.4.6-.5.6-.2.9-.2c.3,0,.6,0,.9.2s.5.3.7.5c.2.2.3.5.3.8h-.6c0,0-.1-.3-.2-.4-.1-.1-.3-.3-.4-.3-.2,0-.4-.1-.6-.1-.2,0-.4,0-.5,0s-.3.2-.4.3c0,.1-.1.3-.1.4s0,.3.1.4c0,0,.2.2.3.2s.3,0,.4.1l.9.3c.1,0,.2,0,.4.1s.3.1.4.2c.1,0,.2.2.3.4,0,.2.1.4.1.6s0,.4-.1.6-.2.3-.4.5c-.2.1-.4.2-.6.3-.2,0-.5,0-.7,0Z"/>
    <path class="st0" d="M31.1,18.5v-4.9h.6v4.9h-.6Z"/>
    <path class="st0" d="M32.7,18.5v-4.9h.6l2.6,3.9v-3.9h.6v4.9h-.6l-2.6-3.9v3.9h-.6Z"/>
    <path class="st0" d="M40.2,18.6c-.2,0-.4,0-.6-.1-.2,0-.3-.2-.4-.3-.1-.1-.2-.3-.3-.4,0-.2-.1-.3-.1-.5s0-.3,0-.4v-2h.6v1.9c0,.2,0,.3,0,.5,0,.2,0,.3.2.4,0,.1.2.2.3.3.1,0,.3.1.5.1s.3,0,.4,0c.1,0,.2-.1.3-.2,0-.1.2-.2.2-.4,0-.2,0-.3,0-.6h.4c0,.5,0,.8-.2,1-.1.3-.3.5-.5.6-.2.1-.5.2-.8.2ZM41.5,18.5v-1h0v-2.7h.6v3.7h-.5Z"/>
    <path class="st0" d="M42.6,15.3v-.5h2.5v.5h-2.5ZM45,18.5c-.2,0-.4,0-.7,0-.2,0-.4,0-.6-.1-.2,0-.3-.2-.4-.4,0-.1-.1-.3-.1-.4s0-.3,0-.5v-3.3h.6v3.3c0,.2,0,.3,0,.4,0,.1,0,.2,0,.3,0,.1.2.2.4.3.2,0,.4,0,.7,0v.5Z"/>
    <path class="st0" d="M45.9,14.1v-.6h.6v.6h-.6ZM45.9,18.5v-3.7h.6v3.7h-.6Z"/>
    <path class="st0" d="M47.6,18.5v-5h.6v5h-.6Z"/>
    <path class="st0" d="M49.3,14.1v-.6h.6v.6h-.6ZM49.3,18.5v-3.7h.6v3.7h-.6Z"/>
    <path class="st0" d="M50.6,18.5h0c0-.1,2.2-3.1,2.2-3.1h-2.1v-.6h3c0,.1-2.2,3.1-2.2,3.1h2.1v.6h-3.1Z"/>
    <path class="st0" d="M55.6,18.6c-.3,0-.5,0-.7-.2-.2-.1-.3-.2-.4-.4,0-.2-.1-.4-.1-.5s0-.4.1-.5c0-.1.2-.3.3-.4.1,0,.3-.2.5-.2.2,0,.4,0,.6-.1.2,0,.4,0,.7,0,.2,0,.4,0,.6,0h-.2c0-.2,0-.4-.2-.6-.1-.2-.4-.2-.7-.2s-.4,0-.6.2c-.2.1-.3.3-.4.5l-.6-.2c0-.3.3-.6.5-.8.3-.2.6-.3,1-.3s.6,0,.9.2.4.3.5.5c0,.1,0,.2,0,.4s0,.3,0,.4v2.3h-.5v-.9h.1c-.1.4-.3.6-.6.8-.3.2-.6.2-.9.2ZM55.7,18.1c.2,0,.4,0,.6-.1s.3-.2.4-.3c0-.1.2-.3.2-.4,0-.1,0-.2,0-.4,0-.1,0-.2,0-.3h.2c-.2.1-.4.1-.6.2-.2,0-.4,0-.5,0-.2,0-.3,0-.5,0-.1,0-.2,0-.3.1,0,0-.2.1-.2.2,0,0,0,.2,0,.3s0,.2,0,.3c0,0,.1.2.2.2.1,0,.3,0,.4,0Z"/>
    <path class="st0" d="M58.4,18.5v-3.7h.5v.9h0c0-.2,0-.3.2-.4,0,0,.1-.2.2-.2,0,0,.2-.1.3-.2.1,0,.2,0,.4,0,.1,0,.2,0,.4,0v.6c-.1,0-.3,0-.4,0-.2,0-.3,0-.4.2-.1,0-.2.2-.3.3,0,.1-.1.2-.1.4,0,.1,0,.3,0,.4v1.9h-.6Z"/>
    <path class="st0" d="M63.4,18.6c-.3,0-.5,0-.7-.2-.2-.1-.3-.2-.4-.4,0-.2-.1-.4-.1-.5s0-.4.1-.5c0-.1.2-.3.3-.4.1,0,.3-.2.5-.2.2,0,.4,0,.6-.1.2,0,.4,0,.7,0,.2,0,.4,0,.6,0h-.2c0-.2,0-.4-.2-.6-.1-.2-.4-.2-.7-.2s-.4,0-.6.2c-.2.1-.3.3-.4.5l-.6-.2c0-.3.3-.6.5-.8.3-.2.6-.3,1-.3s.6,0,.9.2.4.3.5.5c0,.1,0,.2,0,.4s0,.3,0,.4v2.3h-.5v-.9h.1c-.1.4-.3.6-.6.8-.3.2-.6.2-.9.2ZM63.5,18.1c.2,0,.4,0,.6-.1s.3-.2.4-.3c0-.1.2-.3.2-.4,0-.1,0-.2,0-.4,0-.1,0-.2,0-.3h.2c-.2.1-.4.1-.6.2-.2,0-.4,0-.5,0-.2,0-.3,0-.5,0-.1,0-.2,0-.3.1,0,0-.2.1-.2.2,0,0,0,.2,0,.3s0,.2,0,.3c0,0,.1.2.2.2.1,0,.3,0,.4,0Z"/>
    <path class="st0" d="M67.8,18.6c-.4,0-.7,0-1-.3s-.5-.4-.6-.7c-.1-.3-.2-.6-.2-1,0-.4,0-.7.2-1s.3-.5.6-.7c.3-.2.6-.2.9-.2s.7,0,1,.3c.3.2.5.5.6.8l-.6.2c0-.2-.2-.4-.4-.5-.2-.1-.4-.2-.6-.2s-.5,0-.6.2c-.2.1-.3.3-.4.5s-.1.4-.1.7c0,.4,0,.7.3,1,.2.3.5.4.8.4s.4,0,.6-.2c.2-.1.3-.3.4-.5l.6.2c-.1.3-.3.6-.6.8-.3.2-.6.3-1,.3Z"/>
    <path class="st0" d="M71.7,18.6c-.4,0-.7,0-1-.2-.3-.2-.5-.4-.6-.7-.2-.3-.2-.6-.2-1s0-.8.2-1.1.4-.5.6-.7c.3-.2.6-.2.9-.2s.7,0,1,.3c.3.2.5.4.6.7.1.3.2.7.2,1.1h-.6v-.2c0-.5,0-.8-.3-1-.2-.2-.4-.3-.8-.3s-.7.1-.9.4c-.2.2-.3.6-.3,1s0,.8.3,1c.2.2.5.4.8.4s.5,0,.6-.2.3-.3.4-.5l.6.2c-.1.3-.4.6-.7.8-.3.2-.6.3-1,.3ZM70.3,16.8v-.5h2.7v.5h-2.7Z"/>
    <path class="st0" d="M74.2,14.1v-.6h.6v.6h-.6ZM74.2,18.5v-3.7h.6v3.7h-.6Z"/>
    <path class="st0" d="M75.4,15.3v-.5h2.5v.5h-2.5ZM77.9,18.5c-.2,0-.4,0-.7,0-.2,0-.4,0-.6-.1-.2,0-.3-.2-.4-.4,0-.1-.1-.3-.1-.4s0-.3,0-.5v-3.3h.6v3.3c0,.2,0,.3,0,.4,0,.1,0,.2,0,.3,0,.1.2.2.4.3.2,0,.4,0,.7,0v.5Z"/>
    <path class="st0" d="M80.2,18.6c-.4,0-.7,0-1-.2-.3-.2-.5-.4-.6-.7-.2-.3-.2-.6-.2-1s0-.8.2-1.1.4-.5.6-.7c.3-.2.6-.2.9-.2s.7,0,1,.3c.3.2.5.4.6.7.1.3.2.7.2,1.1h-.6v-.2c0-.5,0-.8-.3-1-.2-.2-.4-.3-.8-.3s-.7.1-.9.4c-.2.2-.3.6-.3,1s0,.8.3,1c.2.2.5.4.8.4s.5,0,.6-.2.3-.3.4-.5l.6.2c-.1.3-.4.6-.7.8-.3.2-.6.3-1,.3ZM78.9,16.8v-.5h2.7v.5h-2.7Z"/>
    <path class="st0" d="M84.1,18.6c-.4,0-.8,0-1.1-.3s-.5-.5-.5-.8h.6c0,.1.2.3.3.4.2.1.4.2.7.2s.4,0,.6-.2.2-.2.2-.4,0-.2,0-.3-.1-.1-.3-.2c-.2,0-.4-.1-.7-.2-.3,0-.6-.2-.8-.3-.2,0-.3-.2-.4-.3,0-.1-.1-.3-.1-.5s0-.4.2-.6.3-.3.5-.4c.2,0,.5-.1.7-.1s.5,0,.8.1c.2,0,.4.2.5.4.1.2.2.4.2.6h-.6c0,0-.1-.2-.3-.4-.2-.1-.4-.2-.6-.2-.2,0-.4,0-.6.1-.2,0-.2.2-.2.4s0,.2,0,.2c0,0,.2.1.3.2.2,0,.4.1.7.2.3,0,.6.2.8.3.2,0,.3.2.4.3,0,.1.1.3.1.5,0,.4-.1.6-.4.8-.3.2-.6.3-1.1.3Z"/>
    <path class="st0" d="M86.3,19.2v-.3c.1,0,.2,0,.3,0,0,0,0-.1,0-.2,0,0,0-.2,0-.2h-.4v-.8h.7v.9c0,.2,0,.4-.2.5-.1.1-.3.2-.5.1Z"/>
    <path class="st0" d="M89.6,18.5v-4.9h.6v2.2h0v2.7h-.5ZM91.3,18.6c-.3,0-.6,0-.9-.3-.2-.2-.4-.4-.5-.7s-.2-.6-.2-1,0-.7.2-1,.3-.5.5-.7.5-.3.9-.3.6,0,.9.3.4.4.6.7.2.6.2,1,0,.7-.2,1-.3.5-.6.7-.5.3-.9.3ZM91.2,18c.2,0,.4,0,.6-.2.2-.1.3-.3.4-.5s.1-.4.1-.7,0-.5-.1-.7-.2-.4-.4-.5c-.2-.1-.4-.2-.6-.2s-.4,0-.6.2c-.2.1-.3.3-.4.5,0,.2-.1.5-.1.7s0,.5.1.7c0,.2.2.4.4.5.2.1.4.2.6.2Z"/>
    <path class="st0" d="M95.1,18.6c-.2,0-.4,0-.6-.1-.2,0-.3-.2-.4-.3-.1-.1-.2-.3-.3-.4,0-.2-.1-.3-.1-.5s0-.3,0-.4v-2h.6v1.9c0,.2,0,.3,0,.5,0,.2,0,.3.2.4,0,.1.2.2.3.3.1,0,.3.1.5.1s.3,0,.4,0c.1,0,.2-.1.3-.2,0-.1.2-.2.2-.4,0-.2,0-.3,0-.6h.4c0,.5,0,.8-.2,1-.1.3-.3.5-.5.6-.2.1-.5.2-.8.2ZM96.4,18.5v-1h0v-2.7h.6v3.7h-.5Z"/>
    <path class="st0" d="M97.3,20.1v-.6h.2c.2,0,.3,0,.4-.1,0,0,.1-.2.1-.4v-4.2h.6v4.4c0,.3,0,.5-.2.7-.2.2-.4.2-.7.2h-.4ZM98.1,14.1v-.6h.6v.6h-.6Z"/>
    <path class="st0" d="M99.7,18.5v-3.7h.6v3.7h-.6ZM100.3,14.2h-.5l.4-1.1h.5l-.4,1.1Z"/>
    <path class="st0" d="M102.4,18.6c-.3,0-.5,0-.7-.2-.2-.1-.3-.2-.4-.4,0-.2-.1-.4-.1-.5s0-.4.1-.5c0-.1.2-.3.3-.4.1,0,.3-.2.5-.2.2,0,.4,0,.6-.1.2,0,.4,0,.7,0,.2,0,.4,0,.6,0h-.2c0-.2,0-.4-.2-.6-.1-.2-.4-.2-.7-.2s-.4,0-.6.2c-.2.1-.3.3-.4.5l-.6-.2c0-.3.3-.6.5-.8.3-.2.6-.3,1-.3s.6,0,.9.2.4.3.5.5c0,.1,0,.2,0,.4s0,.3,0,.4v2.3h-.5v-.9h.1c-.1.4-.3.6-.6.8-.3.2-.6.2-.9.2ZM102.5,18.1c.2,0,.4,0,.6-.1s.3-.2.4-.3c0-.1.2-.3.2-.4,0-.1,0-.2,0-.4,0-.1,0-.2,0-.3h.2c-.2.1-.4.1-.6.2-.2,0-.4,0-.5,0-.2,0-.3,0-.5,0-.1,0-.2,0-.3.1,0,0-.2.1-.2.2,0,0,0,.2,0,.3s0,.2,0,.3c0,0,.1.2.2.2.1,0,.3,0,.4,0Z"/>
    <path class="st0" d="M106.6,18.6c-.4,0-.8,0-1.1-.3s-.5-.5-.5-.8h.6c0,.1.2.3.3.4.2.1.4.2.7.2s.4,0,.6-.2.2-.2.2-.4,0-.2,0-.3-.1-.1-.3-.2c-.2,0-.4-.1-.7-.2-.3,0-.6-.2-.8-.3-.2,0-.3-.2-.4-.3,0-.1-.1-.3-.1-.5s0-.4.2-.6.3-.3.5-.4c.2,0,.5-.1.7-.1s.5,0,.8.1c.2,0,.4.2.5.4.1.2.2.4.2.6h-.6c0,0-.1-.2-.3-.4-.2-.1-.4-.2-.6-.2-.2,0-.4,0-.6.1-.2,0-.2.2-.2.4s0,.2,0,.2c0,0,.2.1.3.2.2,0,.4.1.7.2.3,0,.6.2.8.3.2,0,.3.2.4.3,0,.1.1.3.1.5,0,.4-.1.6-.4.8-.3.2-.6.3-1.1.3Z"/>
    <path class="st0" d="M108.8,19.2v-.3c.1,0,.2,0,.3,0,0,0,0-.1,0-.2,0,0,0-.2,0-.2h-.4v-.8h.7v.9c0,.2,0,.4-.2.5-.1.1-.3.2-.5.1Z"/>
    <path class="st0" d="M26.4,23.5v-.5h2.2v.5h-2.2ZM27,26.7v-3.9c0,0,0-.2,0-.3,0-.1,0-.2,0-.3s0-.2.2-.3c0,0,.2-.2.3-.2s.2,0,.3,0c.1,0,.2,0,.3,0h.5v.5h-.4c-.2,0-.3,0-.4.1s-.1.2-.1.4v4h-.6ZM29.3,22.3v-.6h.6v.6h-.6ZM29.3,26.7v-3.7h.6v3.7h-.6Z"/>
    <path class="st0" d="M31,26.7v-5h.6v5h-.6Z"/>
    <path class="st0" d="M32.3,23.5v-.5h2.5v.5h-2.5ZM34.7,26.7c-.2,0-.4,0-.7,0-.2,0-.4,0-.6-.1-.2,0-.3-.2-.4-.4,0-.1-.1-.3-.1-.4s0-.3,0-.5v-3.3h.6v3.3c0,.2,0,.3,0,.4,0,.1,0,.2,0,.3,0,.1.2.2.4.3.2,0,.4,0,.7,0v.5Z"/>
    <path class="st0" d="M35.5,26.7v-3.7h.5v.9h0c0-.2,0-.3.2-.4,0,0,.1-.2.2-.2,0,0,.2-.1.3-.2.1,0,.2,0,.4,0,.1,0,.2,0,.4,0v.6c-.1,0-.3,0-.4,0-.2,0-.3,0-.4.2-.1,0-.2.2-.3.3,0,.1-.1.2-.1.4,0,.1,0,.3,0,.4v1.9h-.6Z"/>
    <path class="st0" d="M39.6,26.8c-.4,0-.7,0-1-.2-.3-.2-.5-.4-.6-.7-.1-.3-.2-.6-.2-1s0-.7.2-1c.1-.3.4-.5.6-.7.3-.2.6-.2.9-.2s.7,0,1,.3c.3.2.5.4.6.7.1.3.2.6.2,1s0,.7-.2,1c-.1.3-.3.5-.6.7-.3.2-.6.2-1,.2ZM39.6,26.2c.4,0,.7-.1.9-.4s.3-.6.3-1,0-.7-.3-1-.5-.4-.9-.4-.5,0-.6.2-.3.3-.4.5-.1.4-.1.7c0,.4,0,.8.3,1,.2.3.5.4.8.4Z"/>
    <path class="st0" d="M43.6,26.8c-.4,0-.8,0-1.1-.3s-.5-.5-.5-.8h.6c0,.1.2.3.3.4.2.1.4.2.7.2s.4,0,.6-.2.2-.2.2-.4,0-.2,0-.3-.1-.1-.3-.2c-.2,0-.4-.1-.7-.2-.3,0-.6-.2-.8-.3-.2,0-.3-.2-.4-.3,0-.1-.1-.3-.1-.5s0-.4.2-.6.3-.3.5-.4c.2,0,.5-.1.7-.1s.5,0,.8.1c.2,0,.4.2.5.4.1.2.2.4.2.6h-.6c0,0-.1-.2-.3-.4-.2-.1-.4-.2-.6-.2-.2,0-.4,0-.6.1-.2,0-.2.2-.2.4s0,.2,0,.2c0,0,.2.1.3.2.2,0,.4.1.7.2.3,0,.6.2.8.3.2,0,.3.2.4.3,0,.1.1.3.1.5,0,.4-.1.6-.4.8-.3.2-.6.3-1.1.3Z"/>
    <path class="st0" d="M45.7,27.5v-.3c.1,0,.2,0,.3,0,0,0,0-.1,0-.2,0,0,0-.2,0-.2h-.4v-.8h.7v.9c0,.2,0,.4-.2.5-.1.1-.3.2-.5.1Z"/>
    <path class="st0" d="M49.2,22.3v-.6h.6v.6h-.6ZM49.2,26.7v-3.7h.6v3.7h-.6Z"/>
    <path class="st0" d="M50.8,26.7v-3.7h.5v1h0v2.7h-.6ZM53.4,26.7v-1.9c0-.2,0-.3,0-.5,0-.2,0-.3-.2-.4,0-.1-.2-.2-.3-.3-.1,0-.3-.1-.5-.1s-.3,0-.4,0c-.1,0-.2.1-.3.2,0,.1-.2.2-.2.4,0,.2,0,.3,0,.6h-.4c0-.5,0-.8.2-1,.1-.3.3-.5.5-.6s.5-.2.8-.2.4,0,.6.1c.2,0,.3.2.4.3.1.1.2.3.3.4,0,.2.1.3.1.5s0,.3,0,.4v2h-.6Z"/>
    <path class="st0" d="M55.4,28.3l.7-1.9v.6s-1.6-4-1.6-4h.6l1.3,3.2h-.2l1.2-3.2h.6l-2,5.3h-.6Z"/>
    <path class="st0" d="M60.2,26.8c-.4,0-.7,0-1-.2-.3-.2-.5-.4-.6-.7-.2-.3-.2-.6-.2-1s0-.8.2-1.1.4-.5.6-.7c.3-.2.6-.2.9-.2s.7,0,1,.3c.3.2.5.4.6.7.1.3.2.7.2,1.1h-.6v-.2c0-.5,0-.8-.3-1-.2-.2-.4-.3-.8-.3s-.7.1-.9.4c-.2.2-.3.6-.3,1s0,.8.3,1c.2.2.5.4.8.4s.5,0,.6-.2.3-.3.4-.5l.6.2c-.1.3-.4.6-.7.8-.3.2-.6.3-1,.3ZM58.9,25v-.5h2.7v.5h-2.7Z"/>
    <path class="st0" d="M64.2,26.8c-.4,0-.7,0-1-.3s-.5-.4-.6-.7c-.1-.3-.2-.6-.2-1,0-.4,0-.7.2-1s.3-.5.6-.7c.3-.2.6-.2.9-.2s.7,0,1,.3c.3.2.5.5.6.8l-.6.2c0-.2-.2-.4-.4-.5-.2-.1-.4-.2-.6-.2s-.5,0-.6.2c-.2.1-.3.3-.4.5s-.1.4-.1.7c0,.4,0,.7.3,1,.2.3.5.4.8.4s.4,0,.6-.2c.2-.1.3-.3.4-.5l.6.2c-.1.3-.3.6-.6.8-.3.2-.6.3-1,.3Z"/>
    <path class="st0" d="M66.1,23.5v-.5h2.5v.5h-2.5ZM68.6,26.7c-.2,0-.4,0-.7,0-.2,0-.4,0-.6-.1-.2,0-.3-.2-.4-.4,0-.1-.1-.3-.1-.4s0-.3,0-.5v-3.3h.6v3.3c0,.2,0,.3,0,.4,0,.1,0,.2,0,.3,0,.1.2.2.4.3.2,0,.4,0,.7,0v.5Z"/>
    <path class="st0" d="M70.9,26.8c-.4,0-.7,0-1-.2-.3-.2-.5-.4-.6-.7-.1-.3-.2-.6-.2-1s0-.7.2-1c.1-.3.4-.5.6-.7.3-.2.6-.2.9-.2s.7,0,1,.3c.3.2.5.4.6.7.1.3.2.6.2,1s0,.7-.2,1c-.1.3-.3.5-.6.7-.3.2-.6.2-1,.2ZM70.9,26.2c.4,0,.7-.1.9-.4s.3-.6.3-1,0-.7-.3-1-.5-.4-.9-.4-.5,0-.6.2-.3.3-.4.5-.1.4-.1.7c0,.4,0,.8.3,1,.2.3.5.4.8.4Z"/>
    <path class="st0" d="M73.5,26.7v-3.7h.5v.9h0c0-.2,0-.3.2-.4,0,0,.1-.2.2-.2,0,0,.2-.1.3-.2.1,0,.2,0,.4,0,.1,0,.2,0,.4,0v.6c-.1,0-.3,0-.4,0-.2,0-.3,0-.4.2-.1,0-.2.2-.3.3,0,.1-.1.2-.1.4,0,.1,0,.3,0,.4v1.9h-.6Z"/>
    <path class="st0" d="M77.6,26.8c-.4,0-.7,0-1-.2-.3-.2-.5-.4-.6-.7-.2-.3-.2-.6-.2-1s0-.8.2-1.1.4-.5.6-.7c.3-.2.6-.2.9-.2s.7,0,1,.3c.3.2.5.4.6.7.1.3.2.7.2,1.1h-.6v-.2c0-.5,0-.8-.3-1-.2-.2-.4-.3-.8-.3s-.7.1-.9.4c-.2.2-.3.6-.3,1s0,.8.3,1c.2.2.5.4.8.4s.5,0,.6-.2.3-.3.4-.5l.6.2c-.1.3-.4.6-.7.8-.3.2-.6.3-1,.3ZM76.3,25v-.5h2.7v.5h-2.7Z"/>
    <path class="st0" d="M81.5,26.8c-.4,0-.8,0-1.1-.3s-.5-.5-.5-.8h.6c0,.1.2.3.3.4.2.1.4.2.7.2s.4,0,.6-.2.2-.2.2-.4,0-.2,0-.3-.1-.1-.3-.2c-.2,0-.4-.1-.7-.2-.3,0-.6-.2-.8-.3-.2,0-.3-.2-.4-.3,0-.1-.1-.3-.1-.5s0-.4.2-.6.3-.3.5-.4c.2,0,.5-.1.7-.1s.5,0,.8.1c.2,0,.4.2.5.4.1.2.2.4.2.6h-.6c0,0-.1-.2-.3-.4-.2-.1-.4-.2-.6-.2-.2,0-.4,0-.6.1-.2,0-.2.2-.2.4s0,.2,0,.2c0,0,.2.1.3.2.2,0,.4.1.7.2.3,0,.6.2.8.3.2,0,.3.2.4.3,0,.1.1.3.1.5,0,.4-.1.6-.4.8-.3.2-.6.3-1.1.3Z"/>
    <path class="st0" d="M83.6,27.5v-.3c.1,0,.2,0,.3,0,0,0,0-.1,0-.2,0,0,0-.2,0-.2h-.4v-.8h.7v.9c0,.2,0,.4-.2.5-.1.1-.3.2-.5.1Z"/>
    <path class="st0" d="M88.6,26.8c-.4,0-.7,0-1-.2-.3-.2-.5-.4-.6-.7-.2-.3-.2-.6-.2-1s0-.8.2-1.1.4-.5.6-.7c.3-.2.6-.2.9-.2s.7,0,1,.3c.3.2.5.4.6.7.1.3.2.7.2,1.1h-.6v-.2c0-.5,0-.8-.3-1-.2-.2-.4-.3-.8-.3s-.7.1-.9.4c-.2.2-.3.6-.3,1s0,.8.3,1c.2.2.5.4.8.4s.5,0,.6-.2.3-.3.4-.5l.6.2c-.1.3-.4.6-.7.8-.3.2-.6.3-1,.3ZM87.2,25v-.5h2.7v.5h-2.7Z"/>
    <path class="st0" d="M90.6,23.5v-.5h2.5v.5h-2.5ZM93.1,26.7c-.2,0-.4,0-.7,0-.2,0-.4,0-.6-.1-.2,0-.3-.2-.4-.4,0-.1-.1-.3-.1-.4s0-.3,0-.5v-3.3h.6v3.3c0,.2,0,.3,0,.4,0,.1,0,.2,0,.3,0,.1.2.2.4.3.2,0,.4,0,.7,0v.5Z"/>
    <path class="st0" d="M95.4,26.8c-.4,0-.7,0-1-.3s-.5-.4-.6-.7c-.1-.3-.2-.6-.2-1,0-.4,0-.7.2-1s.3-.5.6-.7c.3-.2.6-.2.9-.2s.7,0,1,.3c.3.2.5.5.6.8l-.6.2c0-.2-.2-.4-.4-.5-.2-.1-.4-.2-.6-.2s-.5,0-.6.2c-.2.1-.3.3-.4.5s-.1.4-.1.7c0,.4,0,.7.3,1,.2.3.5.4.8.4s.4,0,.6-.2c.2-.1.3-.3.4-.5l.6.2c-.1.3-.3.6-.6.8-.3.2-.6.3-1,.3Z"/>
    <path class="st0" d="M97.8,26.7v-.7h.7v.7h-.7Z"/>
  </g>
  <g class="st1">
    <path class="st0" d="M18.8,5.9s0,0,0,.1l-3.1,3.2c-.3.3-.4.5-.1.9s1.3,1.4,1.8,1.7.9.9,1.6.4l2.9-3c.4-.3.6.9.7,1.1.5,3.8-3.2,7.1-7,6.1s-.7-.3-.9-.3l-9.6,9.6c-1.9,1.5-4.4-.9-2.9-2.9l9.7-9.5v-.2c-1.6-3.5.9-7.5,4.8-7.6s1.8.1,2.1.4ZM4.7,23.4c-.4-.4-1.4-.3-1.6.3-.5,1.5,1.7,1.7,1.8.4s0-.6-.2-.7Z"/>
    <path class="st0" d="M3.6,20.1c0,0-.4.6-.6.5-.1-.4-.5-1.1-.5-1.4s1-.6,1.2-.9c0-.4.2-1,.3-1.4s-.5-.5-.8-.8-.5-.4-.4-.8.8-1.7,1.1-1.8c.5-.2,1,.4,1.4.3s1-.8,1.4-.9c0-.4-.2-1.4,0-1.6s1.5-.5,1.8-.5c.6,0,.6.6.9,1.1s.8.3,1.3.4v.8c-.5.2-1,1.1-1.3,1.3s-.4,0-.6,0c-1.3.4-2.3,1.3-2.7,2.6s0,.5-.2.8c-.3.5-1.9,1.8-2.4,2.3Z"/>
    <path class="st0" d="M17,17.7c.1.6-1.1.6-1.2,1l-.3,1.4c.2.4.9.7.8,1.1s-.9,1.4-1.2,1.9c-.3.2-.9-.4-1.3-.5s-.4.2-.6.3-.6.4-.9.5c0,.2,0,.4,0,.6,0,.7.3,1-.5,1.2s-1.6.3-1.8.2c-.4-.1-.4-1.1-.7-1.4l-.8-.2s.1-.2.2-.3c.3-.3,1.6-1.5,1.9-1.7.8-.5,1.5-.6,2.2-1.4s.6-1.2,1-1.9.8-.8,1.1-1.2c0,0,.2-.1.3-.1.5,0,1.4.3,1.9.3Z"/>
    <path class="st0" d="M4.7,23.4c.2.2.2.5.2.7,0,1.3-2.3,1.1-1.8-.4s1.2-.7,1.6-.3Z"/>
  </g>
</svg>