<?xml version="1.0" encoding="UTF-8"?>
<svg id="Capa_1" xmlns="http://www.w3.org/2000/svg" version="1.1" viewBox="0 0 111.4 31.8">
  <!-- Generator: Adobe Illustrator 29.6.1, SVG Export Plug-In . SVG Version: 2.1.1 Build 9)  -->
  <defs>
    <style>
      .st0, .st1 {
        fill: #fff;
      }

      .st0, .st2 {
        opacity: .8;
      }
    </style>
  </defs>
  <g class="st2">
    <path class="st1" d="M50.9,15.1c-.5,0-.9-.1-1.3-.3-.3-.2-.6-.5-.8-.9-.2-.4-.3-.8-.3-1.3s0-1,.3-1.3c.2-.4.4-.7.8-.9s.8-.3,1.3-.3,1,.1,1.4.4c.4.3.6.7.8,1.2l-.6.2c-.1-.4-.3-.7-.5-.9-.3-.2-.6-.3-1-.3s-.7,0-.9.3c-.2.2-.4.4-.6.7s-.2.6-.2,1c0,.4,0,.7.2,1,.1.3.3.5.6.7s.6.3.9.3.8-.1,1-.3c.3-.2.4-.5.5-.9l.6.2c-.1.5-.4.9-.8,1.2-.4.3-.8.4-1.4.4Z"/>
    <path class="st1" d="M55.5,15.1c-.4,0-.7,0-1-.2-.3-.2-.5-.4-.6-.7-.2-.3-.2-.6-.2-1s0-.8.2-1.1.4-.5.6-.7c.3-.2.6-.2.9-.2s.7,0,1,.3c.3.2.5.4.6.7.1.3.2.7.2,1.1h-.6v-.2c0-.5,0-.8-.3-1-.2-.2-.4-.3-.8-.3s-.7.1-.9.4c-.2.2-.3.6-.3,1s0,.8.3,1c.2.2.5.4.8.4s.5,0,.6-.2.3-.3.4-.5l.6.2c-.1.3-.4.6-.7.8-.3.2-.6.3-1,.3ZM54.1,13.3v-.5h2.7v.5h-2.7Z"/>
    <path class="st1" d="M57.9,15v-3.7h.5v.9h0c0-.2,0-.3.2-.4,0,0,.1-.2.2-.2,0,0,.2-.1.3-.2.1,0,.2,0,.4,0,.1,0,.2,0,.4,0v.6c-.1,0-.3,0-.4,0-.2,0-.3,0-.4.2-.1,0-.2.2-.3.3,0,.1-.1.2-.1.4,0,.1,0,.3,0,.4v1.9h-.6Z"/>
    <path class="st1" d="M62.1,15.1c-.4,0-.7,0-1-.2-.3-.2-.5-.4-.6-.7-.1-.3-.2-.6-.2-1s0-.7.2-1c.1-.3.4-.5.6-.7.3-.2.6-.2.9-.2s.7,0,1,.3c.3.2.5.4.6.7.1.3.2.6.2,1s0,.7-.2,1c-.1.3-.3.5-.6.7-.3.2-.6.2-1,.2ZM62.1,14.5c.4,0,.7-.1.9-.4s.3-.6.3-1,0-.7-.3-1-.5-.4-.9-.4-.5,0-.6.2-.3.3-.4.5-.1.4-.1.7c0,.4,0,.8.3,1,.2.3.5.4.8.4Z"/>
    <path class="st1" d="M50.5,23.3c-.4,0-.7,0-1-.2-.3-.2-.5-.4-.6-.7-.2-.3-.2-.6-.2-1s0-.8.2-1.1.4-.5.6-.7c.3-.2.6-.2.9-.2s.7,0,1,.3c.3.2.5.4.6.7.1.3.2.7.2,1.1h-.6v-.2c0-.5,0-.8-.3-1-.2-.2-.4-.3-.8-.3s-.7.1-.9.4c-.2.2-.3.6-.3,1s0,.8.3,1c.2.2.5.4.8.4s.5,0,.6-.2.3-.3.4-.5l.6.2c-.1.3-.4.6-.7.8-.3.2-.6.3-1,.3ZM49.1,21.5v-.5h2.7v.5h-2.7Z"/>
    <path class="st1" d="M53,23.2v-3.7h.5v1h0v2.7h-.6ZM55.2,23.2v-2.3c0-.3,0-.5-.2-.7-.1-.2-.3-.2-.6-.2s-.4,0-.6.2c-.1.2-.2.4-.2.7l-.3-.2c0-.2,0-.5.2-.6s.3-.3.5-.4c.2-.1.4-.2.7-.2s.5,0,.7.2c.2.1.3.3.4.5s.2.4.2.7v2.5h-.6ZM57.4,23.2v-2.4c0-.3,0-.5-.2-.7-.1-.2-.3-.2-.6-.2s-.3,0-.4,0c-.1,0-.2.2-.3.3,0,.1-.1.3-.1.5h-.3c0-.4,0-.6.2-.8.1-.2.3-.4.5-.5.2-.1.4-.2.7-.2.4,0,.7.1.9.4.2.2.3.5.3.9v2.5h-.6Z"/>
    <path class="st1" d="M59,18.8v-.6h.6v.6h-.6ZM59,23.2v-3.7h.6v3.7h-.6Z"/>
    <path class="st1" d="M62,23.3c-.4,0-.8,0-1.1-.3s-.5-.5-.5-.8h.6c0,.1.2.3.3.4.2.1.4.2.7.2s.4,0,.6-.2.2-.2.2-.4,0-.2,0-.3-.1-.1-.3-.2c-.2,0-.4-.1-.7-.2-.3,0-.6-.2-.8-.3-.2,0-.3-.2-.4-.3,0-.1-.1-.3-.1-.5s0-.4.2-.6.3-.3.5-.4c.2,0,.5-.1.7-.1s.5,0,.8.1c.2,0,.4.2.5.4.1.2.2.4.2.6h-.6c0,0-.1-.2-.3-.4-.2-.1-.4-.2-.6-.2-.2,0-.4,0-.6.1-.2,0-.2.2-.2.4s0,.2,0,.2c0,0,.2.1.3.2.2,0,.4.1.7.2.3,0,.6.2.8.3.2,0,.3.2.4.3,0,.1.1.3.1.5,0,.4-.1.6-.4.8-.3.2-.6.3-1.1.3Z"/>
    <path class="st1" d="M64.3,18.8v-.6h.6v.6h-.6ZM64.3,23.2v-3.7h.6v3.7h-.6Z"/>
    <path class="st1" d="M67.5,23.3c-.4,0-.7,0-1-.2-.3-.2-.5-.4-.6-.7-.1-.3-.2-.6-.2-1s0-.7.2-1c.1-.3.4-.5.6-.7.3-.2.6-.2.9-.2s.7,0,1,.3c.3.2.5.4.6.7.1.3.2.6.2,1s0,.7-.2,1c-.1.3-.3.5-.6.7-.3.2-.6.2-1,.2ZM67.5,22.7c.4,0,.7-.1.9-.4s.3-.6.3-1,0-.7-.3-1-.5-.4-.9-.4-.5,0-.6.2-.3.3-.4.5-.1.4-.1.7c0,.4,0,.8.3,1,.2.3.5.4.8.4Z"/>
    <path class="st1" d="M70.1,23.2v-3.7h.5v1h0v2.7h-.6ZM72.7,23.2v-1.9c0-.2,0-.3,0-.5,0-.2,0-.3-.2-.4,0-.1-.2-.2-.3-.3-.1,0-.3-.1-.5-.1s-.3,0-.4,0c-.1,0-.2.1-.3.2,0,.1-.2.2-.2.4,0,.2,0,.3,0,.6h-.4c0-.5,0-.8.2-1,.1-.3.3-.5.5-.6s.5-.2.8-.2.4,0,.6.1c.2,0,.3.2.4.3.1.1.2.3.3.4,0,.2.1.3.1.5s0,.3,0,.4v2h-.6Z"/>
    <path class="st1" d="M75.8,23.3c-.4,0-.7,0-1-.2-.3-.2-.5-.4-.6-.7-.2-.3-.2-.6-.2-1s0-.8.2-1.1.4-.5.6-.7c.3-.2.6-.2.9-.2s.7,0,1,.3c.3.2.5.4.6.7.1.3.2.7.2,1.1h-.6v-.2c0-.5,0-.8-.3-1-.2-.2-.4-.3-.8-.3s-.7.1-.9.4c-.2.2-.3.6-.3,1s0,.8.3,1c.2.2.5.4.8.4s.5,0,.6-.2.3-.3.4-.5l.6.2c-.1.3-.4.6-.7.8-.3.2-.6.3-1,.3ZM74.4,21.5v-.5h2.7v.5h-2.7Z"/>
    <path class="st1" d="M79.7,23.3c-.4,0-.8,0-1.1-.3s-.5-.5-.5-.8h.6c0,.1.2.3.3.4.2.1.4.2.7.2s.4,0,.6-.2.2-.2.2-.4,0-.2,0-.3-.1-.1-.3-.2c-.2,0-.4-.1-.7-.2-.3,0-.6-.2-.8-.3-.2,0-.3-.2-.4-.3,0-.1-.1-.3-.1-.5s0-.4.2-.6.3-.3.5-.4c.2,0,.5-.1.7-.1s.5,0,.8.1c.2,0,.4.2.5.4.1.2.2.4.2.6h-.6c0,0-.1-.2-.3-.4-.2-.1-.4-.2-.6-.2-.2,0-.4,0-.6.1-.2,0-.2.2-.2.4s0,.2,0,.2c0,0,.2.1.3.2.2,0,.4.1.7.2.3,0,.6.2.8.3.2,0,.3.2.4.3,0,.1.1.3.1.5,0,.4-.1.6-.4.8-.3.2-.6.3-1.1.3Z"/>
  </g>
  <g id="F0DLck.tif" class="st2">
    <path class="st1" d="M39.4,15.4c-.1.3-.3.5-.4.8s-.2.7-.3.8,0,0-.1,0c0,0-.6-.1-.6-.2s0,0,0,0c.4-1.4,1.1-2.7,2-3.8s1.5-1.4,2.4-1.9c-.2,0-.5.1-.7.2-1.3.5-2.5,1.4-3.1,2.6s-.2.5-.3.7-.2.1-.2,0c-.4-1.3-.4-2.6.3-3.8s1.6-1.6,2.7-1.9,2.8-.5,3.5-1.3.2-.4.3-.5.1,0,.2,0c0,0,.3.8.3,1,.6,2,.8,4-.5,5.9s-2,1.8-3.3,1.9-1.5-.1-2.2-.3Z"/>
  </g>
  <path class="st0" d="M39.8,16.1l-.7,2.2h0c-.3,1.5-.9,2.2-1.9,2.2s-2-1.3-2-4,.7-4,2-4,0,0,0,0c0-.4,0-.8.1-1.2,0-.5.3-1,.6-1.3-.2,0-.5,0-.7,0-.8,0-1.5.1-2.1.4-.6.3-1.1.7-1.5,1.3-.4.6-.7,1.3-.9,2.1-.2.8-.3,1.8-.3,2.8,0,2.1.4,3.8,1.3,4.9.8,1.2,2.1,1.7,3.7,1.7s2.8-.6,3.7-1.7c.8-1.2,1.3-2.8,1.3-4.9-1.1.2-2.3-.3-2.3-.3Z"/>
</svg>