<?xml version="1.0" encoding="UTF-8"?>
<svg id="Capa_1" xmlns="http://www.w3.org/2000/svg" version="1.1" viewBox="0 0 111.4 31.8">
  <!-- Generator: Adobe Illustrator 29.6.1, SVG Export Plug-In . SVG Version: 2.1.1 Build 9)  -->
  <defs>
    <style>
      .st0, .st1 {
        fill: #fff;
      }

      .st0, .st2 {
        opacity: .8;
      }
    </style>
  </defs>
  <g class="st2">
    <path class="st1" d="M46.1,14.6c-.5,0-.9-.1-1.3-.3-.3-.2-.6-.5-.8-.9-.2-.4-.3-.8-.3-1.3s0-1,.3-1.3c.2-.4.4-.7.8-.9s.8-.3,1.3-.3.9.1,1.3.3c.3.2.6.5.8.9s.3.8.3,1.3,0,1-.3,1.3c-.2.4-.4.7-.8.9-.3.2-.8.3-1.3.3ZM46.1,14c.4,0,.7,0,.9-.2.2-.2.4-.4.6-.7.1-.3.2-.6.2-1s0-.7-.2-1c-.1-.3-.3-.5-.6-.7-.2-.2-.6-.3-.9-.3-.4,0-.7,0-.9.2s-.4.4-.6.7c-.1.3-.2.6-.2,1,0,.4,0,.7.2,1,.1.3.3.5.6.7.2.2.6.3.9.3Z"/>
    <path class="st1" d="M49.1,14.5v-5h.6v5h-.6Z"/>
    <path class="st1" d="M51.8,14.5l-1.3-3.7h.6l1,2.9,1-2.9h.6l-1.3,3.7h-.6Z"/>
    <path class="st1" d="M54.4,14.5v-3.7h.6v3.7h-.6ZM55,10.2h-.5l.4-1.1h.5l-.4,1.1Z"/>
    <path class="st1" d="M57.5,14.6c-.3,0-.6,0-.9-.3s-.4-.4-.6-.7-.2-.6-.2-1,0-.7.2-1,.3-.5.6-.7.5-.3.9-.3.6,0,.9.3c.2.2.4.4.5.7s.2.6.2,1,0,.7-.2,1-.3.5-.5.7c-.2.2-.5.3-.9.3ZM57.6,14c.2,0,.5,0,.6-.2s.3-.3.4-.5c0-.2.1-.5.1-.7s0-.5-.1-.7c0-.2-.2-.4-.4-.5-.2-.1-.4-.2-.6-.2s-.5,0-.6.2c-.2.1-.3.3-.4.5,0,.2-.1.4-.1.7s0,.5.1.7.2.4.4.5c.2.1.4.2.6.2ZM58.7,14.5v-2.7h0v-2.2h.6v4.9h-.5Z"/>
    <path class="st1" d="M61.2,14.6c-.3,0-.5,0-.7-.2-.2-.1-.3-.2-.4-.4,0-.2-.1-.4-.1-.5s0-.4.1-.5c0-.1.2-.3.3-.4.1,0,.3-.2.5-.2.2,0,.4,0,.6-.1.2,0,.4,0,.7,0,.2,0,.4,0,.6,0h-.2c0-.2,0-.4-.2-.6-.1-.2-.4-.2-.7-.2s-.4,0-.6.2c-.2.1-.3.3-.4.5l-.6-.2c0-.3.3-.6.5-.8.3-.2.6-.3,1-.3s.6,0,.9.2.4.3.5.5c0,.1,0,.2,0,.4s0,.3,0,.4v2.3h-.5v-.9h.1c-.1.4-.3.6-.6.8-.3.2-.6.2-.9.2ZM61.3,14c.2,0,.4,0,.6-.1s.3-.2.4-.3c0-.1.2-.3.2-.4,0-.1,0-.2,0-.4,0-.1,0-.2,0-.3h.2c-.2.1-.4.1-.6.2-.2,0-.4,0-.5,0-.2,0-.3,0-.5,0-.1,0-.2,0-.3.1,0,0-.2.1-.2.2,0,0,0,.2,0,.3s0,.2,0,.3c0,0,.1.2.2.2.1,0,.3,0,.4,0Z"/>
    <path class="st1" d="M63.6,11.3v-.5h2.5v.5h-2.5ZM66.1,14.5c-.2,0-.4,0-.7,0-.2,0-.4,0-.6-.1-.2,0-.3-.2-.4-.4,0-.1-.1-.3-.1-.4s0-.3,0-.5v-3.3h.6v3.3c0,.2,0,.3,0,.4,0,.1,0,.2,0,.3,0,.1.2.2.4.3.2,0,.4,0,.7,0v.5Z"/>
    <path class="st1" d="M68.5,14.6c-.4,0-.7,0-1-.2-.3-.2-.5-.4-.6-.7-.2-.3-.2-.6-.2-1s0-.8.2-1.1.4-.5.6-.7c.3-.2.6-.2.9-.2s.7,0,1,.3c.3.2.5.4.6.7.1.3.2.7.2,1.1h-.6v-.2c0-.5,0-.8-.3-1-.2-.2-.4-.3-.8-.3s-.7.1-.9.4c-.2.2-.3.6-.3,1s0,.8.3,1c.2.2.5.4.8.4s.5,0,.6-.2.3-.3.4-.5l.6.2c-.1.3-.4.6-.7.8-.3.2-.6.3-1,.3ZM67.1,12.8v-.5h2.7v.5h-2.7Z"/>
    <path class="st1" d="M73.7,14.6c-.3,0-.6,0-.9-.3s-.4-.4-.6-.7-.2-.6-.2-1,0-.7.2-1,.3-.5.6-.7.5-.3.9-.3.6,0,.9.3c.2.2.4.4.5.7s.2.6.2,1,0,.7-.2,1-.3.5-.5.7c-.2.2-.5.3-.9.3ZM73.8,14c.2,0,.5,0,.6-.2s.3-.3.4-.5c0-.2.1-.5.1-.7s0-.5-.1-.7c0-.2-.2-.4-.4-.5-.2-.1-.4-.2-.6-.2s-.5,0-.6.2c-.2.1-.3.3-.4.5,0,.2-.1.4-.1.7s0,.5.1.7.2.4.4.5c.2.1.4.2.6.2ZM74.9,14.5v-2.7h0v-2.2h.6v4.9h-.5Z"/>
    <path class="st1" d="M78,14.6c-.4,0-.7,0-1-.2-.3-.2-.5-.4-.6-.7-.2-.3-.2-.6-.2-1s0-.8.2-1.1.4-.5.6-.7c.3-.2.6-.2.9-.2s.7,0,1,.3c.3.2.5.4.6.7.1.3.2.7.2,1.1h-.6v-.2c0-.5,0-.8-.3-1-.2-.2-.4-.3-.8-.3s-.7.1-.9.4c-.2.2-.3.6-.3,1s0,.8.3,1c.2.2.5.4.8.4s.5,0,.6-.2.3-.3.4-.5l.6.2c-.1.3-.4.6-.7.8-.3.2-.6.3-1,.3ZM76.6,12.8v-.5h2.7v.5h-2.7Z"/>
    <path class="st1" d="M45.6,22.8c-.4,0-.7,0-1-.3s-.5-.4-.6-.7c-.1-.3-.2-.6-.2-1,0-.4,0-.7.2-1s.3-.5.6-.7c.3-.2.6-.2.9-.2s.7,0,1,.3c.3.2.5.5.6.8l-.6.2c0-.2-.2-.4-.4-.5-.2-.1-.4-.2-.6-.2s-.5,0-.6.2c-.2.1-.3.3-.4.5s-.1.4-.1.7c0,.4,0,.7.3,1,.2.3.5.4.8.4s.4,0,.6-.2c.2-.1.3-.3.4-.5l.6.2c-.1.3-.3.6-.6.8-.3.2-.6.3-1,.3Z"/>
    <path class="st1" d="M48.9,22.8c-.3,0-.5,0-.7-.2-.2-.1-.3-.2-.4-.4,0-.2-.1-.4-.1-.5s0-.4.1-.5c0-.1.2-.3.3-.4.1,0,.3-.2.5-.2.2,0,.4,0,.6-.1.2,0,.4,0,.7,0,.2,0,.4,0,.6,0h-.2c0-.2,0-.4-.2-.6-.1-.2-.4-.2-.7-.2s-.4,0-.6.2c-.2.1-.3.3-.4.5l-.6-.2c0-.3.3-.6.5-.8.3-.2.6-.3,1-.3s.6,0,.9.2.4.3.5.5c0,.1,0,.2,0,.4s0,.3,0,.4v2.3h-.5v-.9h.1c-.1.4-.3.6-.6.8-.3.2-.6.2-.9.2ZM49,22.3c.2,0,.4,0,.6-.1s.3-.2.4-.3c0-.1.2-.3.2-.4,0-.1,0-.2,0-.4,0-.1,0-.2,0-.3h.2c-.2.1-.4.1-.6.2-.2,0-.4,0-.5,0-.2,0-.3,0-.5,0-.1,0-.2,0-.3.1,0,0-.2.1-.2.2,0,0,0,.2,0,.3s0,.2,0,.3c0,0,.1.2.2.2.1,0,.3,0,.4,0Z"/>
    <path class="st1" d="M51.7,22.7v-3.7h.5v.9h0c0-.2,0-.3.2-.4,0,0,.1-.2.2-.2,0,0,.2-.1.3-.2.1,0,.2,0,.4,0,.1,0,.2,0,.4,0v.6c-.1,0-.3,0-.4,0-.2,0-.3,0-.4.2-.1,0-.2.2-.3.3,0,.1-.1.2-.1.4,0,.1,0,.3,0,.4v1.9h-.6Z"/>
    <path class="st1" d="M55.8,22.8c-.3,0-.6,0-.9-.3s-.4-.4-.6-.7-.2-.6-.2-1,0-.7.2-1,.3-.5.6-.7.5-.3.9-.3.6,0,.9.3c.2.2.4.4.5.7s.2.6.2,1,0,.7-.2,1-.3.5-.5.7c-.2.2-.5.3-.9.3ZM55.8,24.4c-.2,0-.4,0-.6,0-.2,0-.4-.1-.5-.3s-.3-.3-.4-.5l.6-.3c0,.2.2.3.4.4.2,0,.3.1.5.1s.4,0,.6-.1.3-.2.3-.4c0-.2.1-.4.1-.6v-1h0v-2.7h.5v3.7c0,.1,0,.2,0,.3s0,.2,0,.3c0,.3-.1.5-.3.7-.1.2-.3.3-.5.4-.2,0-.5.1-.8.1ZM55.8,22.2c.2,0,.5,0,.6-.2s.3-.3.4-.5c0-.2.1-.5.1-.7s0-.5-.1-.7c0-.2-.2-.4-.4-.5-.2-.1-.4-.2-.6-.2s-.5,0-.6.2c-.2.1-.3.3-.4.5,0,.2-.1.4-.1.7s0,.5.1.7.2.4.4.5c.2.1.4.2.6.2Z"/>
    <path class="st1" d="M59.5,22.8c-.3,0-.5,0-.7-.2-.2-.1-.3-.2-.4-.4,0-.2-.1-.4-.1-.5s0-.4.1-.5c0-.1.2-.3.3-.4.1,0,.3-.2.5-.2.2,0,.4,0,.6-.1.2,0,.4,0,.7,0,.2,0,.4,0,.6,0h-.2c0-.2,0-.4-.2-.6-.1-.2-.4-.2-.7-.2s-.4,0-.6.2c-.2.1-.3.3-.4.5l-.6-.2c0-.3.3-.6.5-.8.3-.2.6-.3,1-.3s.6,0,.9.2.4.3.5.5c0,.1,0,.2,0,.4s0,.3,0,.4v2.3h-.5v-.9h.1c-.1.4-.3.6-.6.8-.3.2-.6.2-.9.2ZM59.6,22.3c.2,0,.4,0,.6-.1s.3-.2.4-.3c0-.1.2-.3.2-.4,0-.1,0-.2,0-.4,0-.1,0-.2,0-.3h.2c-.2.1-.4.1-.6.2-.2,0-.4,0-.5,0-.2,0-.3,0-.5,0-.1,0-.2,0-.3.1,0,0-.2.1-.2.2,0,0,0,.2,0,.3s0,.2,0,.3c0,0,.1.2.2.2.1,0,.3,0,.4,0Z"/>
    <path class="st1" d="M62.3,22.7v-3.7h.5v.9h0c0-.2,0-.3.2-.4,0,0,.1-.2.2-.2,0,0,.2-.1.3-.2.1,0,.2,0,.4,0,.1,0,.2,0,.4,0v.6c-.1,0-.3,0-.4,0-.2,0-.3,0-.4.2-.1,0-.2.2-.3.3,0,.1-.1.2-.1.4,0,.1,0,.3,0,.4v1.9h-.6Z"/>
    <path class="st1" d="M67.7,22.8c-.3,0-.6,0-.9-.3s-.4-.4-.6-.7-.2-.6-.2-1,0-.7.2-1,.3-.5.6-.7.5-.3.9-.3.6,0,.9.3c.2.2.4.4.5.7s.2.6.2,1,0,.7-.2,1-.3.5-.5.7c-.2.2-.5.3-.9.3ZM67.7,24.4c-.2,0-.4,0-.6,0-.2,0-.4-.1-.5-.3s-.3-.3-.4-.5l.6-.3c0,.2.2.3.4.4.2,0,.3.1.5.1s.4,0,.6-.1.3-.2.3-.4c0-.2.1-.4.1-.6v-1h0v-2.7h.5v3.7c0,.1,0,.2,0,.3s0,.2,0,.3c0,.3-.1.5-.3.7-.1.2-.3.3-.5.4-.2,0-.5.1-.8.1ZM67.7,22.2c.2,0,.5,0,.6-.2s.3-.3.4-.5c0-.2.1-.5.1-.7s0-.5-.1-.7c0-.2-.2-.4-.4-.5-.2-.1-.4-.2-.6-.2s-.5,0-.6.2c-.2.1-.3.3-.4.5,0,.2-.1.4-.1.7s0,.5.1.7.2.4.4.5c.2.1.4.2.6.2Z"/>
    <path class="st1" d="M71.4,22.8c-.3,0-.5,0-.7-.2-.2-.1-.3-.2-.4-.4,0-.2-.1-.4-.1-.5s0-.4.1-.5c0-.1.2-.3.3-.4.1,0,.3-.2.5-.2.2,0,.4,0,.6-.1.2,0,.4,0,.7,0,.2,0,.4,0,.6,0h-.2c0-.2,0-.4-.2-.6-.1-.2-.4-.2-.7-.2s-.4,0-.6.2c-.2.1-.3.3-.4.5l-.6-.2c0-.3.3-.6.5-.8.3-.2.6-.3,1-.3s.6,0,.9.2.4.3.5.5c0,.1,0,.2,0,.4s0,.3,0,.4v2.3h-.5v-.9h.1c-.1.4-.3.6-.6.8-.3.2-.6.2-.9.2ZM71.5,22.3c.2,0,.4,0,.6-.1s.3-.2.4-.3c0-.1.2-.3.2-.4,0-.1,0-.2,0-.4,0-.1,0-.2,0-.3h.2c-.2.1-.4.1-.6.2-.2,0-.4,0-.5,0-.2,0-.3,0-.5,0-.1,0-.2,0-.3.1,0,0-.2.1-.2.2,0,0,0,.2,0,.3s0,.2,0,.3c0,0,.1.2.2.2.1,0,.3,0,.4,0Z"/>
    <path class="st1" d="M75.6,22.8c-.4,0-.8,0-1.1-.3s-.5-.5-.5-.8h.6c0,.1.2.3.3.4.2.1.4.2.7.2s.4,0,.6-.2.2-.2.2-.4,0-.2,0-.3-.1-.1-.3-.2c-.2,0-.4-.1-.7-.2-.3,0-.6-.2-.8-.3-.2,0-.3-.2-.4-.3,0-.1-.1-.3-.1-.5s0-.4.2-.6.3-.3.5-.4c.2,0,.5-.1.7-.1s.5,0,.8.1c.2,0,.4.2.5.4.1.2.2.4.2.6h-.6c0,0-.1-.2-.3-.4-.2-.1-.4-.2-.6-.2-.2,0-.4,0-.6.1-.2,0-.2.2-.2.4s0,.2,0,.2c0,0,.2.1.3.2.2,0,.4.1.7.2.3,0,.6.2.8.3.2,0,.3.2.4.3,0,.1.1.3.1.5,0,.4-.1.6-.4.8-.3.2-.6.3-1.1.3Z"/>
    <path class="st1" d="M79.4,22.8c-.4,0-.7,0-1-.2-.3-.2-.5-.4-.6-.7-.1-.3-.2-.6-.2-1s0-.7.2-1c.1-.3.4-.5.6-.7.3-.2.6-.2.9-.2s.7,0,1,.3c.3.2.5.4.6.7.1.3.2.6.2,1s0,.7-.2,1c-.1.3-.3.5-.6.7-.3.2-.6.2-1,.2ZM79.4,22.2c.4,0,.7-.1.9-.4s.3-.6.3-1,0-.7-.3-1-.5-.4-.9-.4-.5,0-.6.2-.3.3-.4.5-.1.4-.1.7c0,.4,0,.8.3,1,.2.3.5.4.8.4Z"/>
    <path class="st1" d="M82,22.7v-5h.6v5h-.6Z"/>
    <path class="st1" d="M83.7,18.3v-.6h.6v.6h-.6ZM83.7,22.7v-3.7h.6v3.7h-.6Z"/>
    <path class="st1" d="M85.3,22.7v-3.7h.5v1h0v2.7h-.6ZM88,22.7v-1.9c0-.2,0-.3,0-.5,0-.2,0-.3-.2-.4,0-.1-.2-.2-.3-.3-.1,0-.3-.1-.5-.1s-.3,0-.4,0c-.1,0-.2.1-.3.2,0,.1-.2.2-.2.4,0,.2,0,.3,0,.6h-.4c0-.5,0-.8.2-1,.1-.3.3-.5.5-.6s.5-.2.8-.2.4,0,.6.1c.2,0,.3.2.4.3.1.1.2.3.3.4,0,.2.1.3.1.5s0,.3,0,.4v2h-.6Z"/>
    <path class="st1" d="M90.5,22.8c-.3,0-.5,0-.7-.2-.2-.1-.3-.2-.4-.4,0-.2-.1-.4-.1-.5s0-.4.1-.5c0-.1.2-.3.3-.4.1,0,.3-.2.5-.2.2,0,.4,0,.6-.1.2,0,.4,0,.7,0,.2,0,.4,0,.6,0h-.2c0-.2,0-.4-.2-.6-.1-.2-.4-.2-.7-.2s-.4,0-.6.2c-.2.1-.3.3-.4.5l-.6-.2c0-.3.3-.6.5-.8.3-.2.6-.3,1-.3s.6,0,.9.2.4.3.5.5c0,.1,0,.2,0,.4s0,.3,0,.4v2.3h-.5v-.9h.1c-.1.4-.3.6-.6.8-.3.2-.6.2-.9.2ZM90.6,22.3c.2,0,.4,0,.6-.1s.3-.2.4-.3c0-.1.2-.3.2-.4,0-.1,0-.2,0-.4,0-.1,0-.2,0-.3h.2c-.2.1-.4.1-.6.2-.2,0-.4,0-.5,0-.2,0-.3,0-.5,0-.1,0-.2,0-.3.1,0,0-.2.1-.2.2,0,0,0,.2,0,.3s0,.2,0,.3c0,0,.1.2.2.2.1,0,.3,0,.4,0Z"/>
  </g>
  <path class="st0" d="M39.2,16.2c0,5.7-4.6,10.3-10.3,10.3s-10.3-4.6-10.3-10.3,4.6-10.3,10.3-10.3,10.3,4.6,10.3,10.3ZM34.8,9.9c-3-2.8-7.8-3.2-11.1-.7l-.4.4,1.7,1.7c0-.5,0-1.1.5-1.2h6.1c.8,0,.7.8.7,1.4.9.2,1.9.8,2.2,1.6s.2,3,.3,4.2c0,1,.3,1.5,0,2.5s-.2.7-.4.7l1.1,1.1c2.9-3.5,2.6-8.6-.7-11.7ZM24.1,20.9c.3,0,.7,0,.9,0v-7.4s0,0,0,0l-2.8-2.7c-2.8,3.1-2.6,8.2.2,11.3s5.1,3.2,8.2,2.7,2.5-.9,3.7-1.7l-.8-1-.4.5c-.4.2-.8,0-1.2,0-2.5,0-5.1,0-7.6,0-.6,0-.6-1.4-.1-1.5ZM31,11.4h-4.8v1c.7.7,1.5,1.4,2.1,2.1s0,.1,0,.2c.1,0,0-.1,0-.1h2.5v-3.2ZM33.7,19.8c0-.2,0-.5.1-.7,0-.9-.1-1.9-.2-2.8,0-1.3.4-3.1-1.3-3.5,0,.8,0,1.5,0,2.3s0,1.5,0,2.3,0,.8,0,1.2l1.3,1.3Z"/>
</svg>