<?xml version="1.0" encoding="UTF-8"?>
<svg id="Capa_1" xmlns="http://www.w3.org/2000/svg" version="1.1" viewBox="0 0 1470.5 1080">
  <!-- Generator: Adobe Illustrator 29.6.1, SVG Export Plug-In . SVG Version: 2.1.1 Build 9)  -->
  <defs>
    <style>
      .st0 {
        fill: #3a86ff;
      }
    </style>
  </defs>
  <g id="_x33_NOwx0.tif">
    <path class="st0" d="M1238.5,331.7h55.1c19,0,48.2,33.1,47.8,53-4.1,80,6.3,166.7.4,245.9-1.8,24.5-23.6,59.6-50.5,59.6h-52.7v104.3c0,28.8-42,76.1-71.5,76.1h-446.5v87.9c0,3.5-11.5,17.6-15.5,19.6-15.8,8-45.4-2.4-45.4-19.6v-87.9H213c-32,0-72.9-48.5-71.6-80.7V229.8c3.8-40.7,35.8-73.6,76.2-78.6h947c33.2,2,73.9,43.5,73.9,76.2v104.3ZM720.5,809.7h437.2c9.5,0,21.9-19.3,20-29.2l-1.2-549.6c-3.1-7.4-7.5-14.4-15.2-17.6l-934.3-1.2c-14.5-.1-24.8,13-24.6,27l1.2,551.9c1.1,5.2,11.8,18.7,16.5,18.7h439.5v-46.9c-128.7-13-226.8-121.3-234.5-249.4-1.1-18.2-2.7-75.4,1.2-90.4s17.8-23.4,28.2-23.4h64.5v-120.7c0-2.6,9.7-15.5,12.9-17.6,9.3-6.1,24.4-7,33.9-1,3.6,2.2,14.2,15.5,14.2,18.6v120.7h220.3v-123c0-3,13.4-16.7,17-18.1,11-4.5,26.1-2,34.7,6.3,2.8,2.7,9.3,13.7,9.3,16.5v118.3h64.5c12.3,0,25.8,13.9,28.3,25.6,3.7,17.6,2.2,63.8,1.1,83.4-7.4,131.1-102.5,240.1-234.5,254.1v46.9ZM1280.7,392.6h-42.2v236.6h42.2v-236.6ZM486.1,460.6v57.4c0,30.8,25,86,44.6,110.1,120.7,148.1,351.5,68.2,363.2-121.8.8-13.4,2.2-34.5-3.5-45.7h-404.3Z"/>
  </g>
</svg>