<?xml version="1.0" encoding="UTF-8"?>
<svg id="Capa_1" xmlns="http://www.w3.org/2000/svg" version="1.1" viewBox="0 0 1470.5 1080">
  <!-- Generator: Adobe Illustrator 29.6.1, SVG Export Plug-In . SVG Version: 2.1.1 Build 9)  -->
  <defs>
    <style>
      .st0 {
        fill: #3a86ff;
      }
    </style>
  </defs>
  <path class="st0" d="M203.5,880.9h958.5c29.3-2.2,69.3-47.9,69.3-76v-104.3h52.7c26.9,0,48.7-35.2,50.5-59.6,5.9-79.2-4.4-165.9-.4-245.9.4-19.9-28.8-53-47.8-53h-55.1v-104.3c0-32.8-40.7-74.2-73.9-76.1H210.4c-40.4,4.9-72.4,37.8-76.1,78.5v560c-1.4,31.5,37.6,78.4,69.2,80.6ZM1231.3,403h42.2v236.6h-42.2v-236.6ZM219.7,222.5l934.3,1.2c7.6,3.3,12.1,10.2,15.2,17.6l1.2,549.6c1.8,9.9-10.5,29.2-20,29.2H212.8c-4.6,0-15.4-13.5-16.5-18.7l-1.2-551.9c-.2-14,10.1-27.1,24.6-27Z"/>
  <rect class="st0" x="236.3" y="254" width="168" height="536.9" rx="11.3" ry="11.3"/>
  <rect class="st0" x="444.5" y="254" width="168" height="536.9" rx="11.3" ry="11.3"/>
  <rect class="st0" x="660.6" y="254" width="168" height="536.9" rx="11.3" ry="11.3"/>
  <rect class="st0" x="876.1" y="254" width="168" height="536.9" rx="11.3" ry="11.3"/>
</svg>