<?xml version="1.0" encoding="UTF-8"?>
<svg id="Capa_1" xmlns="http://www.w3.org/2000/svg" version="1.1" viewBox="0 0 111.4 31.8">
  <!-- Generator: Adobe Illustrator 29.6.1, SVG Export Plug-In . SVG Version: 2.1.1 Build 9)  -->
  <defs>
    <style>
      .st0 {
        fill: #fff;
      }

      .st1 {
        opacity: .8;
      }
    </style>
  </defs>
  <g class="st1">
    <path class="st0" d="M58.1,13.5c-.3,0-.6,0-.8-.2s-.4-.3-.6-.5-.2-.5-.2-.8,0-.6.2-.8.4-.4.6-.5v.2c-.2-.1-.4-.3-.5-.5s-.2-.4-.2-.7,0-.5.2-.7c.1-.2.3-.4.5-.5.2-.1.5-.2.8-.2s.5,0,.8.2c.2.1.4.3.5.5.1.2.2.4.2.7s0,.5-.2.7-.3.4-.5.5v-.2c.3.1.5.3.6.5.1.2.2.5.2.8s0,.6-.2.8c-.1.2-.3.4-.6.5s-.5.2-.8.2ZM58.1,12.9c.3,0,.5,0,.7-.2.2-.2.3-.4.3-.7s0-.5-.3-.7c-.2-.2-.4-.2-.7-.2s-.5,0-.7.2c-.2.2-.3.4-.3.7s0,.5.3.7c.2.2.4.2.7.2ZM58.1,10.5c.3,0,.5,0,.6-.2.2-.1.2-.3.2-.6s0-.4-.2-.6c-.2-.1-.4-.2-.6-.2s-.5,0-.6.2c-.2.1-.2.3-.2.6s0,.4.2.6c.2.1.4.2.6.2Z"/>
    <path class="st0" d="M60.6,11.5v-.5h2.1v.5h-2.1Z"/>
    <path class="st0" d="M64.4,13.4v-4.3l-.9.6v-.7l.9-.6h.6v4.9h-.6Z"/>
    <path class="st0" d="M68,13.5c-.3,0-.6,0-.9-.2s-.4-.3-.6-.6c-.1-.2-.2-.5-.2-.9v-1.8c0-.3,0-.6.2-.9.1-.2.3-.4.6-.6.2-.1.5-.2.9-.2s.6,0,.9.2c.3.1.4.3.6.6.1.2.2.5.2.9v1.8c0,.3,0,.6-.2.9-.1.2-.3.4-.6.6-.3.1-.5.2-.9.2ZM68,12.9c.2,0,.4,0,.5-.1.2,0,.3-.2.4-.4,0-.2.1-.3.1-.5v-1.9c0-.2,0-.4-.1-.5,0-.2-.2-.3-.4-.4-.2,0-.3-.1-.5-.1s-.4,0-.5.1-.3.2-.4.4c0,.2-.1.3-.1.5v1.9c0,.2,0,.4.1.5,0,.2.2.3.4.4s.3.1.5.1Z"/>
    <path class="st0" d="M73,13.5c-.3,0-.5,0-.7-.2-.2-.1-.3-.2-.4-.4,0-.2-.1-.3-.1-.5s0-.4.1-.5.2-.3.3-.4c.1,0,.3-.2.5-.2.2,0,.4,0,.6-.1.2,0,.4,0,.7,0,.2,0,.4,0,.6,0h-.2c0-.2,0-.4-.2-.6-.1-.2-.4-.2-.7-.2s-.4,0-.6.2c-.2.1-.3.3-.4.5l-.6-.2c0-.3.3-.6.5-.8.3-.2.6-.3,1-.3s.6,0,.9.2c.2.1.4.3.5.5,0,.1,0,.2,0,.4,0,.1,0,.3,0,.4v2.3h-.5v-.9h.1c-.1.4-.3.6-.6.8-.3.2-.6.2-.9.2ZM73.1,13c.2,0,.4,0,.6-.1.2,0,.3-.2.4-.3,0-.1.2-.3.2-.4,0-.1,0-.2,0-.4,0-.1,0-.2,0-.3h.2c-.2.1-.4.2-.6.2-.2,0-.4,0-.5,0-.2,0-.3,0-.5,0-.1,0-.2,0-.3.1,0,0-.2.1-.2.2s0,.2,0,.3,0,.2,0,.3c0,0,.1.2.2.2s.3,0,.4,0Z"/>
    <path class="st0" d="M75.8,13.4v-3.7h.5v1h0v2.7h-.6ZM78.5,13.4v-1.9c0-.2,0-.3,0-.5,0-.2,0-.3-.2-.4,0-.1-.2-.2-.3-.3-.1,0-.3-.1-.5-.1s-.3,0-.4,0c-.1,0-.2.1-.3.2s-.2.2-.2.4c0,.2,0,.3,0,.6h-.4c0-.5,0-.8.2-1s.3-.5.5-.6.5-.2.8-.2.4,0,.6.1c.2,0,.3.2.4.3.1.1.2.3.3.4,0,.2.1.3.1.5s0,.3,0,.4v2h-.6ZM78,9.1c-.1,0-.2,0-.3,0,0,0-.2,0-.3-.1s-.2-.1-.2-.1c0,0-.2,0-.2,0s-.1,0-.2.1c0,0,0,.2,0,.2h-.4c0-.2,0-.4,0-.6s.3-.2.5-.2.2,0,.3,0c0,0,.2,0,.3.1s.2.1.2.1c0,0,.2,0,.2,0s.1,0,.2-.1c0,0,0-.2,0-.2h.4c0,.2,0,.4,0,.6,0,.2-.3.2-.5.2Z"/>
    <path class="st0" d="M81.6,13.5c-.4,0-.7,0-1-.2-.3-.2-.5-.4-.6-.7-.1-.3-.2-.6-.2-1s0-.7.2-1c.1-.3.4-.5.6-.7.3-.2.6-.2.9-.2s.7,0,1,.2c.3.2.5.4.6.7.1.3.2.6.2,1s0,.7-.2,1c-.1.3-.3.5-.6.7s-.6.2-1,.2ZM81.6,12.9c.4,0,.7-.1.9-.4s.3-.6.3-1,0-.7-.3-1c-.2-.2-.5-.4-.9-.4s-.5,0-.6.2c-.2.1-.3.3-.4.5,0,.2-.1.4-.1.7,0,.4,0,.8.3,1,.2.2.5.4.8.4Z"/>
    <path class="st0" d="M85.5,13.5c-.4,0-.8,0-1.1-.3s-.5-.5-.5-.8h.6c0,.1.2.3.3.4.2.1.4.2.7.2s.4,0,.6-.2.2-.2.2-.4,0-.2,0-.3c0,0-.1-.1-.3-.2-.2,0-.4-.1-.7-.2-.3,0-.6-.2-.8-.3-.2,0-.3-.2-.4-.3,0-.1-.1-.3-.1-.5s0-.4.2-.6.3-.3.5-.4c.2,0,.5-.1.7-.1s.5,0,.8.1c.2,0,.4.2.5.4.1.2.2.4.2.6h-.6c0,0-.1-.2-.3-.4s-.4-.2-.6-.2c-.2,0-.4,0-.6.1-.2,0-.2.2-.2.4s0,.2,0,.2c0,0,.2.1.3.2.2,0,.4.1.7.2.3,0,.6.2.8.3.2,0,.3.2.4.3s.1.3.1.5c0,.4-.1.6-.4.8-.3.2-.6.3-1.1.3Z"/>
    <path class="st0" d="M58.1,21.7c-.3,0-.6,0-.9-.3s-.4-.4-.6-.7c-.1-.3-.2-.6-.2-1s0-.7.2-1,.3-.5.6-.7.5-.3.9-.3.6,0,.9.3c.2.2.4.4.5.7.1.3.2.6.2,1s0,.7-.2,1-.3.5-.5.7c-.2.2-.5.3-.9.3ZM58.1,21.2c.2,0,.5,0,.6-.2.2-.1.3-.3.4-.5,0-.2.1-.5.1-.7s0-.5-.1-.7c0-.2-.2-.4-.4-.5s-.4-.2-.6-.2-.5,0-.6.2c-.2.1-.3.3-.4.5,0,.2-.1.4-.1.7s0,.5.1.7c0,.2.2.4.4.5s.4.2.6.2ZM59.2,21.6v-2.7h0v-2.2h.6v4.9h-.5Z"/>
    <path class="st0" d="M62.3,21.7c-.4,0-.7,0-1-.2-.3-.2-.5-.4-.6-.7-.2-.3-.2-.6-.2-1s0-.8.2-1.1c.1-.3.4-.5.6-.7.3-.2.6-.2.9-.2s.7,0,1,.3.5.4.6.7.2.7.2,1.1h-.6v-.2c0-.5,0-.8-.3-1-.2-.2-.4-.3-.8-.3s-.7.1-.9.4c-.2.2-.3.6-.3,1s0,.8.3,1c.2.2.5.4.8.4s.5,0,.6-.2c.2-.1.3-.3.4-.5l.6.2c-.1.3-.4.6-.7.8s-.6.3-1,.3ZM61,19.9v-.5h2.7v.5h-2.7Z"/>
    <path class="st0" d="M67.1,21.6l-1.3-3.7h.6l1,2.9,1-2.9h.6l-1.3,3.7h-.6Z"/>
    <path class="st0" d="M69.8,17.3v-.6h.6v.6h-.6ZM69.8,21.6v-3.7h.6v3.7h-.6Z"/>
    <path class="st0" d="M72.9,21.7c-.3,0-.6,0-.9-.3s-.4-.4-.6-.7c-.1-.3-.2-.6-.2-1s0-.7.2-1,.3-.5.6-.7.5-.3.9-.3.6,0,.9.3c.2.2.4.4.5.7.1.3.2.6.2,1s0,.7-.2,1-.3.5-.5.7c-.2.2-.5.3-.9.3ZM73,21.2c.2,0,.5,0,.6-.2.2-.1.3-.3.4-.5,0-.2.1-.5.1-.7s0-.5-.1-.7c0-.2-.2-.4-.4-.5s-.4-.2-.6-.2-.5,0-.6.2c-.2.1-.3.3-.4.5,0,.2-.1.4-.1.7s0,.5.1.7c0,.2.2.4.4.5s.4.2.6.2ZM74,21.6v-2.7h0v-2.2h.6v4.9h-.5Z"/>
    <path class="st0" d="M76.6,21.7c-.3,0-.5,0-.7-.2-.2-.1-.3-.2-.4-.4,0-.2-.1-.4-.1-.5s0-.4.1-.5c0-.1.2-.3.3-.4.1,0,.3-.2.5-.2.2,0,.4,0,.6-.1.2,0,.4,0,.7,0s.4,0,.6,0h-.2c0-.2,0-.4-.2-.6-.1-.2-.4-.2-.7-.2s-.4,0-.6.2-.3.3-.4.5l-.6-.2c0-.3.3-.6.5-.8.3-.2.6-.3,1-.3s.6,0,.9.2c.2.1.4.3.5.5,0,.1,0,.2,0,.4,0,.1,0,.3,0,.4v2.3h-.5v-.9h.1c-.1.4-.3.6-.6.8-.3.2-.6.2-.9.2ZM76.7,21.2c.2,0,.4,0,.6-.1.2,0,.3-.2.4-.3,0-.1.2-.3.2-.4,0-.1,0-.2,0-.4,0-.1,0-.2,0-.3h.2c-.2.1-.4.1-.6.2s-.4,0-.5,0c-.2,0-.3,0-.5,0-.1,0-.2,0-.3.1,0,0-.2.1-.2.2,0,0,0,.2,0,.3s0,.2,0,.3c0,0,.1.2.2.2.1,0,.3,0,.4,0Z"/>
  </g>
  <g class="st1">
    <path class="st0" d="M46.6,8.3c1.8,0,4.1-.5,4.6,1.8-.1,3.8.2,7.7,0,11.5,0,1.1-.9,2.1-1.9,2.3h-19.2c-1.1-.1-1.8-1-2-2v-11.5c0-.6.5-1.5,1-1.8s.8-.3.9-.3h2.8v-1.4c0-.2.5-.7.8-.6h12.2c.3,0,.7.3.7.6v1.4ZM49.5,10.1h-19.4s0,11.9,0,11.9h19.4s0-11.9,0-11.9Z"/>
    <path class="st0" d="M43.7,12c.5,0,2.6,0,3.1,0s.4.2.5.4v7.2c0,.5-.3.6-.7.6-.6,0-2,0-2.6,0s-.6-.1-.7-.4v-7.3c0-.3.2-.5.5-.5Z"/>
    <path class="st0" d="M32.6,12c.4,0,2.6,0,3,0s.4.1.5.4v7.3c0,.4-.3.5-.7.6-.6,0-2.1,0-2.7,0s-.5-.2-.6-.5v-7.1c0-.3.2-.6.5-.6Z"/>
    <path class="st0" d="M38.2,12c.5,0,2.4,0,2.9,0s.4.1.5.4v7.1c0,.3-.2.6-.5.7-.9,0-2.1.1-2.9,0s-.4-.2-.5-.4v-7.3c0-.3.2-.5.5-.5Z"/>
  </g>
</svg>