<?xml version="1.0" encoding="UTF-8"?>
<svg id="Capa_1" xmlns="http://www.w3.org/2000/svg" version="1.1" viewBox="0 0 111.4 31.8">
  <!-- Generator: Adobe Illustrator 29.6.1, SVG Export Plug-In . SVG Version: 2.1.1 Build 9)  -->
  <defs>
    <style>
      .st0 {
        fill: #fff;
      }

      .st1 {
        opacity: .8;
      }
    </style>
  </defs>
  <g class="st1">
    <path class="st0" d="M11.4,10.2c-2.6,2.4-3.6,6.1-2.9,9.6.1.5.4,1,.4,1.4.2,1.1-1.5,1.8-2,.5-2.7-7.2,2.3-15.7,10.1-16.1,3.3-.2,6.5.5,9,2.7,0,.1-.7.6-.9.7-.2.1-.5.4-.7.4s-1.5-.8-1.9-.9c-3.7-1.6-8.2-1.1-11.1,1.7Z"/>
    <path class="st0" d="M16.4,20.3c-1.5-1.6-.8-3.3.7-4.4,3.5-2.6,7.3-4.9,10.9-7.5.6-.5,1.1.1.6.7-2.5,3.3-4.8,6.9-7.3,10.2-.9,1.2-1.6,2.2-3.3,2s-1.2-.5-1.6-.9Z"/>
  </g>
  <g class="st1">
    <path class="st0" d="M43.8,13.8v-4.9h2s.1,0,.2,0c0,0,.1,0,.2,0,.3,0,.5.1.7.3.2.1.3.3.4.5,0,.2.1.5.1.7s0,.5-.1.7c0,.2-.2.4-.4.5s-.4.2-.7.3c0,0-.1,0-.2,0s-.1,0-.2,0h-1.3v1.8h-.6ZM44.4,11.4h1.3s0,0,.1,0c0,0,.1,0,.2,0,.2,0,.3-.1.4-.2,0,0,.2-.2.2-.3,0-.1,0-.3,0-.4s0-.3,0-.4c0-.1-.1-.2-.2-.3,0,0-.2-.2-.4-.2,0,0-.1,0-.2,0,0,0-.1,0-.1,0h-1.3v2Z"/>
    <path class="st0" d="M49.6,13.9c-.4,0-.7,0-1-.2-.3-.2-.5-.4-.6-.7-.1-.3-.2-.6-.2-1s0-.7.2-1c.1-.3.4-.5.6-.7.3-.2.6-.2.9-.2s.7,0,1,.3c.3.2.5.4.6.7.1.3.2.6.2,1s0,.7-.2,1c-.1.3-.3.5-.6.7-.3.2-.6.2-1,.2ZM49.6,13.3c.4,0,.7-.1.9-.4s.3-.6.3-1,0-.7-.3-1-.5-.4-.9-.4-.5,0-.6.2-.3.3-.4.5-.1.4-.1.7c0,.4,0,.8.3,1,.2.3.5.4.8.4Z"/>
    <path class="st0" d="M51.8,10.6v-.5h2.5v.5h-2.5ZM54.2,13.8c-.2,0-.4,0-.7,0-.2,0-.4,0-.6-.1-.2,0-.3-.2-.4-.4,0-.1-.1-.3-.1-.4s0-.3,0-.5v-3.3h.6v3.3c0,.2,0,.3,0,.4,0,.1,0,.2,0,.3,0,.1.2.2.4.3.2,0,.4,0,.7,0v.5Z"/>
    <path class="st0" d="M56.6,13.9c-.4,0-.7,0-1-.2-.3-.2-.5-.4-.6-.7-.2-.3-.2-.6-.2-1s0-.8.2-1.1.4-.5.6-.7c.3-.2.6-.2.9-.2s.7,0,1,.3c.3.2.5.4.6.7.1.3.2.7.2,1.1h-.6v-.2c0-.5,0-.8-.3-1-.2-.2-.4-.3-.8-.3s-.7.1-.9.4c-.2.2-.3.6-.3,1s0,.8.3,1c.2.2.5.4.8.4s.5,0,.6-.2.3-.3.4-.5l.6.2c-.1.3-.4.6-.7.8-.3.2-.6.3-1,.3ZM55.2,12.1v-.5h2.7v.5h-2.7Z"/>
    <path class="st0" d="M59,13.8v-3.7h.5v1h0v2.7h-.6ZM61.7,13.8v-1.9c0-.2,0-.3,0-.5,0-.2,0-.3-.2-.4,0-.1-.2-.2-.3-.3-.1,0-.3-.1-.5-.1s-.3,0-.4,0c-.1,0-.2.1-.3.2,0,.1-.2.2-.2.4,0,.2,0,.3,0,.6h-.4c0-.5,0-.8.2-1,.1-.3.3-.5.5-.6s.5-.2.8-.2.4,0,.6.1c.2,0,.3.2.4.3.1.1.2.3.3.4,0,.2.1.3.1.5s0,.3,0,.4v2h-.6Z"/>
    <path class="st0" d="M64.7,13.9c-.4,0-.7,0-1-.3s-.5-.4-.6-.7c-.1-.3-.2-.6-.2-1,0-.4,0-.7.2-1s.3-.5.6-.7c.3-.2.6-.2.9-.2s.7,0,1,.3c.3.2.5.5.6.8l-.6.2c0-.2-.2-.4-.4-.5-.2-.1-.4-.2-.6-.2s-.5,0-.6.2c-.2.1-.3.3-.4.5s-.1.4-.1.7c0,.4,0,.7.3,1,.2.3.5.4.8.4s.4,0,.6-.2c.2-.1.3-.3.4-.5l.6.2c-.1.3-.3.6-.6.8-.3.2-.6.3-1,.3Z"/>
    <path class="st0" d="M67.1,9.4v-.6h.6v.6h-.6ZM67.1,13.8v-3.7h.6v3.7h-.6Z"/>
    <path class="st0" d="M69.8,13.9c-.3,0-.5,0-.7-.2-.2-.1-.3-.2-.4-.4,0-.2-.1-.4-.1-.5s0-.4.1-.5c0-.1.2-.3.3-.4.1,0,.3-.2.5-.2.2,0,.4,0,.6-.1.2,0,.4,0,.7,0,.2,0,.4,0,.6,0h-.2c0-.2,0-.4-.2-.6-.1-.2-.4-.2-.7-.2s-.4,0-.6.2c-.2.1-.3.3-.4.5l-.6-.2c0-.3.3-.6.5-.8.3-.2.6-.3,1-.3s.6,0,.9.2.4.3.5.5c0,.1,0,.2,0,.4s0,.3,0,.4v2.3h-.5v-.9h.1c-.1.4-.3.6-.6.8-.3.2-.6.2-.9.2ZM69.9,13.4c.2,0,.4,0,.6-.1s.3-.2.4-.3c0-.1.2-.3.2-.4,0-.1,0-.2,0-.4,0-.1,0-.2,0-.3h.2c-.2.1-.4.1-.6.2-.2,0-.4,0-.5,0-.2,0-.3,0-.5,0-.1,0-.2,0-.3.1,0,0-.2.1-.2.2,0,0,0,.2,0,.3s0,.2,0,.3c0,0,.1.2.2.2.1,0,.3,0,.4,0Z"/>
    <path class="st0" d="M74,9.4v-.6h.6v.6h-.6ZM74,13.8v-3.7h.6v3.7h-.6Z"/>
    <path class="st0" d="M75.7,13.8v-3.7h.5v1h0v2.7h-.6ZM78.3,13.8v-1.9c0-.2,0-.3,0-.5,0-.2,0-.3-.2-.4,0-.1-.2-.2-.3-.3-.1,0-.3-.1-.5-.1s-.3,0-.4,0c-.1,0-.2.1-.3.2,0,.1-.2.2-.2.4,0,.2,0,.3,0,.6h-.4c0-.5,0-.8.2-1,.1-.3.3-.5.5-.6s.5-.2.8-.2.4,0,.6.1c.2,0,.3.2.4.3.1.1.2.3.3.4,0,.2.1.3.1.5s0,.3,0,.4v2h-.6Z"/>
    <path class="st0" d="M79.8,13.8v-3.7h.5v1h0v2.7h-.6ZM82,13.8v-2.3c0-.3,0-.5-.2-.7-.1-.2-.3-.2-.6-.2s-.4,0-.6.2c-.1.2-.2.4-.2.7l-.3-.2c0-.2,0-.5.2-.6s.3-.3.5-.4c.2-.1.4-.2.7-.2s.5,0,.7.2c.2.1.3.3.4.5s.2.4.2.7v2.5h-.6ZM84.3,13.8v-2.4c0-.3,0-.5-.2-.7-.1-.2-.3-.2-.6-.2s-.3,0-.4,0c-.1,0-.2.2-.3.3,0,.1-.1.3-.1.5h-.3c0-.4,0-.6.2-.8.1-.2.3-.4.5-.5.2-.1.4-.2.7-.2.4,0,.7.1.9.4.2.2.3.5.3.9v2.5h-.6Z"/>
    <path class="st0" d="M87.4,13.9c-.4,0-.7,0-1-.2-.3-.2-.5-.4-.6-.7-.2-.3-.2-.6-.2-1s0-.8.2-1.1.4-.5.6-.7c.3-.2.6-.2.9-.2s.7,0,1,.3c.3.2.5.4.6.7.1.3.2.7.2,1.1h-.6v-.2c0-.5,0-.8-.3-1-.2-.2-.4-.3-.8-.3s-.7.1-.9.4c-.2.2-.3.6-.3,1s0,.8.3,1c.2.2.5.4.8.4s.5,0,.6-.2.3-.3.4-.5l.6.2c-.1.3-.4.6-.7.8-.3.2-.6.3-1,.3ZM86,12.1v-.5h2.7v.5h-2.7Z"/>
    <path class="st0" d="M91.3,13.9c-.3,0-.6,0-.9-.3s-.4-.4-.6-.7-.2-.6-.2-1,0-.7.2-1,.3-.5.6-.7.5-.3.9-.3.6,0,.9.3c.2.2.4.4.5.7s.2.6.2,1,0,.7-.2,1-.3.5-.5.7c-.2.2-.5.3-.9.3ZM91.3,13.3c.2,0,.5,0,.6-.2s.3-.3.4-.5c0-.2.1-.5.1-.7s0-.5-.1-.7c0-.2-.2-.4-.4-.5-.2-.1-.4-.2-.6-.2s-.5,0-.6.2c-.2.1-.3.3-.4.5,0,.2-.1.4-.1.7s0,.5.1.7.2.4.4.5c.2.1.4.2.6.2ZM92.4,13.8v-2.7h0v-2.2h.6v4.9h-.5Z"/>
    <path class="st0" d="M94,9.4v-.6h.6v.6h-.6ZM94,13.8v-3.7h.6v3.7h-.6Z"/>
    <path class="st0" d="M96.7,13.9c-.3,0-.5,0-.7-.2-.2-.1-.3-.2-.4-.4,0-.2-.1-.4-.1-.5s0-.4.1-.5c0-.1.2-.3.3-.4.1,0,.3-.2.5-.2.2,0,.4,0,.6-.1.2,0,.4,0,.7,0,.2,0,.4,0,.6,0h-.2c0-.2,0-.4-.2-.6-.1-.2-.4-.2-.7-.2s-.4,0-.6.2c-.2.1-.3.3-.4.5l-.6-.2c0-.3.3-.6.5-.8.3-.2.6-.3,1-.3s.6,0,.9.2.4.3.5.5c0,.1,0,.2,0,.4s0,.3,0,.4v2.3h-.5v-.9h.1c-.1.4-.3.6-.6.8-.3.2-.6.2-.9.2ZM96.8,13.4c.2,0,.4,0,.6-.1s.3-.2.4-.3c0-.1.2-.3.2-.4,0-.1,0-.2,0-.4,0-.1,0-.2,0-.3h.2c-.2.1-.4.1-.6.2-.2,0-.4,0-.5,0-.2,0-.3,0-.5,0-.1,0-.2,0-.3.1,0,0-.2.1-.2.2,0,0,0,.2,0,.3s0,.2,0,.3c0,0,.1.2.2.2.1,0,.3,0,.4,0Z"/>
    <path class="st0" d="M99.1,10.6v-.5h2.5v.5h-2.5ZM101.6,13.8c-.2,0-.4,0-.7,0-.2,0-.4,0-.6-.1-.2,0-.3-.2-.4-.4,0-.1-.1-.3-.1-.4s0-.3,0-.5v-3.3h.6v3.3c0,.2,0,.3,0,.4,0,.1,0,.2,0,.3,0,.1.2.2.4.3.2,0,.4,0,.7,0v.5Z"/>
    <path class="st0" d="M103.4,13.9c-.3,0-.5,0-.7-.2-.2-.1-.3-.2-.4-.4,0-.2-.1-.4-.1-.5s0-.4.1-.5c0-.1.2-.3.3-.4.1,0,.3-.2.5-.2.2,0,.4,0,.6-.1.2,0,.4,0,.7,0,.2,0,.4,0,.6,0h-.2c0-.2,0-.4-.2-.6-.1-.2-.4-.2-.7-.2s-.4,0-.6.2c-.2.1-.3.3-.4.5l-.6-.2c0-.3.3-.6.5-.8.3-.2.6-.3,1-.3s.6,0,.9.2.4.3.5.5c0,.1,0,.2,0,.4s0,.3,0,.4v2.3h-.5v-.9h.1c-.1.4-.3.6-.6.8-.3.2-.6.2-.9.2ZM103.5,13.4c.2,0,.4,0,.6-.1s.3-.2.4-.3c0-.1.2-.3.2-.4,0-.1,0-.2,0-.4,0-.1,0-.2,0-.3h.2c-.2.1-.4.1-.6.2-.2,0-.4,0-.5,0-.2,0-.3,0-.5,0-.1,0-.2,0-.3.1,0,0-.2.1-.2.2,0,0,0,.2,0,.3s0,.2,0,.3c0,0,.1.2.2.2.1,0,.3,0,.4,0Z"/>
    <path class="st0" d="M28.5,22.1c-.3,0-.6,0-.9-.3s-.4-.4-.6-.7-.2-.6-.2-1,0-.7.2-1,.3-.5.6-.7.5-.3.9-.3.6,0,.9.3c.2.2.4.4.5.7s.2.6.2,1,0,.7-.2,1-.3.5-.5.7c-.2.2-.5.3-.9.3ZM28.6,21.6c.2,0,.5,0,.6-.2s.3-.3.4-.5c0-.2.1-.5.1-.7s0-.5-.1-.7c0-.2-.2-.4-.4-.5-.2-.1-.4-.2-.6-.2s-.5,0-.6.2c-.2.1-.3.3-.4.5,0,.2-.1.4-.1.7s0,.5.1.7.2.4.4.5c.2.1.4.2.6.2ZM29.7,22v-2.7h0v-2.2h.6v4.9h-.5Z"/>
    <path class="st0" d="M32.8,22.1c-.4,0-.7,0-1-.2-.3-.2-.5-.4-.6-.7-.2-.3-.2-.6-.2-1s0-.8.2-1.1.4-.5.6-.7c.3-.2.6-.2.9-.2s.7,0,1,.3c.3.2.5.4.6.7.1.3.2.7.2,1.1h-.6v-.2c0-.5,0-.8-.3-1-.2-.2-.4-.3-.8-.3s-.7.1-.9.4c-.2.2-.3.6-.3,1s0,.8.3,1c.2.2.5.4.8.4s.5,0,.6-.2.3-.3.4-.5l.6.2c-.1.3-.4.6-.7.8-.3.2-.6.3-1,.3ZM31.4,20.3v-.5h2.7v.5h-2.7Z"/>
    <path class="st0" d="M36.6,22.1c-.4,0-.8,0-1.1-.3s-.5-.5-.5-.8h.6c0,.1.2.3.3.4.2.1.4.2.7.2s.4,0,.6-.2.2-.2.2-.4,0-.2,0-.3-.1-.1-.3-.2c-.2,0-.4-.1-.7-.2-.3,0-.6-.2-.8-.3-.2,0-.3-.2-.4-.3,0-.1-.1-.3-.1-.5s0-.4.2-.6.3-.3.5-.4c.2,0,.5-.1.7-.1s.5,0,.8.1c.2,0,.4.2.5.4.1.2.2.4.2.6h-.6c0,0-.1-.2-.3-.4-.2-.1-.4-.2-.6-.2-.2,0-.4,0-.6.1-.2,0-.2.2-.2.4s0,.2,0,.2c0,0,.2.1.3.2.2,0,.4.1.7.2.3,0,.6.2.8.3.2,0,.3.2.4.3,0,.1.1.3.1.5,0,.4-.1.6-.4.8-.3.2-.6.3-1.1.3Z"/>
    <path class="st0" d="M40.3,22.1c-.3,0-.6,0-.9-.3s-.4-.4-.6-.7-.2-.6-.2-1,0-.7.2-1,.3-.5.6-.7.5-.3.9-.3.6,0,.9.3c.2.2.4.4.5.7s.2.6.2,1,0,.7-.2,1-.3.5-.5.7c-.2.2-.5.3-.9.3ZM40.4,21.6c.2,0,.5,0,.6-.2s.3-.3.4-.5c0-.2.1-.5.1-.7s0-.5-.1-.7c0-.2-.2-.4-.4-.5-.2-.1-.4-.2-.6-.2s-.5,0-.6.2c-.2.1-.3.3-.4.5,0,.2-.1.4-.1.7s0,.5.1.7.2.4.4.5c.2.1.4.2.6.2ZM41.5,22v-2.7h0v-2.2h.6v4.9h-.5Z"/>
    <path class="st0" d="M44.6,22.1c-.4,0-.7,0-1-.2-.3-.2-.5-.4-.6-.7-.2-.3-.2-.6-.2-1s0-.8.2-1.1.4-.5.6-.7c.3-.2.6-.2.9-.2s.7,0,1,.3c.3.2.5.4.6.7.1.3.2.7.2,1.1h-.6v-.2c0-.5,0-.8-.3-1-.2-.2-.4-.3-.8-.3s-.7.1-.9.4c-.2.2-.3.6-.3,1s0,.8.3,1c.2.2.5.4.8.4s.5,0,.6-.2.3-.3.4-.5l.6.2c-.1.3-.4.6-.7.8-.3.2-.6.3-1,.3ZM43.2,20.3v-.5h2.7v.5h-2.7Z"/>
    <path class="st0" d="M50,22.1c-.4,0-.7,0-1-.2-.3-.2-.5-.4-.6-.7-.2-.3-.2-.6-.2-1s0-.8.2-1.1.4-.5.6-.7c.3-.2.6-.2.9-.2s.7,0,1,.3c.3.2.5.4.6.7.1.3.2.7.2,1.1h-.6v-.2c0-.5,0-.8-.3-1-.2-.2-.4-.3-.8-.3s-.7.1-.9.4c-.2.2-.3.6-.3,1s0,.8.3,1c.2.2.5.4.8.4s.5,0,.6-.2.3-.3.4-.5l.6.2c-.1.3-.4.6-.7.8-.3.2-.6.3-1,.3ZM48.6,20.3v-.5h2.7v.5h-2.7Z"/>
    <path class="st0" d="M52.5,22v-5h.6v5h-.6Z"/>
    <path class="st0" d="M55.5,23.7v-5.3h.5v2.7h0v2.6h-.6ZM57.2,22.1c-.3,0-.6,0-.9-.3-.2-.2-.4-.4-.5-.7s-.2-.6-.2-1,0-.7.2-1,.3-.5.5-.7.5-.3.9-.3.6,0,.9.3.4.4.6.7.2.6.2,1,0,.7-.2,1-.3.5-.6.7-.5.3-.9.3ZM57.2,21.6c.2,0,.4,0,.6-.2.2-.1.3-.3.4-.5s.1-.4.1-.7,0-.5-.1-.7-.2-.4-.4-.5c-.2-.1-.4-.2-.6-.2s-.4,0-.6.2c-.2.1-.3.3-.4.5,0,.2-.1.5-.1.7s0,.5.1.7c0,.2.2.4.4.5.2.1.4.2.6.2Z"/>
    <path class="st0" d="M59.7,22v-3.7h.5v.9h0c0-.2,0-.3.2-.4,0,0,.1-.2.2-.2,0,0,.2-.1.3-.2.1,0,.2,0,.4,0,.1,0,.2,0,.4,0v.6c-.1,0-.3,0-.4,0-.2,0-.3,0-.4.2-.1,0-.2.2-.3.3,0,.1-.1.2-.1.4,0,.1,0,.3,0,.4v1.9h-.6Z"/>
    <path class="st0" d="M62.3,17.7v-.6h.6v.6h-.6ZM62.3,22v-3.7h.6v3.7h-.6Z"/>
    <path class="st0" d="M63.9,22v-3.7h.5v1h0v2.7h-.6ZM66.1,22v-2.3c0-.3,0-.5-.2-.7-.1-.2-.3-.2-.6-.2s-.4,0-.6.2c-.1.2-.2.4-.2.7l-.3-.2c0-.2,0-.5.2-.6s.3-.3.5-.4c.2-.1.4-.2.7-.2s.5,0,.7.2c.2.1.3.3.4.5s.2.4.2.7v2.5h-.6ZM68.4,22v-2.4c0-.3,0-.5-.2-.7-.1-.2-.3-.2-.6-.2s-.3,0-.4,0c-.1,0-.2.2-.3.3,0,.1-.1.3-.1.5h-.3c0-.4,0-.6.2-.8.1-.2.3-.4.5-.5.2-.1.4-.2.7-.2.4,0,.7.1.9.4.2.2.3.5.3.9v2.5h-.6Z"/>
    <path class="st0" d="M71.5,22.1c-.4,0-.7,0-1-.2-.3-.2-.5-.4-.6-.7-.2-.3-.2-.6-.2-1s0-.8.2-1.1.4-.5.6-.7c.3-.2.6-.2.9-.2s.7,0,1,.3c.3.2.5.4.6.7.1.3.2.7.2,1.1h-.6v-.2c0-.5,0-.8-.3-1-.2-.2-.4-.3-.8-.3s-.7.1-.9.4c-.2.2-.3.6-.3,1s0,.8.3,1c.2.2.5.4.8.4s.5,0,.6-.2.3-.3.4-.5l.6.2c-.1.3-.4.6-.7.8-.3.2-.6.3-1,.3ZM70.1,20.3v-.5h2.7v.5h-2.7Z"/>
    <path class="st0" d="M73.9,22v-3.7h.5v.9h0c0-.2,0-.3.2-.4,0,0,.1-.2.2-.2,0,0,.2-.1.3-.2.1,0,.2,0,.4,0,.1,0,.2,0,.4,0v.6c-.1,0-.3,0-.4,0-.2,0-.3,0-.4.2-.1,0-.2.2-.3.3,0,.1-.1.2-.1.4,0,.1,0,.3,0,.4v1.9h-.6Z"/>
    <path class="st0" d="M79.2,22.1c-.4,0-.8,0-1.1-.3s-.5-.5-.5-.8h.6c0,.1.2.3.3.4.2.1.4.2.7.2s.4,0,.6-.2.2-.2.2-.4,0-.2,0-.3-.1-.1-.3-.2c-.2,0-.4-.1-.7-.2-.3,0-.6-.2-.8-.3-.2,0-.3-.2-.4-.3,0-.1-.1-.3-.1-.5s0-.4.2-.6.3-.3.5-.4c.2,0,.5-.1.7-.1s.5,0,.8.1c.2,0,.4.2.5.4.1.2.2.4.2.6h-.6c0,0-.1-.2-.3-.4-.2-.1-.4-.2-.6-.2-.2,0-.4,0-.6.1-.2,0-.2.2-.2.4s0,.2,0,.2c0,0,.2.1.3.2.2,0,.4.1.7.2.3,0,.6.2.8.3.2,0,.3.2.4.3,0,.1.1.3.1.5,0,.4-.1.6-.4.8-.3.2-.6.3-1.1.3Z"/>
    <path class="st0" d="M83.1,22.1c-.4,0-.7,0-1-.2-.3-.2-.5-.4-.6-.7-.2-.3-.2-.6-.2-1s0-.8.2-1.1.4-.5.6-.7c.3-.2.6-.2.9-.2s.7,0,1,.3c.3.2.5.4.6.7.1.3.2.7.2,1.1h-.6v-.2c0-.5,0-.8-.3-1-.2-.2-.4-.3-.8-.3s-.7.1-.9.4c-.2.2-.3.6-.3,1s0,.8.3,1c.2.2.5.4.8.4s.5,0,.6-.2.3-.3.4-.5l.6.2c-.1.3-.4.6-.7.8-.3.2-.6.3-1,.3ZM81.7,20.3v-.5h2.7v.5h-2.7Z"/>
    <path class="st0" d="M87,22.1c-.3,0-.6,0-.9-.3s-.4-.4-.6-.7-.2-.6-.2-1,0-.7.2-1,.3-.5.6-.7.5-.3.9-.3.6,0,.9.3c.2.2.4.4.5.7s.2.6.2,1,0,.7-.2,1-.3.5-.5.7c-.2.2-.5.3-.9.3ZM87,23.8c-.2,0-.4,0-.6,0-.2,0-.4-.1-.5-.3s-.3-.3-.4-.5l.6-.3c0,.2.2.3.4.4.2,0,.3.1.5.1s.4,0,.6-.1.3-.2.3-.4c0-.2.1-.4.1-.6v-1h0v-2.7h.5v3.7c0,.1,0,.2,0,.3s0,.2,0,.3c0,.3-.1.5-.3.7-.1.2-.3.3-.5.4-.2,0-.5.1-.8.1ZM87.1,21.6c.2,0,.5,0,.6-.2s.3-.3.4-.5c0-.2.1-.5.1-.7s0-.5-.1-.7c0-.2-.2-.4-.4-.5-.2-.1-.4-.2-.6-.2s-.5,0-.6.2c-.2.1-.3.3-.4.5,0,.2-.1.4-.1.7s0,.5.1.7.2.4.4.5c.2.1.4.2.6.2Z"/>
    <path class="st0" d="M91,22.1c-.2,0-.4,0-.6-.1-.2,0-.3-.2-.4-.3-.1-.1-.2-.3-.3-.4,0-.2-.1-.3-.1-.5s0-.3,0-.4v-2h.6v1.9c0,.2,0,.3,0,.5,0,.2,0,.3.2.4,0,.1.2.2.3.3.1,0,.3.1.5.1s.3,0,.4,0c.1,0,.2-.1.3-.2,0-.1.2-.2.2-.4,0-.2,0-.3,0-.6h.4c0,.5,0,.8-.2,1-.1.3-.3.5-.5.6-.2.1-.5.2-.8.2ZM92.3,22v-1h0v-2.7h.6v3.7h-.5Z"/>
    <path class="st0" d="M93.8,22v-3.7h.5v1h0v2.7h-.6ZM96.4,22v-1.9c0-.2,0-.3,0-.5,0-.2,0-.3-.2-.4,0-.1-.2-.2-.3-.3-.1,0-.3-.1-.5-.1s-.3,0-.4,0c-.1,0-.2.1-.3.2,0,.1-.2.2-.2.4,0,.2,0,.3,0,.6h-.4c0-.5,0-.8.2-1,.1-.3.3-.5.5-.6s.5-.2.8-.2.4,0,.6.1c.2,0,.3.2.4.3.1.1.2.3.3.4,0,.2.1.3.1.5s0,.3,0,.4v2h-.6Z"/>
    <path class="st0" d="M99.4,22.1c-.3,0-.6,0-.9-.3s-.4-.4-.6-.7-.2-.6-.2-1,0-.7.2-1,.3-.5.6-.7.5-.3.9-.3.6,0,.9.3c.2.2.4.4.5.7s.2.6.2,1,0,.7-.2,1-.3.5-.5.7c-.2.2-.5.3-.9.3ZM99.5,21.6c.2,0,.5,0,.6-.2s.3-.3.4-.5c0-.2.1-.5.1-.7s0-.5-.1-.7c0-.2-.2-.4-.4-.5-.2-.1-.4-.2-.6-.2s-.5,0-.6.2c-.2.1-.3.3-.4.5,0,.2-.1.4-.1.7s0,.5.1.7.2.4.4.5c.2.1.4.2.6.2ZM100.5,22v-2.7h0v-2.2h.6v4.9h-.5Z"/>
    <path class="st0" d="M103.6,22.1c-.4,0-.7,0-1-.2-.3-.2-.5-.4-.6-.7-.1-.3-.2-.6-.2-1s0-.7.2-1c.1-.3.4-.5.6-.7.3-.2.6-.2.9-.2s.7,0,1,.3c.3.2.5.4.6.7.1.3.2.6.2,1s0,.7-.2,1c-.1.3-.3.5-.6.7-.3.2-.6.2-1,.2ZM103.6,21.5c.4,0,.7-.1.9-.4s.3-.6.3-1,0-.7-.3-1-.5-.4-.9-.4-.5,0-.6.2-.3.3-.4.5-.1.4-.1.7c0,.4,0,.8.3,1,.2.3.5.4.8.4Z"/>
  </g>
</svg>