<?xml version="1.0" encoding="UTF-8"?>
<svg id="Capa_1" xmlns="http://www.w3.org/2000/svg" version="1.1" viewBox="0 0 111.4 31.8">
  <!-- Generator: Adobe Illustrator 29.6.1, SVG Export Plug-In . SVG Version: 2.1.1 Build 9)  -->
  <defs>
    <style>
      .st0 {
        fill: #fff;
      }

      .st1 {
        opacity: .8;
      }
    </style>
  </defs>
  <g class="st1">
    <path class="st0" d="M42.4,13.8v-4.9h.6v4.4h2.3v.6h-2.9Z"/>
    <path class="st0" d="M46,9.4v-.6h.6v.6h-.6ZM46,13.8v-3.7h.6v3.7h-.6Z"/>
    <path class="st0" d="M49,13.9c-.4,0-.8,0-1.1-.3s-.5-.5-.5-.8h.6c0,.1.2.3.3.4.2.1.4.2.7.2s.4,0,.6-.2.2-.2.2-.4,0-.2,0-.3-.1-.1-.3-.2c-.2,0-.4-.1-.7-.2-.3,0-.6-.2-.8-.3-.2,0-.3-.2-.4-.3,0-.1-.1-.3-.1-.5s0-.4.2-.6.3-.3.5-.4c.2,0,.5-.1.7-.1s.5,0,.8.1c.2,0,.4.2.5.4.1.2.2.4.2.6h-.6c0,0-.1-.2-.3-.4-.2-.1-.4-.2-.6-.2-.2,0-.4,0-.6.1-.2,0-.2.2-.2.4s0,.2,0,.2c0,0,.2.1.3.2.2,0,.4.1.7.2.3,0,.6.2.8.3.2,0,.3.2.4.3,0,.1.1.3.1.5,0,.4-.1.6-.4.8-.3.2-.6.3-1.1.3Z"/>
    <path class="st0" d="M50.9,10.6v-.5h2.5v.5h-2.5ZM53.3,13.8c-.2,0-.4,0-.7,0-.2,0-.4,0-.6-.1-.2,0-.3-.2-.4-.4,0-.1-.1-.3-.1-.4s0-.3,0-.5v-3.3h.6v3.3c0,.2,0,.3,0,.4,0,.1,0,.2,0,.3,0,.1.2.2.4.3.2,0,.4,0,.7,0v.5Z"/>
    <path class="st0" d="M55.2,13.9c-.3,0-.5,0-.7-.2-.2-.1-.3-.2-.4-.4,0-.2-.1-.4-.1-.5s0-.4.1-.5c0-.1.2-.3.3-.4.1,0,.3-.2.5-.2.2,0,.4,0,.6-.1.2,0,.4,0,.7,0,.2,0,.4,0,.6,0h-.2c0-.2,0-.4-.2-.6-.1-.2-.4-.2-.7-.2s-.4,0-.6.2c-.2.1-.3.3-.4.5l-.6-.2c0-.3.3-.6.5-.8.3-.2.6-.3,1-.3s.6,0,.9.2.4.3.5.5c0,.1,0,.2,0,.4s0,.3,0,.4v2.3h-.5v-.9h.1c-.1.4-.3.6-.6.8-.3.2-.6.2-.9.2ZM55.2,13.4c.2,0,.4,0,.6-.1s.3-.2.4-.3c0-.1.2-.3.2-.4,0-.1,0-.2,0-.4,0-.1,0-.2,0-.3h.2c-.2.1-.4.1-.6.2-.2,0-.4,0-.5,0-.2,0-.3,0-.5,0-.1,0-.2,0-.3.1,0,0-.2.1-.2.2,0,0,0,.2,0,.3s0,.2,0,.3c0,0,.1.2.2.2.1,0,.3,0,.4,0Z"/>
    <path class="st0" d="M59.3,15.4v-5.3h.5v2.7h0v2.6h-.6ZM61,13.9c-.3,0-.6,0-.9-.3-.2-.2-.4-.4-.5-.7s-.2-.6-.2-1,0-.7.2-1,.3-.5.5-.7.5-.3.9-.3.6,0,.9.3.4.4.6.7.2.6.2,1,0,.7-.2,1-.3.5-.6.7-.5.3-.9.3ZM61,13.3c.2,0,.4,0,.6-.2.2-.1.3-.3.4-.5s.1-.4.1-.7,0-.5-.1-.7-.2-.4-.4-.5c-.2-.1-.4-.2-.6-.2s-.4,0-.6.2c-.2.1-.3.3-.4.5,0,.2-.1.5-.1.7s0,.5.1.7c0,.2.2.4.4.5.2.1.4.2.6.2Z"/>
    <path class="st0" d="M64.5,13.9c-.3,0-.5,0-.7-.2-.2-.1-.3-.2-.4-.4,0-.2-.1-.4-.1-.5s0-.4.1-.5c0-.1.2-.3.3-.4.1,0,.3-.2.5-.2.2,0,.4,0,.6-.1.2,0,.4,0,.7,0,.2,0,.4,0,.6,0h-.2c0-.2,0-.4-.2-.6-.1-.2-.4-.2-.7-.2s-.4,0-.6.2c-.2.1-.3.3-.4.5l-.6-.2c0-.3.3-.6.5-.8.3-.2.6-.3,1-.3s.6,0,.9.2.4.3.5.5c0,.1,0,.2,0,.4s0,.3,0,.4v2.3h-.5v-.9h.1c-.1.4-.3.6-.6.8-.3.2-.6.2-.9.2ZM64.6,13.4c.2,0,.4,0,.6-.1s.3-.2.4-.3c0-.1.2-.3.2-.4,0-.1,0-.2,0-.4,0-.1,0-.2,0-.3h.2c-.2.1-.4.1-.6.2-.2,0-.4,0-.5,0-.2,0-.3,0-.5,0-.1,0-.2,0-.3.1,0,0-.2.1-.2.2,0,0,0,.2,0,.3s0,.2,0,.3c0,0,.1.2.2.2.1,0,.3,0,.4,0Z"/>
    <path class="st0" d="M67.3,13.8v-3.7h.5v.9h0c0-.2,0-.3.2-.4,0,0,.1-.2.2-.2,0,0,.2-.1.3-.2.1,0,.2,0,.4,0,.1,0,.2,0,.4,0v.6c-.1,0-.3,0-.4,0-.2,0-.3,0-.4.2-.1,0-.2.2-.3.3,0,.1-.1.2-.1.4,0,.1,0,.3,0,.4v1.9h-.6Z"/>
    <path class="st0" d="M70.9,13.9c-.3,0-.5,0-.7-.2-.2-.1-.3-.2-.4-.4,0-.2-.1-.4-.1-.5s0-.4.1-.5c0-.1.2-.3.3-.4.1,0,.3-.2.5-.2.2,0,.4,0,.6-.1.2,0,.4,0,.7,0,.2,0,.4,0,.6,0h-.2c0-.2,0-.4-.2-.6-.1-.2-.4-.2-.7-.2s-.4,0-.6.2c-.2.1-.3.3-.4.5l-.6-.2c0-.3.3-.6.5-.8.3-.2.6-.3,1-.3s.6,0,.9.2.4.3.5.5c0,.1,0,.2,0,.4s0,.3,0,.4v2.3h-.5v-.9h.1c-.1.4-.3.6-.6.8-.3.2-.6.2-.9.2ZM71,13.4c.2,0,.4,0,.6-.1s.3-.2.4-.3c0-.1.2-.3.2-.4,0-.1,0-.2,0-.4,0-.1,0-.2,0-.3h.2c-.2.1-.4.1-.6.2-.2,0-.4,0-.5,0-.2,0-.3,0-.5,0-.1,0-.2,0-.3.1,0,0-.2.1-.2.2,0,0,0,.2,0,.3s0,.2,0,.3c0,0,.1.2.2.2.1,0,.3,0,.4,0Z"/>
    <path class="st0" d="M76.6,13.9c-.4,0-.7,0-1-.3s-.5-.4-.6-.7c-.1-.3-.2-.6-.2-1,0-.4,0-.7.2-1s.3-.5.6-.7c.3-.2.6-.2.9-.2s.7,0,1,.3c.3.2.5.5.6.8l-.6.2c0-.2-.2-.4-.4-.5-.2-.1-.4-.2-.6-.2s-.5,0-.6.2c-.2.1-.3.3-.4.5s-.1.4-.1.7c0,.4,0,.7.3,1,.2.3.5.4.8.4s.4,0,.6-.2c.2-.1.3-.3.4-.5l.6.2c-.1.3-.3.6-.6.8-.3.2-.6.3-1,.3Z"/>
    <path class="st0" d="M79,9.4v-.6h.6v.6h-.6ZM79,13.8v-3.7h.6v3.7h-.6Z"/>
    <path class="st0" d="M80.6,13.8v-3.7h.5v.9h0c0-.2,0-.3.2-.4,0,0,.1-.2.2-.2,0,0,.2-.1.3-.2.1,0,.2,0,.4,0,.1,0,.2,0,.4,0v.6c-.1,0-.3,0-.4,0-.2,0-.3,0-.4.2-.1,0-.2.2-.3.3,0,.1-.1.2-.1.4,0,.1,0,.3,0,.4v1.9h-.6Z"/>
    <path class="st0" d="M84.8,13.9c-.4,0-.7,0-1-.3s-.5-.4-.6-.7c-.1-.3-.2-.6-.2-1,0-.4,0-.7.2-1s.3-.5.6-.7c.3-.2.6-.2.9-.2s.7,0,1,.3c.3.2.5.5.6.8l-.6.2c0-.2-.2-.4-.4-.5-.2-.1-.4-.2-.6-.2s-.5,0-.6.2c-.2.1-.3.3-.4.5s-.1.4-.1.7c0,.4,0,.7.3,1,.2.3.5.4.8.4s.4,0,.6-.2c.2-.1.3-.3.4-.5l.6.2c-.1.3-.3.6-.6.8-.3.2-.6.3-1,.3Z"/>
    <path class="st0" d="M88.5,13.9c-.2,0-.4,0-.6-.1-.2,0-.3-.2-.4-.3-.1-.1-.2-.3-.3-.4,0-.2-.1-.3-.1-.5s0-.3,0-.4v-2h.6v1.9c0,.2,0,.3,0,.5,0,.2,0,.3.2.4,0,.1.2.2.3.3.1,0,.3.1.5.1s.3,0,.4,0c.1,0,.2-.1.3-.2,0-.1.2-.2.2-.4,0-.2,0-.3,0-.6h.4c0,.5,0,.8-.2,1-.1.3-.3.5-.5.6-.2.1-.5.2-.8.2ZM89.7,13.8v-1h0v-2.7h.6v3.7h-.5Z"/>
    <path class="st0" d="M91.3,13.8v-5h.6v5h-.6Z"/>
    <path class="st0" d="M94,13.9c-.3,0-.5,0-.7-.2-.2-.1-.3-.2-.4-.4,0-.2-.1-.4-.1-.5s0-.4.1-.5c0-.1.2-.3.3-.4.1,0,.3-.2.5-.2.2,0,.4,0,.6-.1.2,0,.4,0,.7,0,.2,0,.4,0,.6,0h-.2c0-.2,0-.4-.2-.6-.1-.2-.4-.2-.7-.2s-.4,0-.6.2c-.2.1-.3.3-.4.5l-.6-.2c0-.3.3-.6.5-.8.3-.2.6-.3,1-.3s.6,0,.9.2.4.3.5.5c0,.1,0,.2,0,.4s0,.3,0,.4v2.3h-.5v-.9h.1c-.1.4-.3.6-.6.8-.3.2-.6.2-.9.2ZM94.1,13.4c.2,0,.4,0,.6-.1s.3-.2.4-.3c0-.1.2-.3.2-.4,0-.1,0-.2,0-.4,0-.1,0-.2,0-.3h.2c-.2.1-.4.1-.6.2-.2,0-.4,0-.5,0-.2,0-.3,0-.5,0-.1,0-.2,0-.3.1,0,0-.2.1-.2.2,0,0,0,.2,0,.3s0,.2,0,.3c0,0,.1.2.2.2.1,0,.3,0,.4,0Z"/>
    <path class="st0" d="M96.8,13.8v-3.7h.5v.9h0c0-.2,0-.3.2-.4,0,0,.1-.2.2-.2,0,0,.2-.1.3-.2.1,0,.2,0,.4,0,.1,0,.2,0,.4,0v.6c-.1,0-.3,0-.4,0-.2,0-.3,0-.4.2-.1,0-.2.2-.3.3,0,.1-.1.2-.1.4,0,.1,0,.3,0,.4v1.9h-.6Z"/>
    <path class="st0" d="M43.9,22.1c-.4,0-.7,0-1-.3s-.5-.4-.6-.7c-.1-.3-.2-.6-.2-1,0-.4,0-.7.2-1s.3-.5.6-.7c.3-.2.6-.2.9-.2s.7,0,1,.3c.3.2.5.5.6.8l-.6.2c0-.2-.2-.4-.4-.5-.2-.1-.4-.2-.6-.2s-.5,0-.6.2c-.2.1-.3.3-.4.5s-.1.4-.1.7c0,.4,0,.7.3,1,.2.3.5.4.8.4s.4,0,.6-.2c.2-.1.3-.3.4-.5l.6.2c-.1.3-.3.6-.6.8-.3.2-.6.3-1,.3Z"/>
    <path class="st0" d="M47.8,22.1c-.4,0-.7,0-1-.2-.3-.2-.5-.4-.6-.7-.1-.3-.2-.6-.2-1s0-.7.2-1c.1-.3.4-.5.6-.7.3-.2.6-.2.9-.2s.7,0,1,.3c.3.2.5.4.6.7.1.3.2.6.2,1s0,.7-.2,1c-.1.3-.3.5-.6.7-.3.2-.6.2-1,.2ZM47.8,21.5c.4,0,.7-.1.9-.4s.3-.6.3-1,0-.7-.3-1-.5-.4-.9-.4-.5,0-.6.2-.3.3-.4.5-.1.4-.1.7c0,.4,0,.8.3,1,.2.3.5.4.8.4Z"/>
    <path class="st0" d="M50.3,22v-3.7h.5v1h0v2.7h-.6ZM53,22v-1.9c0-.2,0-.3,0-.5,0-.2,0-.3-.2-.4,0-.1-.2-.2-.3-.3-.1,0-.3-.1-.5-.1s-.3,0-.4,0c-.1,0-.2.1-.3.2,0,.1-.2.2-.2.4,0,.2,0,.3,0,.6h-.4c0-.5,0-.8.2-1,.1-.3.3-.5.5-.6s.5-.2.8-.2.4,0,.6.1c.2,0,.3.2.4.3.1.1.2.3.3.4,0,.2.1.3.1.5s0,.3,0,.4v2h-.6Z"/>
    <path class="st0" d="M55.9,23.7v-5.3h.5v2.7h0v2.6h-.6ZM57.6,22.1c-.3,0-.6,0-.9-.3-.2-.2-.4-.4-.5-.7s-.2-.6-.2-1,0-.7.2-1,.3-.5.5-.7.5-.3.9-.3.6,0,.9.3.4.4.6.7.2.6.2,1,0,.7-.2,1-.3.5-.6.7-.5.3-.9.3ZM57.5,21.6c.2,0,.4,0,.6-.2.2-.1.3-.3.4-.5s.1-.4.1-.7,0-.5-.1-.7-.2-.4-.4-.5c-.2-.1-.4-.2-.6-.2s-.4,0-.6.2c-.2.1-.3.3-.4.5,0,.2-.1.5-.1.7s0,.5.1.7c0,.2.2.4.4.5.2.1.4.2.6.2Z"/>
    <path class="st0" d="M60,22v-5h.6v5h-.6Z"/>
    <path class="st0" d="M62.7,22.1c-.3,0-.5,0-.7-.2-.2-.1-.3-.2-.4-.4,0-.2-.1-.4-.1-.5s0-.4.1-.5c0-.1.2-.3.3-.4.1,0,.3-.2.5-.2.2,0,.4,0,.6-.1.2,0,.4,0,.7,0,.2,0,.4,0,.6,0h-.2c0-.2,0-.4-.2-.6-.1-.2-.4-.2-.7-.2s-.4,0-.6.2c-.2.1-.3.3-.4.5l-.6-.2c0-.3.3-.6.5-.8.3-.2.6-.3,1-.3s.6,0,.9.2.4.3.5.5c0,.1,0,.2,0,.4s0,.3,0,.4v2.3h-.5v-.9h.1c-.1.4-.3.6-.6.8-.3.2-.6.2-.9.2ZM62.8,21.6c.2,0,.4,0,.6-.1s.3-.2.4-.3c0-.1.2-.3.2-.4,0-.1,0-.2,0-.4,0-.1,0-.2,0-.3h.2c-.2.1-.4.1-.6.2-.2,0-.4,0-.5,0-.2,0-.3,0-.5,0-.1,0-.2,0-.3.1,0,0-.2.1-.2.2,0,0,0,.2,0,.3s0,.2,0,.3c0,0,.1.2.2.2.1,0,.3,0,.4,0Z"/>
    <path class="st0" d="M67.1,22.1c-.4,0-.7,0-1-.3s-.5-.4-.6-.7c-.1-.3-.2-.6-.2-1,0-.4,0-.7.2-1s.3-.5.6-.7c.3-.2.6-.2.9-.2s.7,0,1,.3c.3.2.5.5.6.8l-.6.2c0-.2-.2-.4-.4-.5-.2-.1-.4-.2-.6-.2s-.5,0-.6.2c-.2.1-.3.3-.4.5s-.1.4-.1.7c0,.4,0,.7.3,1,.2.3.5.4.8.4s.4,0,.6-.2c.2-.1.3-.3.4-.5l.6.2c-.1.3-.3.6-.6.8-.3.2-.6.3-1,.3Z"/>
    <path class="st0" d="M70.4,22.1c-.3,0-.5,0-.7-.2-.2-.1-.3-.2-.4-.4,0-.2-.1-.4-.1-.5s0-.4.1-.5c0-.1.2-.3.3-.4.1,0,.3-.2.5-.2.2,0,.4,0,.6-.1.2,0,.4,0,.7,0,.2,0,.4,0,.6,0h-.2c0-.2,0-.4-.2-.6-.1-.2-.4-.2-.7-.2s-.4,0-.6.2c-.2.1-.3.3-.4.5l-.6-.2c0-.3.3-.6.5-.8.3-.2.6-.3,1-.3s.6,0,.9.2.4.3.5.5c0,.1,0,.2,0,.4s0,.3,0,.4v2.3h-.5v-.9h.1c-.1.4-.3.6-.6.8-.3.2-.6.2-.9.2ZM70.5,21.6c.2,0,.4,0,.6-.1s.3-.2.4-.3c0-.1.2-.3.2-.4,0-.1,0-.2,0-.4,0-.1,0-.2,0-.3h.2c-.2.1-.4.1-.6.2-.2,0-.4,0-.5,0-.2,0-.3,0-.5,0-.1,0-.2,0-.3.1,0,0-.2.1-.2.2,0,0,0,.2,0,.3s0,.2,0,.3c0,0,.1.2.2.2.1,0,.3,0,.4,0Z"/>
    <path class="st0" d="M74.6,22.1c-.4,0-.8,0-1.1-.3s-.5-.5-.5-.8h.6c0,.1.2.3.3.4.2.1.4.2.7.2s.4,0,.6-.2.2-.2.2-.4,0-.2,0-.3-.1-.1-.3-.2c-.2,0-.4-.1-.7-.2-.3,0-.6-.2-.8-.3-.2,0-.3-.2-.4-.3,0-.1-.1-.3-.1-.5s0-.4.2-.6.3-.3.5-.4c.2,0,.5-.1.7-.1s.5,0,.8.1c.2,0,.4.2.5.4.1.2.2.4.2.6h-.6c0,0-.1-.2-.3-.4-.2-.1-.4-.2-.6-.2-.2,0-.4,0-.6.1-.2,0-.2.2-.2.4s0,.2,0,.2c0,0,.2.1.3.2.2,0,.4.1.7.2.3,0,.6.2.8.3.2,0,.3.2.4.3,0,.1.1.3.1.5,0,.4-.1.6-.4.8-.3.2-.6.3-1.1.3Z"/>
    <path class="st0" d="M78.8,23.7l.7-1.9v.6s-1.6-4-1.6-4h.6l1.3,3.2h-.2l1.2-3.2h.6l-2,5.3h-.6Z"/>
    <path class="st0" d="M84.7,22.1c-.4,0-.8,0-1.1-.3s-.5-.5-.5-.8h.6c0,.1.2.3.3.4.2.1.4.2.7.2s.4,0,.6-.2.2-.2.2-.4,0-.2,0-.3-.1-.1-.3-.2c-.2,0-.4-.1-.7-.2-.3,0-.6-.2-.8-.3-.2,0-.3-.2-.4-.3,0-.1-.1-.3-.1-.5s0-.4.2-.6.3-.3.5-.4c.2,0,.5-.1.7-.1s.5,0,.8.1c.2,0,.4.2.5.4.1.2.2.4.2.6h-.6c0,0-.1-.2-.3-.4-.2-.1-.4-.2-.6-.2-.2,0-.4,0-.6.1-.2,0-.2.2-.2.4s0,.2,0,.2c0,0,.2.1.3.2.2,0,.4.1.7.2.3,0,.6.2.8.3.2,0,.3.2.4.3,0,.1.1.3.1.5,0,.4-.1.6-.4.8-.3.2-.6.3-1.1.3Z"/>
    <path class="st0" d="M88.6,22.1c-.4,0-.7,0-1-.2-.3-.2-.5-.4-.6-.7-.2-.3-.2-.6-.2-1s0-.8.2-1.1.4-.5.6-.7c.3-.2.6-.2.9-.2s.7,0,1,.3c.3.2.5.4.6.7.1.3.2.7.2,1.1h-.6v-.2c0-.5,0-.8-.3-1-.2-.2-.4-.3-.8-.3s-.7.1-.9.4c-.2.2-.3.6-.3,1s0,.8.3,1c.2.2.5.4.8.4s.5,0,.6-.2.3-.3.4-.5l.6.2c-.1.3-.4.6-.7.8-.3.2-.6.3-1,.3ZM87.2,20.3v-.5h2.7v.5h-2.7Z"/>
    <path class="st0" d="M92.5,22.1c-.3,0-.6,0-.9-.3s-.4-.4-.6-.7-.2-.6-.2-1,0-.7.2-1,.3-.5.6-.7.5-.3.9-.3.6,0,.9.3c.2.2.4.4.5.7s.2.6.2,1,0,.7-.2,1-.3.5-.5.7c-.2.2-.5.3-.9.3ZM92.5,23.8c-.2,0-.4,0-.6,0-.2,0-.4-.1-.5-.3s-.3-.3-.4-.5l.6-.3c0,.2.2.3.4.4.2,0,.3.1.5.1s.4,0,.6-.1.3-.2.3-.4c0-.2.1-.4.1-.6v-1h0v-2.7h.5v3.7c0,.1,0,.2,0,.3s0,.2,0,.3c0,.3-.1.5-.3.7-.1.2-.3.3-.5.4-.2,0-.5.1-.8.1ZM92.5,21.6c.2,0,.5,0,.6-.2s.3-.3.4-.5c0-.2.1-.5.1-.7s0-.5-.1-.7c0-.2-.2-.4-.4-.5-.2-.1-.4-.2-.6-.2s-.5,0-.6.2c-.2.1-.3.3-.4.5,0,.2-.1.4-.1.7s0,.5.1.7.2.4.4.5c.2.1.4.2.6.2Z"/>
    <path class="st0" d="M96.5,22.1c-.2,0-.4,0-.6-.1-.2,0-.3-.2-.4-.3-.1-.1-.2-.3-.3-.4,0-.2-.1-.3-.1-.5s0-.3,0-.4v-2h.6v1.9c0,.2,0,.3,0,.5,0,.2,0,.3.2.4,0,.1.2.2.3.3.1,0,.3.1.5.1s.3,0,.4,0c.1,0,.2-.1.3-.2,0-.1.2-.2.2-.4,0-.2,0-.3,0-.6h.4c0,.5,0,.8-.2,1-.1.3-.3.5-.5.6-.2.1-.5.2-.8.2ZM97.8,22v-1h0v-2.7h.6v3.7h-.5Z"/>
    <path class="st0" d="M99.3,22v-3.7h.5v.9h0c0-.2,0-.3.2-.4,0,0,.1-.2.2-.2,0,0,.2-.1.3-.2.1,0,.2,0,.4,0,.1,0,.2,0,.4,0v.6c-.1,0-.3,0-.4,0-.2,0-.3,0-.4.2-.1,0-.2.2-.3.3,0,.1-.1.2-.1.4,0,.1,0,.3,0,.4v1.9h-.6Z"/>
    <path class="st0" d="M103.4,22.1c-.4,0-.7,0-1-.2-.3-.2-.5-.4-.6-.7-.1-.3-.2-.6-.2-1s0-.7.2-1c.1-.3.4-.5.6-.7.3-.2.6-.2.9-.2s.7,0,1,.3c.3.2.5.4.6.7.1.3.2.6.2,1s0,.7-.2,1c-.1.3-.3.5-.6.7-.3.2-.6.2-1,.2ZM103.4,21.5c.4,0,.7-.1.9-.4s.3-.6.3-1,0-.7-.3-1-.5-.4-.9-.4-.5,0-.6.2-.3.3-.4.5-.1.4-.1.7c0,.4,0,.8.3,1,.2.3.5.4.8.4Z"/>
  </g>
  <g id="VfF092" class="st1">
    <g>
      <path class="st0" d="M25.1,22c-4.1,0-8.2,0-12.2,0s-.5,0-.8,0c-1,0-2.3,0-3.3,0s-1.7-.9-1.9-1.8c-.1-4.2,0-8.4,0-12.6.2-1.1,1.1-1.8,2.2-1.8s.5,0,.7,0c8.4,0,16.7,0,25.1,0,1.1,0,1.8.7,2.1,1.7.1,4.1,0,8.2,0,12.2l-.2.8-.4.7v-1.9c0-.3-.4-.6-.4-.7s0-.5,0-.7c-.1-2.8,0-5.6,0-8.4,0-1.1.2-2.5-1.1-2.8H12c-1,.2-2.2-.1-3.2,0s-.9.8-.9,1.4c0,3.8.1,7.6,0,11.4.3,1.6,1.7,1.3,2.9,1.3s1.6,0,2.4,0c4,0,8,0,12,0v1Z"/>
      <path class="st0" d="M28.8,18.5c.2-.3.7-.4,1-.5s.5-.3.8-.3c1.2.5,2.3,1,3.6,1.3s1.2.1,1.3.5c0,1,0,2-.1,3-.4,2.2-1.8,3.9-3.6,5.1s-.8.6-1.2.5-1.5-.9-1.9-1.2c-2.2-1.9-3.1-4.4-2.8-7.3,0-.3.2-.4.4-.5.5-.2,2.3-.4,2.6-.7ZM33.2,20.4c-.1,0-.6.5-.7.7-.7.8-1.4,1.7-2.2,2.5-.1,0-1.2-1.3-1.5-1.5-.5-.4-1.1,0-.9.6.3.4.7.8,1,1.2s.8.8,1,1,.4.1.6,0c.6-.6,1.2-1.4,1.8-2s.8-.9,1.1-1.3.4-.4.4-.8-.4-.4-.7-.3Z"/>
      <path class="st0" d="M25.9,15.1c0,0,0-.2,0-.3.3-1.8.8-3.6,1.2-5.3,0,0,0-.1,0-.1.1,0,1.1,0,1.2,0,0,.4.2.7.3,1.1s.2,1,.3,1.5c.2.9.5,2,.7,2.8s0,.2,0,.3h-.9c0-.2-.1-1-.3-1.1s-1.1,0-1.3,0c-.2.1-.1.8-.3,1h-.9ZM27.3,13.2h.9l-.5-2.2h-.1c-.1.7-.3,1.4-.4,2.1h0Z"/>
      <path class="st0" d="M17.8,15.1s0,0,0,0c.3-1.9.8-3.8,1.2-5.7,0-.1,1,0,1.2,0,.5,1.9,1,3.9,1.3,5.8h-1s-.1-.9-.2-1-.8,0-1,0-.3,0-.4.1c-.1.2,0,.8-.3,1h-.8ZM19.2,13.2h.8s0,0,0,0c0-.1-.2-1.3-.3-1.5s-.2-.9-.3-.5-.2,1.1-.3,1.4,0,.3,0,.5h0Z"/>
      <path class="st0" d="M11.4,13.1c0,0,0,0,0,.1,0,.4.1,1.5,0,1.8s-.6,0-.8,0v-.5c0-1.6-.2-3.2-.1-4.7s0-.4,0-.5c0-.1,1.5-.1,1.7-.1.4,0,.9.4,1.1.7.6.7.6,2,0,2.7s-.8.5-1.1.5h-.7ZM11.3,12.2h.6c.3,0,.5-.5.6-.7,0-.7-.3-1.4-1.1-1.2,0,0,0,.1,0,.2,0,.3,0,1.1,0,1.4s0,.2,0,.3Z"/>
      <path class="st0" d="M32.9,9.8c.2.2.6,1,.3,1.2s-.7,0-.9,0c0-.5-.3-1-.9-.8s-.3.8,0,1.2c.7.7,1.8.9,1.9,2.1s-.2,1.4-1,1.6-2.5-.2-2.3-1.6c.3-.2.7,0,1,0,0,.3,0,.6.3.8.6.3,1.3-.3.9-.9s-1.9-1.1-2.1-2c-.5-1.7,1.8-2.6,2.8-1.5Z"/>
      <path class="st0" d="M24.3,11s0,0-.1,0c.1-.6-.4-1.1-.9-.8s-.3.3-.3.5c0,.7,0,1.7,0,2.4s0,.6,0,.9c.2.4.9.4,1.1,0s0-.3,0-.5c0-.1.8,0,1,0,.2.5-.2,1.2-.6,1.5-.7.4-1.9.4-2.3-.3s-.3-2.1-.3-2.8,0-.7,0-1.1c.1-1.2,1.2-1.7,2.2-1.4s1.3,1,.9,1.7c-.2,0-.6,0-.8,0Z"/>
      <path class="st0" d="M15.3,9.3c0,1.2,0,2.4,0,3.6s0,.2,0,.3c0,.3,0,.7,0,1s0,0,0,.1h1.6c0,.2,0,.8-.1.8h-2.6c0,0,0-.1,0-.2,0-1,0-2.1,0-3.1s0-1.2,0-1.8,0-.5,0-.6.1-.1.1-.1h.9Z"/>
      <path class="st0" d="M21.1,17.7c.2,1.3-1.2,2.1-2.2,1.2s0-3,1.5-2.4.9,1.1,0,.9c-.1-.3-.2-.5-.6-.4-.9,0-.8,1.7,0,1.7s.6-.2.6-.5h-.5c0,0-.1-.4,0-.5h1.2Z"/>
      <path class="st0" d="M14.3,18.4c0,0,.1.2.2.3.2.1.7,0,.6-.3s-.7-.3-.9-.5c-.4-.2-.6-.5-.5-.9.1-.8,1.6-.8,2-.2s.2.5-.3.5-.2-.2-.3-.3-.5-.2-.7,0c-.1.4.7.5,1,.6.4.2.5.6.4,1-.3,1-2.2.6-2.2-.1s.5-.3.6-.2Z"/>
      <path class="st0" d="M22.2,16.5v1.9c0,.1.3.2.4.3.3,0,.5,0,.6-.4,0-.5,0-1,0-1.5s0-.3,0-.3h.6c0,.5,0,.9,0,1.3s0,.2,0,.4c0,.2-.1.7-.3.9-.6.4-1.7.3-2-.5s0-1.3,0-1.7,0-.2,0-.4h.6Z"/>
      <path class="st0" d="M25.6,18.7c0-.2,0-.4-.3-.4-.5-.1-.3.2-.3.5,0,.6-.1.6-.7.5v-2.6s0,0,.1-.1c.2,0,1.1,0,1.3,0,.5.1.7.4.7.9s-.2.6-.5.8v.3c.1,0-.3.2-.3.2ZM25,17.7c.3,0,.8,0,.8-.4s-.5-.2-.7-.2c-.1.2,0,.4,0,.6Z"/>
      <path class="st0" d="M18.1,16.5v.5c-.5.1-1.4-.3-1.1.6h1.1c0,.2,0,.4-.1.5h-1c-.1,0,0,.6,0,.6h1.1c0,.1,0,.6,0,.6h-1.7c0,0,0-.2,0-.3,0-.6,0-1.5,0-2.1s0-.5.3-.5h1.5Z"/>
      <path class="st0" d="M28.4,17.6c-.3-1.2-1.4-.2-1,.6h-.7c-.3-1,.6-2.2,1.8-1.6s.7,1.2-.1,1Z"/>
      <path class="st0" d="M11.6,7.9c.2,0,1.2,0,1.4,0,.4,0,.5.7,0,.7s-1.1,0-1.4,0c-.4-.1-.5-.7,0-.8Z"/>
      <path class="st0" d="M30.7,7.9c.2,0,1.2,0,1.3,0,.3,0,.4.6,0,.7s-.5,0-.7,0-.5.1-.8,0-.2-.7.1-.7Z"/>
      <path class="st0" d="M11.5,19.4c.2,0,1.3,0,1.5,0,.3,0,.4.6,0,.7s-1.4,0-1.6,0c-.3,0-.3-.6,0-.7Z"/>
    </g>
  </g>
</svg>