<?xml version="1.0" encoding="UTF-8"?>
<svg id="Capa_1" xmlns="http://www.w3.org/2000/svg" version="1.1" viewBox="0 0 111.4 31.8">
  <!-- Generator: Adobe Illustrator 29.6.1, SVG Export Plug-In . SVG Version: 2.1.1 Build 9)  -->
  <defs>
    <style>
      .st0 {
        fill: #fff;
      }

      .st1 {
        opacity: .8;
      }
    </style>
  </defs>
  <g class="st1">
    <path class="st0" d="M39.9,13.5v-4.9h2s.1,0,.2,0c0,0,.1,0,.2,0,.3,0,.5.1.7.3s.3.3.4.5c0,.2.1.5.1.7s0,.5-.1.7c0,.2-.2.4-.4.5-.2.1-.4.2-.7.3,0,0-.1,0-.2,0,0,0-.1,0-.2,0h-1.3v1.8h-.6ZM40.5,11.1h1.3s0,0,.1,0c0,0,.1,0,.2,0,.2,0,.3-.1.4-.2,0,0,.2-.2.2-.3s0-.3,0-.4,0-.3,0-.4c0-.1-.1-.2-.2-.3,0,0-.2-.2-.4-.2,0,0-.1,0-.2,0s-.1,0-.1,0h-1.3v2Z"/>
    <path class="st0" d="M45.7,13.6c-.4,0-.7,0-1-.2-.3-.2-.5-.4-.6-.7-.1-.3-.2-.6-.2-1s0-.7.2-1c.1-.3.4-.5.6-.7.3-.2.6-.2.9-.2s.7,0,1,.2c.3.2.5.4.6.7.1.3.2.6.2,1s0,.7-.2,1c-.1.3-.3.5-.6.7s-.6.2-1,.2ZM45.7,13c.4,0,.7-.1.9-.4s.3-.6.3-1,0-.7-.3-1c-.2-.2-.5-.4-.9-.4s-.5,0-.6.2c-.2.1-.3.3-.4.5,0,.2-.1.4-.1.7,0,.4,0,.8.3,1,.2.2.5.4.8.4Z"/>
    <path class="st0" d="M49.7,13.6c-.3,0-.6,0-.9-.3s-.4-.4-.6-.7c-.1-.3-.2-.6-.2-1s0-.7.2-1,.3-.5.6-.7.5-.3.9-.3.6,0,.9.3c.2.2.4.4.5.7.1.3.2.6.2,1s0,.7-.2,1-.3.5-.5.7c-.2.2-.5.3-.9.3ZM49.8,13c.2,0,.5,0,.6-.2.2-.1.3-.3.4-.5,0-.2.1-.5.1-.7s0-.5-.1-.7c0-.2-.2-.4-.4-.5-.2-.1-.4-.2-.6-.2s-.5,0-.6.2c-.2.1-.3.3-.4.5,0,.2-.1.4-.1.7s0,.5.1.7c0,.2.2.4.4.5.2.1.4.2.6.2ZM50.9,13.5v-2.7h0v-2.2h.6v4.9h-.5Z"/>
    <path class="st0" d="M54,13.6c-.4,0-.7,0-1-.2-.3-.2-.5-.4-.6-.7-.2-.3-.2-.6-.2-1s0-.8.2-1.1c.1-.3.4-.5.6-.7.3-.2.6-.2.9-.2s.7,0,1,.3c.3.2.5.4.6.7.1.3.2.7.2,1.1h-.6v-.2c0-.5,0-.8-.3-1-.2-.2-.4-.3-.8-.3s-.7.1-.9.4c-.2.2-.3.6-.3,1s0,.8.3,1c.2.2.5.4.8.4s.5,0,.6-.2c.2-.1.3-.3.4-.5l.6.2c-.1.3-.4.6-.7.8-.3.2-.6.3-1,.3ZM52.6,11.8v-.5h2.7v.5h-2.7Z"/>
    <path class="st0" d="M56.4,13.5v-3.7h.5v.9h0c0-.2,0-.3.2-.4,0,0,.1-.2.2-.2,0,0,.2-.1.3-.2.1,0,.2,0,.4,0,.1,0,.2,0,.4,0v.6c-.1,0-.3,0-.4,0-.2,0-.3,0-.4.2-.1,0-.2.2-.3.3,0,.1-.1.2-.1.4,0,.1,0,.3,0,.4v1.9h-.6Z"/>
    <path class="st0" d="M60.6,13.6c-.4,0-.7,0-1-.2-.3-.2-.5-.4-.6-.7-.1-.3-.2-.6-.2-1s0-.7.2-1c.1-.3.4-.5.6-.7.3-.2.6-.2.9-.2s.7,0,1,.2c.3.2.5.4.6.7.1.3.2.6.2,1s0,.7-.2,1c-.1.3-.3.5-.6.7s-.6.2-1,.2ZM60.6,13c.4,0,.7-.1.9-.4s.3-.6.3-1,0-.7-.3-1c-.2-.2-.5-.4-.9-.4s-.5,0-.6.2c-.2.1-.3.3-.4.5,0,.2-.1.4-.1.7,0,.4,0,.8.3,1,.2.2.5.4.8.4Z"/>
    <path class="st0" d="M64.5,13.6c-.4,0-.8,0-1.1-.3s-.5-.5-.5-.8h.6c0,.1.2.3.3.4.2.1.4.2.7.2s.4,0,.6-.2.2-.2.2-.4,0-.2,0-.3c0,0-.1-.1-.3-.2-.2,0-.4-.1-.7-.2-.3,0-.6-.2-.8-.3-.2,0-.3-.2-.4-.3,0-.1-.1-.3-.1-.5s0-.4.2-.6.3-.3.5-.4c.2,0,.5-.1.7-.1s.5,0,.8.1c.2,0,.4.2.5.4.1.2.2.4.2.6h-.6c0,0-.1-.2-.3-.4s-.4-.2-.6-.2c-.2,0-.4,0-.6.1-.2,0-.2.2-.2.4s0,.2,0,.2c0,0,.2.1.3.2.2,0,.4.1.7.2.3,0,.6.2.8.3.2,0,.3.2.4.3s.1.3.1.5c0,.4-.1.6-.4.8-.3.2-.6.3-1.1.3Z"/>
    <path class="st0" d="M68.3,13.6c-.4,0-.7,0-1-.2-.3-.2-.5-.4-.6-.7-.1-.3-.2-.6-.2-1s0-.7.2-1c.1-.3.4-.5.6-.7.3-.2.6-.2.9-.2s.7,0,1,.2c.3.2.5.4.6.7.1.3.2.6.2,1s0,.7-.2,1c-.1.3-.3.5-.6.7s-.6.2-1,.2ZM68.3,13c.4,0,.7-.1.9-.4s.3-.6.3-1,0-.7-.3-1c-.2-.2-.5-.4-.9-.4s-.5,0-.6.2c-.2.1-.3.3-.4.5,0,.2-.1.4-.1.7,0,.4,0,.8.3,1,.2.2.5.4.8.4Z"/>
    <path class="st0" d="M71.8,10.3v-.5h2.5v.5h-2.5ZM74.3,13.5c-.2,0-.4,0-.7,0-.2,0-.4,0-.6-.1s-.3-.2-.4-.4c0-.1-.1-.3-.1-.4,0-.1,0-.3,0-.5v-3.3h.6v3.3c0,.2,0,.3,0,.4,0,.1,0,.2,0,.3,0,.1.2.2.4.3.2,0,.4,0,.7,0v.5Z"/>
    <path class="st0" d="M76.7,13.6c-.4,0-.7,0-1-.2-.3-.2-.5-.4-.6-.7-.1-.3-.2-.6-.2-1s0-.7.2-1c.1-.3.4-.5.6-.7.3-.2.6-.2.9-.2s.7,0,1,.2c.3.2.5.4.6.7.1.3.2.6.2,1s0,.7-.2,1c-.1.3-.3.5-.6.7s-.6.2-1,.2ZM76.7,13c.4,0,.7-.1.9-.4s.3-.6.3-1,0-.7-.3-1c-.2-.2-.5-.4-.9-.4s-.5,0-.6.2c-.2.1-.3.3-.4.5,0,.2-.1.4-.1.7,0,.4,0,.8.3,1,.2.2.5.4.8.4Z"/>
    <path class="st0" d="M79.2,13.5v-3.7h.5v.9h0c0-.2,0-.3.2-.4,0,0,.1-.2.2-.2,0,0,.2-.1.3-.2.1,0,.2,0,.4,0,.1,0,.2,0,.4,0v.6c-.1,0-.3,0-.4,0-.2,0-.3,0-.4.2-.1,0-.2.2-.3.3,0,.1-.1.2-.1.4,0,.1,0,.3,0,.4v1.9h-.6Z"/>
    <path class="st0" d="M83.2,13.6c-.3,0-.6,0-.9-.3s-.4-.4-.6-.7c-.1-.3-.2-.6-.2-1s0-.7.2-1,.3-.5.6-.7.5-.3.9-.3.6,0,.9.3c.2.2.4.4.5.7.1.3.2.6.2,1s0,.7-.2,1-.3.5-.5.7c-.2.2-.5.3-.9.3ZM83.3,13c.2,0,.5,0,.6-.2.2-.1.3-.3.4-.5,0-.2.1-.5.1-.7s0-.5-.1-.7c0-.2-.2-.4-.4-.5-.2-.1-.4-.2-.6-.2s-.5,0-.6.2c-.2.1-.3.3-.4.5,0,.2-.1.4-.1.7s0,.5.1.7c0,.2.2.4.4.5.2.1.4.2.6.2ZM84.3,15.1v-2.6h0v-2.7h.5v5.3h-.6Z"/>
    <path class="st0" d="M87.3,13.6c-.2,0-.4,0-.6-.1-.2,0-.3-.2-.4-.3-.1-.1-.2-.3-.3-.4,0-.2-.1-.3-.1-.5s0-.3,0-.4v-2h.6v1.9c0,.2,0,.3,0,.5,0,.2,0,.3.2.4,0,.1.2.2.3.3.1,0,.3.1.5.1s.3,0,.4,0c.1,0,.2-.1.3-.2,0-.1.2-.2.2-.4,0-.2,0-.3,0-.6h.4c0,.5,0,.8-.2,1-.1.3-.3.5-.5.6-.2.1-.5.2-.8.2ZM88.5,13.5v-1h0v-2.7h.6v3.7h-.5Z"/>
    <path class="st0" d="M91.6,13.6c-.4,0-.7,0-1-.2-.3-.2-.5-.4-.6-.7-.2-.3-.2-.6-.2-1s0-.8.2-1.1c.1-.3.4-.5.6-.7.3-.2.6-.2.9-.2s.7,0,1,.3c.3.2.5.4.6.7.1.3.2.7.2,1.1h-.6v-.2c0-.5,0-.8-.3-1-.2-.2-.4-.3-.8-.3s-.7.1-.9.4c-.2.2-.3.6-.3,1s0,.8.3,1c.2.2.5.4.8.4s.5,0,.6-.2c.2-.1.3-.3.4-.5l.6.2c-.1.3-.4.6-.7.8-.3.2-.6.3-1,.3ZM90.3,11.8v-.5h2.7v.5h-2.7Z"/>
    <path class="st0" d="M41.5,21.8c-.4,0-.7,0-1-.2-.3-.2-.5-.4-.6-.7-.2-.3-.2-.6-.2-1s0-.8.2-1.1c.1-.3.4-.5.6-.7.3-.2.6-.2.9-.2s.7,0,1,.3.5.4.6.7.2.7.2,1.1h-.6v-.2c0-.5,0-.8-.3-1-.2-.2-.4-.3-.8-.3s-.7.1-.9.4c-.2.2-.3.6-.3,1s0,.8.3,1c.2.2.5.4.8.4s.5,0,.6-.2c.2-.1.3-.3.4-.5l.6.2c-.1.3-.4.6-.7.8s-.6.3-1,.3ZM40.2,20v-.5h2.7v.5h-2.7Z"/>
    <path class="st0" d="M44,21.7v-3.7h.5v1h0v2.7h-.6ZM46.6,21.7v-1.9c0-.2,0-.3,0-.5,0-.2,0-.3-.2-.4,0-.1-.2-.2-.3-.3-.1,0-.3-.1-.5-.1s-.3,0-.4,0c-.1,0-.2.1-.3.2,0,.1-.2.2-.2.4,0,.2,0,.3,0,.6h-.4c0-.5,0-.8.2-1,.1-.3.3-.5.5-.6s.5-.2.8-.2.4,0,.6.1c.2,0,.3.2.4.3.1.1.2.3.3.4,0,.2.1.3.1.5s0,.3,0,.4v2h-.6Z"/>
    <path class="st0" d="M50.9,21.8c-.4,0-.8,0-1.1-.3s-.5-.5-.5-.8h.6c0,.1.2.3.3.4.2.1.4.2.7.2s.4,0,.6-.2.2-.2.2-.4,0-.2,0-.3c0,0-.1-.1-.3-.2-.2,0-.4-.1-.7-.2-.3,0-.6-.2-.8-.3s-.3-.2-.4-.3-.1-.3-.1-.5,0-.4.2-.6.3-.3.5-.4.5-.1.7-.1.5,0,.8.1.4.2.5.4c.1.2.2.4.2.6h-.6c0,0-.1-.2-.3-.4-.2-.1-.4-.2-.6-.2-.2,0-.4,0-.6.1-.2,0-.2.2-.2.4s0,.2,0,.2c0,0,.2.1.3.2.2,0,.4.1.7.2.3,0,.6.2.8.3.2,0,.3.2.4.3,0,.1.1.3.1.5,0,.4-.1.6-.4.8s-.6.3-1.1.3Z"/>
    <path class="st0" d="M54.5,21.8c-.2,0-.4,0-.6-.1-.2,0-.3-.2-.4-.3-.1-.1-.2-.3-.3-.4,0-.2-.1-.3-.1-.5s0-.3,0-.4v-2h.6v1.9c0,.2,0,.3,0,.5,0,.2,0,.3.2.4,0,.1.2.2.3.3.1,0,.3.1.5.1s.3,0,.4,0c.1,0,.2-.1.3-.2s.2-.2.2-.4c0-.2,0-.3,0-.6h.4c0,.5,0,.8-.2,1s-.3.5-.5.6-.5.2-.8.2ZM55.8,21.7v-1h0v-2.7h.6v3.7h-.5Z"/>
    <path class="st0" d="M57.3,21.7v-4.9h.6v2.2h0v2.7h-.5ZM59,21.8c-.3,0-.6,0-.9-.3-.2-.2-.4-.4-.5-.7s-.2-.6-.2-1,0-.7.2-1c.1-.3.3-.5.5-.7s.5-.3.9-.3.6,0,.9.3.4.4.6.7.2.6.2,1,0,.7-.2,1c-.1.3-.3.5-.6.7s-.5.3-.9.3ZM58.9,21.3c.2,0,.4,0,.6-.2s.3-.3.4-.5c0-.2.1-.4.1-.7s0-.5-.1-.7c0-.2-.2-.4-.4-.5-.2-.1-.4-.2-.6-.2s-.4,0-.6.2c-.2.1-.3.3-.4.5,0,.2-.1.5-.1.7s0,.5.1.7.2.4.4.5c.2.1.4.2.6.2Z"/>
    <path class="st0" d="M61.5,17.4v-.6h.6v.6h-.6ZM61.5,21.7v-3.7h.6v3.7h-.6Z"/>
    <path class="st0" d="M64.6,21.8c-.3,0-.6,0-.9-.3s-.4-.4-.6-.7c-.1-.3-.2-.6-.2-1s0-.7.2-1,.3-.5.6-.7.5-.3.9-.3.6,0,.9.3c.2.2.4.4.5.7.1.3.2.6.2,1s0,.7-.2,1-.3.5-.5.7c-.2.2-.5.3-.9.3ZM64.6,21.3c.2,0,.5,0,.6-.2.2-.1.3-.3.4-.5,0-.2.1-.5.1-.7s0-.5-.1-.7c0-.2-.2-.4-.4-.5s-.4-.2-.6-.2-.5,0-.6.2c-.2.1-.3.3-.4.5,0,.2-.1.4-.1.7s0,.5.1.7c0,.2.2.4.4.5s.4.2.6.2ZM65.7,21.7v-2.7h0v-2.2h.6v4.9h-.5Z"/>
    <path class="st0" d="M68.3,21.8c-.3,0-.5,0-.7-.2-.2-.1-.3-.2-.4-.4,0-.2-.1-.4-.1-.5s0-.4.1-.5c0-.1.2-.3.3-.4.1,0,.3-.2.5-.2.2,0,.4,0,.6-.1.2,0,.4,0,.7,0s.4,0,.6,0h-.2c0-.2,0-.4-.2-.6-.1-.2-.4-.2-.7-.2s-.4,0-.6.2-.3.3-.4.5l-.6-.2c0-.3.3-.6.5-.8.3-.2.6-.3,1-.3s.6,0,.9.2c.2.1.4.3.5.5,0,.1,0,.2,0,.4,0,.1,0,.3,0,.4v2.3h-.5v-.9h.1c-.1.4-.3.6-.6.8-.3.2-.6.2-.9.2ZM68.4,21.3c.2,0,.4,0,.6-.1.2,0,.3-.2.4-.3,0-.1.2-.3.2-.4,0-.1,0-.2,0-.4,0-.1,0-.2,0-.3h.2c-.2.1-.4.1-.6.2s-.4,0-.5,0c-.2,0-.3,0-.5,0-.1,0-.2,0-.3.1,0,0-.2.1-.2.2,0,0,0,.2,0,.3s0,.2,0,.3c0,0,.1.2.2.2.1,0,.3,0,.4,0Z"/>
    <path class="st0" d="M74,21.8c-.4,0-.7,0-1-.3s-.5-.4-.6-.7c-.1-.3-.2-.6-.2-1,0-.4,0-.7.2-1,.1-.3.3-.5.6-.7.3-.2.6-.2.9-.2s.7,0,1,.3.5.5.6.8l-.6.2c0-.2-.2-.4-.4-.5-.2-.1-.4-.2-.6-.2s-.5,0-.6.2c-.2.1-.3.3-.4.5s-.1.4-.1.7c0,.4,0,.7.3,1,.2.3.5.4.8.4s.4,0,.6-.2c.2-.1.3-.3.4-.5l.6.2c-.1.3-.3.6-.6.8-.3.2-.6.3-1,.3Z"/>
    <path class="st0" d="M77.9,21.8c-.4,0-.7,0-1-.2-.3-.2-.5-.4-.6-.7-.1-.3-.2-.6-.2-1s0-.7.2-1c.1-.3.4-.5.6-.7s.6-.2.9-.2.7,0,1,.3c.3.2.5.4.6.7.1.3.2.6.2,1s0,.7-.2,1c-.1.3-.3.5-.6.7-.3.2-.6.2-1,.2ZM77.9,21.2c.4,0,.7-.1.9-.4s.3-.6.3-1,0-.7-.3-1c-.2-.2-.5-.4-.9-.4s-.5,0-.6.2c-.2.1-.3.3-.4.5,0,.2-.1.4-.1.7,0,.4,0,.8.3,1,.2.3.5.4.8.4Z"/>
    <path class="st0" d="M80.4,21.7v-3.7h.5v1h0v2.7h-.6ZM83.1,21.7v-1.9c0-.2,0-.3,0-.5,0-.2,0-.3-.2-.4,0-.1-.2-.2-.3-.3-.1,0-.3-.1-.5-.1s-.3,0-.4,0c-.1,0-.2.1-.3.2,0,.1-.2.2-.2.4,0,.2,0,.3,0,.6h-.4c0-.5,0-.8.2-1,.1-.3.3-.5.5-.6s.5-.2.8-.2.4,0,.6.1c.2,0,.3.2.4.3.1.1.2.3.3.4,0,.2.1.3.1.5s0,.3,0,.4v2h-.6Z"/>
    <path class="st0" d="M85.9,23.4v-5.3h.5v2.7h0v2.6h-.6ZM87.6,21.8c-.3,0-.6,0-.9-.3-.2-.2-.4-.4-.5-.7s-.2-.6-.2-1,0-.7.2-1c.1-.3.3-.5.5-.7s.5-.3.9-.3.6,0,.9.3.4.4.6.7.2.6.2,1,0,.7-.2,1c-.1.3-.3.5-.6.7s-.5.3-.9.3ZM87.6,21.3c.2,0,.4,0,.6-.2s.3-.3.4-.5c0-.2.1-.4.1-.7s0-.5-.1-.7c0-.2-.2-.4-.4-.5-.2-.1-.4-.2-.6-.2s-.4,0-.6.2c-.2.1-.3.3-.4.5,0,.2-.1.5-.1.7s0,.5.1.7.2.4.4.5c.2.1.4.2.6.2Z"/>
    <path class="st0" d="M91.7,21.8c-.4,0-.7,0-1-.2-.3-.2-.5-.4-.6-.7-.2-.3-.2-.6-.2-1s0-.8.2-1.1c.1-.3.4-.5.6-.7.3-.2.6-.2.9-.2s.7,0,1,.3.5.4.6.7.2.7.2,1.1h-.6v-.2c0-.5,0-.8-.3-1-.2-.2-.4-.3-.8-.3s-.7.1-.9.4c-.2.2-.3.6-.3,1s0,.8.3,1c.2.2.5.4.8.4s.5,0,.6-.2c.2-.1.3-.3.4-.5l.6.2c-.1.3-.4.6-.7.8s-.6.3-1,.3ZM90.3,20v-.5h2.7v.5h-2.7Z"/>
    <path class="st0" d="M95.5,21.8c-.4,0-.8,0-1.1-.3s-.5-.5-.5-.8h.6c0,.1.2.3.3.4.2.1.4.2.7.2s.4,0,.6-.2.2-.2.2-.4,0-.2,0-.3c0,0-.1-.1-.3-.2-.2,0-.4-.1-.7-.2-.3,0-.6-.2-.8-.3s-.3-.2-.4-.3-.1-.3-.1-.5,0-.4.2-.6.3-.3.5-.4.5-.1.7-.1.5,0,.8.1.4.2.5.4c.1.2.2.4.2.6h-.6c0,0-.1-.2-.3-.4-.2-.1-.4-.2-.6-.2-.2,0-.4,0-.6.1-.2,0-.2.2-.2.4s0,.2,0,.2c0,0,.2.1.3.2.2,0,.4.1.7.2.3,0,.6.2.8.3.2,0,.3.2.4.3,0,.1.1.3.1.5,0,.4-.1.6-.4.8s-.6.3-1.1.3Z"/>
    <path class="st0" d="M99.3,21.8c-.4,0-.7,0-1-.2-.3-.2-.5-.4-.6-.7-.1-.3-.2-.6-.2-1s0-.7.2-1c.1-.3.4-.5.6-.7s.6-.2.9-.2.7,0,1,.3c.3.2.5.4.6.7.1.3.2.6.2,1s0,.7-.2,1c-.1.3-.3.5-.6.7-.3.2-.6.2-1,.2ZM99.3,21.2c.4,0,.7-.1.9-.4s.3-.6.3-1,0-.7-.3-1c-.2-.2-.5-.4-.9-.4s-.5,0-.6.2c-.2.1-.3.3-.4.5,0,.2-.1.4-.1.7,0,.4,0,.8.3,1,.2.3.5.4.8.4Z"/>
  </g>
  <g class="st1">
    <path class="st0" d="M25,12.5c0,0,.6.6.7.6.3-.2.6-.4,1-.5,2.7-.4,4.7,1.7,3.9,4.3l-.6,1.1,3.9-2c.5,0,.8,0,.9.5.3,2.7-.2,5.8,0,8.6,0,.6-.4.7-.9.7-2.3.2-4.8,0-7.1,0-3.4,0-6.8.1-10.2,0s-2,0-2-.2l.2-.2,1-.5c-2.1-.2-3.3-2.4-2.6-4.3s3.5-2.8,5.1-1.2l1.3-.7c-.7-.2-1.4-.9-2.1-1.1s-1.4-.3-2,0-2,1.2-2.3,1.1c-.7,0-.9-1-.3-1.4s2.9-1.5,3.4-1.5.9.2,1.2.1.3-.2.4-.3c.3-.2.8-.3,1.1-.5.1-.4.1-1,.3-1.4.4-.7,2.3-1.4,3-1.9-.4-.2-.8-.6-1.3-.4s-.5.4-.8.4c-.9.1-1.2-.9-.4-1.5s2.2-.6,3.1,0c.1-.6.6-1,1.2-.7s1.3,1.4,1.3,1.6c.1.5-.2.8-.6,1,0,0,.1.2.2.2ZM23.7,13.4s0-.2,0,0c-.5.9-.7,2-.6,3s.5,2-.5,2.7-2.2,1-3.1,1.7c-.1.2.1.6.2.9,0,.7-.2,1.4-.5,2l8.8-4.3c-2.8.3-4.4-2.6-3.1-5-.3-.3-.6-.6-.9-.8ZM28.9,14.8s-.4-.4-.5-.4c-.5-.3-1-.3-1.6-.3-.1.1.5.5.6.6.4.4,1.1.9.5,1.5-.9.9-1.6-.6-2.3-1-.3,1.5.5,2.6,2.1,2.4s2-1.8,1.1-2.8ZM16.9,20.2c-1.2-.2-2.4.3-2.4,1.7,0,1.9,2.7,2.3,3.3.6s.2-.7,0-.9c-.2,0-1.1.7-1.4.7s-.6-.3-.7-.5c-.3-.9.6-1,1.1-1.4s.1,0,0-.2Z"/>
    <path class="st0" d="M29,7c-.1-.1-.8.8-.9.8-.2.2-1,1-1.2,1-.8.2-1.3-.6-.8-1.2s2.6-2.7,3.1-3.1.7-.2,1,0c1.1.8,2,2.3,3.1,3.2.3.3.2.7,0,1-1,.8-2-1.4-2.8-1.8v3.8s-.1.3-.2.3c-.4.5-1.3.2-1.3-.4v-3.6Z"/>
  </g>
</svg>