<?xml version="1.0" encoding="UTF-8"?>
<svg id="Capa_1" xmlns="http://www.w3.org/2000/svg" version="1.1" viewBox="0 0 111.4 31.8">
  <!-- Generator: Adobe Illustrator 29.6.1, SVG Export Plug-In . SVG Version: 2.1.1 Build 9)  -->
  <defs>
    <style>
      .st0 {
        fill: #fff;
      }

      .st1 {
        opacity: .8;
      }
    </style>
  </defs>
  <g class="st1">
    <path class="st0" d="M43,14.3c-.5,0-.9-.1-1.3-.3-.3-.2-.6-.5-.8-.9-.2-.4-.3-.8-.3-1.3s0-1,.3-1.3c.2-.4.4-.7.8-.9s.8-.3,1.3-.3,1,.1,1.4.4c.4.3.6.7.8,1.2l-.6.2c-.1-.4-.3-.7-.5-.9-.3-.2-.6-.3-1-.3s-.7,0-.9.3c-.2.2-.4.4-.6.7s-.2.6-.2,1c0,.4,0,.7.2,1,.1.3.3.5.6.7s.6.3.9.3.8-.1,1-.3c.3-.2.4-.5.5-.9l.6.2c-.1.5-.4.9-.8,1.2-.4.3-.8.4-1.4.4Z"/>
    <path class="st0" d="M47,14.3c-.3,0-.5,0-.7-.2-.2-.1-.3-.2-.4-.4,0-.2-.1-.4-.1-.5s0-.4.1-.5c0-.1.2-.3.3-.4.1,0,.3-.2.5-.2.2,0,.4,0,.6-.1.2,0,.4,0,.7,0,.2,0,.4,0,.6,0h-.2c0-.2,0-.4-.2-.6-.1-.2-.4-.2-.7-.2s-.4,0-.6.2c-.2.1-.3.3-.4.5l-.6-.2c0-.3.3-.6.5-.8.3-.2.6-.3,1-.3s.6,0,.9.2.4.3.5.5c0,.1,0,.2,0,.4s0,.3,0,.4v2.3h-.5v-.9h.1c-.1.4-.3.6-.6.8-.3.2-.6.2-.9.2ZM47.1,13.7c.2,0,.4,0,.6-.1s.3-.2.4-.3c0-.1.2-.3.2-.4,0-.1,0-.2,0-.4,0-.1,0-.2,0-.3h.2c-.2.1-.4.1-.6.2-.2,0-.4,0-.5,0-.2,0-.3,0-.5,0-.1,0-.2,0-.3.1,0,0-.2.1-.2.2,0,0,0,.2,0,.3s0,.2,0,.3c0,0,.1.2.2.2.1,0,.3,0,.4,0Z"/>
    <path class="st0" d="M49.8,14.1v-3.7h.5v.9h0c0-.2,0-.3.2-.4,0,0,.1-.2.2-.2,0,0,.2-.1.3-.2.1,0,.2,0,.4,0,.1,0,.2,0,.4,0v.6c-.1,0-.3,0-.4,0-.2,0-.3,0-.4.2-.1,0-.2.2-.3.3,0,.1-.1.2-.1.4,0,.1,0,.3,0,.4v1.9h-.6Z"/>
    <path class="st0" d="M53.8,14.3c-.3,0-.6,0-.9-.3s-.4-.4-.6-.7-.2-.6-.2-1,0-.7.2-1,.3-.5.6-.7.5-.3.9-.3.6,0,.9.3c.2.2.4.4.5.7s.2.6.2,1,0,.7-.2,1-.3.5-.5.7c-.2.2-.5.3-.9.3ZM53.8,15.9c-.2,0-.4,0-.6,0-.2,0-.4-.1-.5-.3s-.3-.3-.4-.5l.6-.3c0,.2.2.3.4.4.2,0,.3.1.5.1s.4,0,.6-.1.3-.2.3-.4c0-.2.1-.4.1-.6v-1h0v-2.7h.5v3.7c0,.1,0,.2,0,.3s0,.2,0,.3c0,.3-.1.5-.3.7-.1.2-.3.3-.5.4-.2,0-.5.1-.8.1ZM53.9,13.7c.2,0,.5,0,.6-.2s.3-.3.4-.5c0-.2.1-.5.1-.7s0-.5-.1-.7c0-.2-.2-.4-.4-.5-.2-.1-.4-.2-.6-.2s-.5,0-.6.2c-.2.1-.3.3-.4.5,0,.2-.1.4-.1.7s0,.5.1.7.2.4.4.5c.2.1.4.2.6.2Z"/>
    <path class="st0" d="M57.5,14.3c-.3,0-.5,0-.7-.2-.2-.1-.3-.2-.4-.4,0-.2-.1-.4-.1-.5s0-.4.1-.5c0-.1.2-.3.3-.4.1,0,.3-.2.5-.2.2,0,.4,0,.6-.1.2,0,.4,0,.7,0,.2,0,.4,0,.6,0h-.2c0-.2,0-.4-.2-.6-.1-.2-.4-.2-.7-.2s-.4,0-.6.2c-.2.1-.3.3-.4.5l-.6-.2c0-.3.3-.6.5-.8.3-.2.6-.3,1-.3s.6,0,.9.2.4.3.5.5c0,.1,0,.2,0,.4s0,.3,0,.4v2.3h-.5v-.9h.1c-.1.4-.3.6-.6.8-.3.2-.6.2-.9.2ZM57.6,13.7c.2,0,.4,0,.6-.1s.3-.2.4-.3c0-.1.2-.3.2-.4,0-.1,0-.2,0-.4,0-.1,0-.2,0-.3h.2c-.2.1-.4.1-.6.2-.2,0-.4,0-.5,0-.2,0-.3,0-.5,0-.1,0-.2,0-.3.1,0,0-.2.1-.2.2,0,0,0,.2,0,.3s0,.2,0,.3c0,0,.1.2.2.2.1,0,.3,0,.4,0Z"/>
    <path class="st0" d="M63.3,14.3c-.4,0-.7,0-1-.2-.3-.2-.5-.4-.6-.7-.2-.3-.2-.6-.2-1s0-.8.2-1.1.4-.5.6-.7c.3-.2.6-.2.9-.2s.7,0,1,.3c.3.2.5.4.6.7.1.3.2.7.2,1.1h-.6v-.2c0-.5,0-.8-.3-1-.2-.2-.4-.3-.8-.3s-.7.1-.9.4c-.2.2-.3.6-.3,1s0,.8.3,1c.2.2.5.4.8.4s.5,0,.6-.2.3-.3.4-.5l.6.2c-.1.3-.4.6-.7.8-.3.2-.6.3-1,.3ZM61.9,12.5v-.5h2.7v.5h-2.7Z"/>
    <path class="st0" d="M65.7,14.1v-3.7h.5v1h0v2.7h-.6ZM68.4,14.1v-1.9c0-.2,0-.3,0-.5,0-.2,0-.3-.2-.4,0-.1-.2-.2-.3-.3-.1,0-.3-.1-.5-.1s-.3,0-.4,0c-.1,0-.2.1-.3.2,0,.1-.2.2-.2.4,0,.2,0,.3,0,.6h-.4c0-.5,0-.8.2-1,.1-.3.3-.5.5-.6s.5-.2.8-.2.4,0,.6.1c.2,0,.3.2.4.3.1.1.2.3.3.4,0,.2.1.3.1.5s0,.3,0,.4v2h-.6Z"/>
    <path class="st0" d="M72.8,14.3c-.4,0-.7,0-1-.3s-.5-.4-.6-.7c-.1-.3-.2-.6-.2-1,0-.4,0-.7.2-1s.3-.5.6-.7c.3-.2.6-.2.9-.2s.7,0,1,.3c.3.2.5.5.6.8l-.6.2c0-.2-.2-.4-.4-.5-.2-.1-.4-.2-.6-.2s-.5,0-.6.2c-.2.1-.3.3-.4.5s-.1.4-.1.7c0,.4,0,.7.3,1,.2.3.5.4.8.4s.4,0,.6-.2c.2-.1.3-.3.4-.5l.6.2c-.1.3-.3.6-.6.8-.3.2-.6.3-1,.3Z"/>
    <path class="st0" d="M76.5,14.2c-.2,0-.4,0-.6-.1-.2,0-.3-.2-.4-.3-.1-.1-.2-.3-.3-.4,0-.2-.1-.3-.1-.5s0-.3,0-.4v-2h.6v1.9c0,.2,0,.3,0,.5,0,.2,0,.3.2.4,0,.1.2.2.3.3.1,0,.3.1.5.1s.3,0,.4,0c.1,0,.2-.1.3-.2,0-.1.2-.2.2-.4,0-.2,0-.3,0-.6h.4c0,.5,0,.8-.2,1-.1.3-.3.5-.5.6-.2.1-.5.2-.8.2ZM77.7,14.1v-1h0v-2.7h.6v3.7h-.5Z"/>
    <path class="st0" d="M80.3,14.3c-.3,0-.5,0-.7-.2-.2-.1-.3-.2-.4-.4,0-.2-.1-.4-.1-.5s0-.4.1-.5c0-.1.2-.3.3-.4.1,0,.3-.2.5-.2.2,0,.4,0,.6-.1.2,0,.4,0,.7,0,.2,0,.4,0,.6,0h-.2c0-.2,0-.4-.2-.6-.1-.2-.4-.2-.7-.2s-.4,0-.6.2c-.2.1-.3.3-.4.5l-.6-.2c0-.3.3-.6.5-.8.3-.2.6-.3,1-.3s.6,0,.9.2.4.3.5.5c0,.1,0,.2,0,.4s0,.3,0,.4v2.3h-.5v-.9h.1c-.1.4-.3.6-.6.8-.3.2-.6.2-.9.2ZM80.4,13.7c.2,0,.4,0,.6-.1s.3-.2.4-.3c0-.1.2-.3.2-.4,0-.1,0-.2,0-.4,0-.1,0-.2,0-.3h.2c-.2.1-.4.1-.6.2-.2,0-.4,0-.5,0-.2,0-.3,0-.5,0-.1,0-.2,0-.3.1,0,0-.2.1-.2.2,0,0,0,.2,0,.3s0,.2,0,.3c0,0,.1.2.2.2.1,0,.3,0,.4,0Z"/>
    <path class="st0" d="M83.2,14.1v-5h.6v5h-.6Z"/>
    <path class="st0" d="M86.2,14.3c-.3,0-.6,0-.9-.3s-.4-.4-.6-.7-.2-.6-.2-1,0-.7.2-1,.3-.5.6-.7.5-.3.9-.3.6,0,.9.3c.2.2.4.4.5.7s.2.6.2,1,0,.7-.2,1-.3.5-.5.7c-.2.2-.5.3-.9.3ZM86.3,13.7c.2,0,.5,0,.6-.2s.3-.3.4-.5c0-.2.1-.5.1-.7s0-.5-.1-.7c0-.2-.2-.4-.4-.5-.2-.1-.4-.2-.6-.2s-.5,0-.6.2c-.2.1-.3.3-.4.5,0,.2-.1.4-.1.7s0,.5.1.7.2.4.4.5c.2.1.4.2.6.2ZM87.3,15.8v-2.6h0v-2.7h.5v5.3h-.6Z"/>
    <path class="st0" d="M90.3,14.2c-.2,0-.4,0-.6-.1-.2,0-.3-.2-.4-.3-.1-.1-.2-.3-.3-.4,0-.2-.1-.3-.1-.5s0-.3,0-.4v-2h.6v1.9c0,.2,0,.3,0,.5,0,.2,0,.3.2.4,0,.1.2.2.3.3.1,0,.3.1.5.1s.3,0,.4,0c.1,0,.2-.1.3-.2,0-.1.2-.2.2-.4,0-.2,0-.3,0-.6h.4c0,.5,0,.8-.2,1-.1.3-.3.5-.5.6-.2.1-.5.2-.8.2ZM91.6,14.1v-1h0v-2.7h.6v3.7h-.5Z"/>
    <path class="st0" d="M93.1,9.8v-.6h.6v.6h-.6ZM93.1,14.1v-3.7h.6v3.7h-.6Z"/>
    <path class="st0" d="M96.4,14.3c-.4,0-.7,0-1-.2-.3-.2-.5-.4-.6-.7-.2-.3-.2-.6-.2-1s0-.8.2-1.1.4-.5.6-.7c.3-.2.6-.2.9-.2s.7,0,1,.3c.3.2.5.4.6.7.1.3.2.7.2,1.1h-.6v-.2c0-.5,0-.8-.3-1-.2-.2-.4-.3-.8-.3s-.7.1-.9.4c-.2.2-.3.6-.3,1s0,.8.3,1c.2.2.5.4.8.4s.5,0,.6-.2.3-.3.4-.5l.6.2c-.1.3-.4.6-.7.8-.3.2-.6.3-1,.3ZM95,12.5v-.5h2.7v.5h-2.7Z"/>
    <path class="st0" d="M98.8,14.1v-3.7h.5v.9h0c0-.2,0-.3.2-.4,0,0,.1-.2.2-.2,0,0,.2-.1.3-.2.1,0,.2,0,.4,0,.1,0,.2,0,.4,0v.6c-.1,0-.3,0-.4,0-.2,0-.3,0-.4.2-.1,0-.2.2-.3.3,0,.1-.1.2-.1.4,0,.1,0,.3,0,.4v1.9h-.6Z"/>
    <path class="st0" d="M42.5,22.5c-.4,0-.7,0-1-.3s-.5-.4-.6-.7c-.1-.3-.2-.6-.2-1,0-.4,0-.7.2-1s.3-.5.6-.7c.3-.2.6-.2.9-.2s.7,0,1,.3c.3.2.5.5.6.8l-.6.2c0-.2-.2-.4-.4-.5-.2-.1-.4-.2-.6-.2s-.5,0-.6.2c-.2.1-.3.3-.4.5s-.1.4-.1.7c0,.4,0,.7.3,1,.2.3.5.4.8.4s.4,0,.6-.2c.2-.1.3-.3.4-.5l.6.2c-.1.3-.3.6-.6.8-.3.2-.6.3-1,.3Z"/>
    <path class="st0" d="M46.4,22.5c-.4,0-.7,0-1-.2-.3-.2-.5-.4-.6-.7-.1-.3-.2-.6-.2-1s0-.7.2-1c.1-.3.4-.5.6-.7.3-.2.6-.2.9-.2s.7,0,1,.3c.3.2.5.4.6.7.1.3.2.6.2,1s0,.7-.2,1c-.1.3-.3.5-.6.7-.3.2-.6.2-1,.2ZM46.4,21.9c.4,0,.7-.1.9-.4s.3-.6.3-1,0-.7-.3-1-.5-.4-.9-.4-.5,0-.6.2-.3.3-.4.5-.1.4-.1.7c0,.4,0,.8.3,1,.2.3.5.4.8.4Z"/>
    <path class="st0" d="M48.9,22.4v-3.7h.5v1h0v2.7h-.6ZM51.6,22.4v-1.9c0-.2,0-.3,0-.5,0-.2,0-.3-.2-.4,0-.1-.2-.2-.3-.3-.1,0-.3-.1-.5-.1s-.3,0-.4,0c-.1,0-.2.1-.3.2,0,.1-.2.2-.2.4,0,.2,0,.3,0,.6h-.4c0-.5,0-.8.2-1,.1-.3.3-.5.5-.6s.5-.2.8-.2.4,0,.6.1c.2,0,.3.2.4.3.1.1.2.3.3.4,0,.2.1.3.1.5s0,.3,0,.4v2h-.6Z"/>
    <path class="st0" d="M54.7,22.5c-.4,0-.7,0-1-.2-.3-.2-.5-.4-.6-.7-.2-.3-.2-.6-.2-1s0-.8.2-1.1.4-.5.6-.7c.3-.2.6-.2.9-.2s.7,0,1,.3c.3.2.5.4.6.7.1.3.2.7.2,1.1h-.6v-.2c0-.5,0-.8-.3-1-.2-.2-.4-.3-.8-.3s-.7.1-.9.4c-.2.2-.3.6-.3,1s0,.8.3,1c.2.2.5.4.8.4s.5,0,.6-.2.3-.3.4-.5l.6.2c-.1.3-.4.6-.7.8-.3.2-.6.3-1,.3ZM53.3,20.7v-.5h2.7v.5h-2.7Z"/>
    <path class="st0" d="M56.7,22.4l1.4-1.9-1.4-1.8h.7l1,1.4,1-1.4h.7l-1.4,1.8,1.4,1.9h-.7l-1-1.4-1,1.4h-.7Z"/>
    <path class="st0" d="M60.9,18v-.6h.6v.6h-.6ZM60.9,22.4v-3.7h.6v3.7h-.6Z"/>
    <path class="st0" d="M64.1,22.5c-.4,0-.7,0-1-.2-.3-.2-.5-.4-.6-.7-.1-.3-.2-.6-.2-1s0-.7.2-1c.1-.3.4-.5.6-.7.3-.2.6-.2.9-.2s.7,0,1,.3c.3.2.5.4.6.7.1.3.2.6.2,1s0,.7-.2,1c-.1.3-.3.5-.6.7-.3.2-.6.2-1,.2ZM64.1,21.9c.4,0,.7-.1.9-.4s.3-.6.3-1,0-.7-.3-1-.5-.4-.9-.4-.5,0-.6.2-.3.3-.4.5-.1.4-.1.7c0,.4,0,.8.3,1,.2.3.5.4.8.4ZM64.3,18.1h-.5l.4-1.1h.5l-.4,1.1Z"/>
    <path class="st0" d="M66.6,22.4v-3.7h.5v1h0v2.7h-.6ZM69.2,22.4v-1.9c0-.2,0-.3,0-.5,0-.2,0-.3-.2-.4,0-.1-.2-.2-.3-.3-.1,0-.3-.1-.5-.1s-.3,0-.4,0c-.1,0-.2.1-.3.2,0,.1-.2.2-.2.4,0,.2,0,.3,0,.6h-.4c0-.5,0-.8.2-1,.1-.3.3-.5.5-.6s.5-.2.8-.2.4,0,.6.1c.2,0,.3.2.4.3.1.1.2.3.3.4,0,.2.1.3.1.5s0,.3,0,.4v2h-.6Z"/>
    <path class="st0" d="M73.7,22.5c-.4,0-.7,0-1-.2-.3-.2-.5-.4-.6-.7-.2-.3-.2-.6-.2-1s0-.8.2-1.1.4-.5.6-.7c.3-.2.6-.2.9-.2s.7,0,1,.3c.3.2.5.4.6.7.1.3.2.7.2,1.1h-.6v-.2c0-.5,0-.8-.3-1-.2-.2-.4-.3-.8-.3s-.7.1-.9.4c-.2.2-.3.6-.3,1s0,.8.3,1c.2.2.5.4.8.4s.5,0,.6-.2.3-.3.4-.5l.6.2c-.1.3-.4.6-.7.8-.3.2-.6.3-1,.3ZM72.4,20.7v-.5h2.7v.5h-2.7Z"/>
    <path class="st0" d="M76.2,22.4v-5h.6v5h-.6Z"/>
    <path class="st0" d="M79.5,22.5c-.4,0-.7,0-1-.2-.3-.2-.5-.4-.6-.7-.2-.3-.2-.6-.2-1s0-.8.2-1.1.4-.5.6-.7c.3-.2.6-.2.9-.2s.7,0,1,.3c.3.2.5.4.6.7.1.3.2.7.2,1.1h-.6v-.2c0-.5,0-.8-.3-1-.2-.2-.4-.3-.8-.3s-.7.1-.9.4c-.2.2-.3.6-.3,1s0,.8.3,1c.2.2.5.4.8.4s.5,0,.6-.2.3-.3.4-.5l.6.2c-.1.3-.4.6-.7.8-.3.2-.6.3-1,.3ZM78.1,20.7v-.5h2.7v.5h-2.7ZM79.8,18.1h-.5l.4-1.1h.5l-.4,1.1Z"/>
    <path class="st0" d="M83.5,22.5c-.4,0-.7,0-1-.3s-.5-.4-.6-.7c-.1-.3-.2-.6-.2-1,0-.4,0-.7.2-1s.3-.5.6-.7c.3-.2.6-.2.9-.2s.7,0,1,.3c.3.2.5.5.6.8l-.6.2c0-.2-.2-.4-.4-.5-.2-.1-.4-.2-.6-.2s-.5,0-.6.2c-.2.1-.3.3-.4.5s-.1.4-.1.7c0,.4,0,.7.3,1,.2.3.5.4.8.4s.4,0,.6-.2c.2-.1.3-.3.4-.5l.6.2c-.1.3-.3.6-.6.8-.3.2-.6.3-1,.3Z"/>
    <path class="st0" d="M85.4,19.2v-.5h2.5v.5h-2.5ZM87.8,22.4c-.2,0-.4,0-.7,0-.2,0-.4,0-.6-.1-.2,0-.3-.2-.4-.4,0-.1-.1-.3-.1-.4s0-.3,0-.5v-3.3h.6v3.3c0,.2,0,.3,0,.4,0,.1,0,.2,0,.3,0,.1.2.2.4.3.2,0,.4,0,.7,0v.5Z"/>
    <path class="st0" d="M88.6,22.4v-3.7h.5v.9h0c0-.2,0-.3.2-.4,0,0,.1-.2.2-.2,0,0,.2-.1.3-.2.1,0,.2,0,.4,0,.1,0,.2,0,.4,0v.6c-.1,0-.3,0-.4,0-.2,0-.3,0-.4.2-.1,0-.2.2-.3.3,0,.1-.1.2-.1.4,0,.1,0,.3,0,.4v1.9h-.6Z"/>
    <path class="st0" d="M91.2,18v-.6h.6v.6h-.6ZM91.2,22.4v-3.7h.6v3.7h-.6Z"/>
    <path class="st0" d="M94.4,22.5c-.4,0-.7,0-1-.3s-.5-.4-.6-.7c-.1-.3-.2-.6-.2-1,0-.4,0-.7.2-1s.3-.5.6-.7c.3-.2.6-.2.9-.2s.7,0,1,.3c.3.2.5.5.6.8l-.6.2c0-.2-.2-.4-.4-.5-.2-.1-.4-.2-.6-.2s-.5,0-.6.2c-.2.1-.3.3-.4.5s-.1.4-.1.7c0,.4,0,.7.3,1,.2.3.5.4.8.4s.4,0,.6-.2c.2-.1.3-.3.4-.5l.6.2c-.1.3-.3.6-.6.8-.3.2-.6.3-1,.3Z"/>
    <path class="st0" d="M97.8,22.5c-.3,0-.5,0-.7-.2-.2-.1-.3-.2-.4-.4,0-.2-.1-.4-.1-.5s0-.4.1-.5c0-.1.2-.3.3-.4.1,0,.3-.2.5-.2.2,0,.4,0,.6-.1.2,0,.4,0,.7,0,.2,0,.4,0,.6,0h-.2c0-.2,0-.4-.2-.6-.1-.2-.4-.2-.7-.2s-.4,0-.6.2c-.2.1-.3.3-.4.5l-.6-.2c0-.3.3-.6.5-.8.3-.2.6-.3,1-.3s.6,0,.9.2.4.3.5.5c0,.1,0,.2,0,.4s0,.3,0,.4v2.3h-.5v-.9h.1c-.1.4-.3.6-.6.8-.3.2-.6.2-.9.2ZM97.9,22c.2,0,.4,0,.6-.1s.3-.2.4-.3c0-.1.2-.3.2-.4,0-.1,0-.2,0-.4,0-.1,0-.2,0-.3h.2c-.2.1-.4.1-.6.2-.2,0-.4,0-.5,0-.2,0-.3,0-.5,0-.1,0-.2,0-.3.1,0,0-.2.1-.2.2,0,0,0,.2,0,.3s0,.2,0,.3c0,0,.1.2.2.2.1,0,.3,0,.4,0Z"/>
  </g>
  <g class="st1">
    <path class="st0" d="M33.2,16.2v8.7c0,.1-.4.6-.5.6h-1.3v-10.9c0,0-6.9-6.3-6.9-6.3l-7.1,6.3v9.2h5c0,0,.4.2.5.3.4.5.2,1.3-.5,1.4-1.9-.2-4.1.2-5.9,0s-.6-.4-.6-.5v-8.9c-.1,0-.1,0-.2.1-.5.4-.8,1-1.5.9s-.9-.8-.5-1.3l9.8-8.9c.6-.5,1.1-1,1.9-.4,2.9,2.7,5.9,5.3,8.9,8s1.4,1.3,1.5,1.6c.1.7-.3,1.1-1,1.1s-.8-.7-1.3-.9Z"/>
    <path class="st0" d="M23.5,15.6h2v-2.7c0-.3.5-.5.7-.5.5,0,.8.3.9.7,0,.8,0,1.7,0,2.5h1.5s.2.2.3.3c.2.3.1,1,.1,1.3-.1,2.2-1.4,4-3.6,4.3,0,.7.4,1.6,1,1.9s.5.3.6.3h4.5v1.7h-4.4c-.4,0-1.2-.3-1.6-.5-1.2-.7-1.7-2-1.8-3.4-2-.3-3.3-2-3.5-4s0-1.2,0-1.5.3-.5.4-.5h1.4v-2.7s.2-.3.2-.3c.4-.3,1.3-.1,1.3.3v2.7Z"/>
  </g>
</svg>