<?xml version="1.0" encoding="UTF-8"?>
<svg id="Capa_1" xmlns="http://www.w3.org/2000/svg" version="1.1" viewBox="0 0 500 100">
  <!-- Generator: Adobe Illustrator 29.6.1, SVG Export Plug-In . SVG Version: 2.1.1 Build 9)  -->
  <defs>
    <style>
      .st0 {
        fill-rule: evenodd;
      }

      .st0, .st1 {
        fill: #fff;
      }
    </style>
  </defs>
  <polygon class="st0" points="183.5 11.5 172 11.5 152.4 33.6 132.9 11.5 121.4 11.5 109.9 11.5 103 11.5 103 91.6 121.4 91.6 121.4 24.4 141 46.6 152.4 59.6 163.9 46.6 183.5 24.4 183.5 91.6 201.9 91.6 201.9 11.5 195 11.5 183.5 11.5 183.5 11.5"/>
  <path class="st0" d="M261.1,11.5h-7.4c-21.8,0-39.5,17.9-39.5,40.1s17.7,40.1,39.5,40.1h7.4c21.8,0,39.5-17.9,39.5-40.1s-17.7-40.1-39.5-40.1h0ZM259.8,75.7h-5c-12.5,0-22.6-10.9-22.6-24.2s10.1-24.2,22.6-24.2h5c12.5,0,22.6,10.9,22.6,24.2s-10.1,24.2-22.6,24.2h0Z"/>
  <g>
    <path class="st1" d="M371.6,59.2h-40.7v-15.4h40.7c4.6,0,8.3-3.7,8.3-8.3s-3.7-8.3-8.3-8.3h-37.6c-4.6,0-8.3,3.7-8.3,8.3h-15.4c0-13,10.7-23.7,23.7-23.7h37.6c13,0,23.7,10.7,23.7,23.7s-10.7,23.7-23.7,23.7Z"/>
    <path class="st1" d="M371.6,91.1h-37.6c-13,0-23.7-10.7-23.7-23.7h15.4c0,4.6,3.7,8.3,8.3,8.3h37.6c4.6,0,8.3-3.7,8.3-8.3s-3.7-8.3-8.3-8.3h-40.7v-15.4h40.7c13,0,23.7,10.7,23.7,23.7s-10.7,23.7-23.7,23.7Z"/>
  </g>
</svg>