<?xml version="1.0" encoding="UTF-8"?>
<svg id="Capa_1" xmlns="http://www.w3.org/2000/svg" version="1.1" viewBox="0 0 500 100">
  <!-- Generator: Adobe Illustrator 29.6.1, SVG Export Plug-In . SVG Version: 2.1.1 Build 9)  -->
  <defs>
    <style>
      .st0 {
        fill: #fff;
      }
    </style>
  </defs>
  <path class="st0" d="M52.7,73.8V17.1h24.4c.7,0,1.5,0,2.2.3,3.1.5,5.6,1.5,7.7,3.2s3.6,3.7,4.7,6.2c1.1,2.5,1.5,5.2,1.5,8.2s-.5,5.7-1.6,8.3c-1.1,2.5-2.6,4.6-4.7,6.2s-4.6,2.6-7.6,3.2c-.7,0-1.5.2-2.2.3h-17.4v20.9h-7ZM59.7,46.2h16.8c.6,0,1.3-.2,1.8-.3,1.8-.5,3.3-1.2,4.4-2.3s2-2.5,2.5-3.9c.5-1.5.8-3.1.8-4.6s-.3-3.1-.8-4.6-1.4-2.8-2.5-3.9-2.6-1.9-4.4-2.3c-.5,0-1.2-.2-1.8-.3s-1.2,0-1.7,0h-15.1v22.4s0-.2,0-.2Z"/>
  <path class="st0" d="M119.2,75c-4.2,0-7.8-.9-10.9-2.7s-5.6-4.5-7.3-7.7-2.6-7.2-2.6-11.7.8-8.6,2.5-12,4.1-6,7.1-7.8,6.6-2.7,10.7-2.7,7.9,1,10.9,2.9c3,2,5.3,4.7,6.7,8.5s2.2,8,1.9,13h-7.1v-2.5c0-5.2-1.2-9.1-3.2-11.7-2-2.5-5.1-3.9-9.1-3.9s-7.6,1.4-9.8,4.2c-2.3,2.8-3.4,6.7-3.4,11.9s1.1,8.9,3.4,11.7,5.5,4.1,9.6,4.1,5.3-.6,7.3-1.9,3.7-3.1,4.9-5.6l6.7,2.3c-1.6,3.7-4.1,6.6-7.5,8.7-3.3,2.1-7,3.1-11.2,3.1h.2l.2-.2ZM103.4,54.5v-5.6h31.4v5.6h-31.4Z"/>
  <path class="st0" d="M163.2,74.9c-5.1,0-9.2-1.1-12.5-3.4-3.3-2.2-5.2-5.3-5.9-9.3l7.2-1.2c.5,2.3,1.9,4.1,4,5.5s4.6,2,7.7,2,5.2-.6,6.8-1.8,2.5-2.8,2.5-4.9-.3-2.2-.8-2.9-1.7-1.5-3.4-2.1-4.3-1.5-7.7-2.4c-3.7-1-6.7-2-8.8-3.1s-3.6-2.3-4.6-3.7-1.4-3.2-1.4-5.2.6-4.6,2-6.6c1.4-1.8,3.3-3.3,5.7-4.4s5.3-1.5,8.6-1.5,6.1.5,8.6,1.5,4.6,2.5,6.2,4.4c1.5,1.9,2.5,4.1,2.7,6.6l-7.2,1.3c-.4-2.3-1.5-4-3.3-5.4s-4.3-2-7.1-2.1c-2.7,0-5,.5-6.7,1.5s-2.5,2.5-2.5,4.4.4,1.9,1,2.6c.6.7,1.8,1.4,3.6,2.1,1.7.6,4.3,1.4,7.6,2.3,3.7.9,6.7,2,8.8,3.1s3.7,2.5,4.6,3.9,1.4,3.4,1.4,5.6c0,4.1-1.5,7.3-4.6,9.6s-7.2,3.6-12.5,3.6h0Z"/>
  <path class="st0" d="M205.6,75c-4,0-7.4-1-10.2-2.9-2.8-2-5-4.6-6.6-8s-2.3-7.2-2.3-11.5.7-8.1,2.3-11.5c1.5-3.4,3.7-6,6.6-8,2.8-1.9,6.2-2.9,10.1-2.9s7.4,1,10.1,2.9,4.8,4.6,6.2,8,2.1,7.2,2.1,11.5-.7,8.1-2.1,11.5c-1.4,3.4-3.5,6.1-6.2,8s-6.1,3-10.1,3h0ZM206.1,93.9c-2.2,0-4.4-.4-6.6-1-2.1-.6-4.1-1.7-5.8-3.1s-3.3-3.1-4.5-5.2l6.4-3.4c1.1,2.1,2.5,3.6,4.5,4.6,1.9.9,3.9,1.5,5.9,1.5s4.9-.5,6.7-1.5c1.7-1,3.1-2.5,3.9-4.4s1.3-4.4,1.3-7.3v-11.7h.8v-31.1h6.2v46.2c0,1.1-.2,2.1-.5,3.2-.5,3-1.6,5.5-3.3,7.5-1.6,1.9-3.7,3.4-6.3,4.4-2.5,1-5.6,1.5-8.9,1.5h.2v-.2ZM206.5,68.6c2.8,0,5.2-.7,7-2.1s3.2-3.3,4.1-5.7,1.3-5.2,1.3-8.3-.5-5.9-1.4-8.3c-.9-2.5-2.3-4.3-4-5.6-1.8-1.4-4.1-2-6.8-2s-5.3.7-7.1,2.1c-1.9,1.5-3.3,3.4-4.2,5.7s-1.4,5.1-1.4,8.1.5,5.7,1.4,8.2c.9,2.5,2.3,4.4,4.2,5.7,1.8,1.5,4.2,2.1,6.9,2.1h0Z"/>
  <path class="st0" d="M254.3,75c-4.2,0-7.8-1-10.9-2.9s-5.4-4.6-7.1-7.9c-1.6-3.4-2.5-7.3-2.5-11.7s.8-8.4,2.5-11.7c1.6-3.4,4-6,7.1-7.8,3.1-1.9,6.6-2.8,10.8-2.8s7.9,1,11,2.9,5.5,4.6,7.1,7.9,2.5,7.2,2.5,11.6-.8,8.4-2.5,11.7c-1.6,3.4-4,6-7.1,7.9s-6.7,2.8-10.9,2.8h0ZM254.3,68.4c4.4,0,7.6-1.5,9.8-4.4s3.3-6.7,3.3-11.4-1.1-8.6-3.3-11.5c-2.2-2.8-5.5-4.3-9.8-4.3s-5.4.6-7.3,2-3.4,3.2-4.3,5.6-1.5,5.1-1.5,8.2c0,4.7,1.1,8.6,3.3,11.5s5.5,4.4,9.7,4.4h.1Z"/>
  <path class="st0" d="M299.1,73.8V17.1h24.4c.7,0,1.5,0,2.2.3,3.1.5,5.6,1.5,7.7,3.2s3.6,3.7,4.7,6.2c1.1,2.5,1.5,5.2,1.5,8.2s-.5,5.7-1.6,8.3c-1.1,2.5-2.6,4.6-4.7,6.2-2.1,1.6-4.6,2.6-7.6,3.2l-2.2.3h-17.4v20.9h-7ZM306.1,46.2h16.8c.6,0,1.3-.2,1.8-.3,1.8-.5,3.3-1.2,4.4-2.3s2-2.5,2.5-3.9c.5-1.5.8-3.1.8-4.6s-.3-3.1-.8-4.6-1.4-2.8-2.5-3.9-2.6-1.9-4.4-2.3c-.5,0-1.2-.2-1.8-.3s-1.2,0-1.7,0h-15.1v22.4-.2h0Z"/>
  <path class="st0" d="M348.4,73.8V16h7v57.8h-7Z"/>
  <path class="st0" d="M383.2,74.9c-2.7,0-5.1-.5-7-1.3s-3.6-2-4.8-3.5c-1.3-1.5-2.3-3-3-4.8-.7-1.7-1.3-3.6-1.5-5.4-.3-1.8-.5-3.6-.5-5.2v-23.5h7.1v21.3c0,2,.2,3.9.5,5.8.4,1.8,1,3.6,1.9,5s2.1,2.6,3.6,3.6,3.4,1.3,5.6,1.3,3.4-.3,4.7-.9,2.6-1.5,3.6-2.7,1.8-2.7,2.4-4.6.8-4,.8-6.4l4.6,1.5c0,4.1-.7,7.6-2.2,10.6s-3.6,5.3-6.3,6.8-5.8,2.4-9.5,2.4h0ZM397.4,73.8v-11.4h-.8v-31.1h7v42.5h-6.3,0Z"/>
  <path class="st0" d="M430.8,74.9c-5.1,0-9.2-1.1-12.5-3.4-3.3-2.2-5.2-5.3-5.9-9.3l7.2-1.2c.5,2.3,1.9,4.1,4,5.5s4.6,2,7.7,2,5.2-.6,6.8-1.8,2.5-2.8,2.5-4.9-.3-2.2-.8-2.9-1.7-1.5-3.4-2.1-4.3-1.5-7.7-2.4c-3.7-1-6.7-2-8.8-3.1s-3.6-2.3-4.6-3.7-1.4-3.2-1.4-5.2.6-4.6,2-6.6c1.4-1.8,3.3-3.3,5.7-4.4s5.3-1.5,8.6-1.5,6.1.5,8.6,1.5,4.6,2.5,6.2,4.4c1.5,1.9,2.5,4.1,2.7,6.6l-7.2,1.3c-.4-2.3-1.5-4-3.3-5.4s-4.3-2-7.1-2.1c-2.7,0-5,.5-6.7,1.5s-2.5,2.5-2.5,4.4.4,1.9,1,2.6c.6.7,1.8,1.4,3.6,2.1,1.7.6,4.3,1.4,7.6,2.3,3.7.9,6.7,2,8.8,3.1s3.7,2.5,4.6,3.9,1.4,3.4,1.4,5.6c0,4.1-1.5,7.3-4.6,9.6s-7.2,3.6-12.5,3.6h0Z"/>
</svg>