<?xml version="1.0" encoding="UTF-8"?>
<svg id="Capa_1" xmlns="http://www.w3.org/2000/svg" version="1.1" viewBox="0 0 500 100">
  <!-- Generator: Adobe Illustrator 30.0.0, SVG Export Plug-In . SVG Version: 2.1.1 Build 123)  -->
  <defs>
    <style>
      .st0 {
        fill: #f6f6f6;
      }

      .st1 {
        fill: #fff;
      }
    </style>
  </defs>
  <g id="pYaiRT.tif">
    <g>
      <path class="st1" d="M299.2,10.8c6.6-.7,11.1-.4,17.4,1,42.4,9.3,29.1,69.5-10.7,74.4-63.5,7.9-58.3-69.7-6.7-75.3ZM314.5,34.6c-5.5-6.2-18.2-4.8-23.9.9-13.3,13.6-5,38.7,16.4,29.4,9.7-4.3,14.1-22.8,7.5-30.3Z"/>
      <path class="st1" d="M138.9,11.7l-4.7,24.9c1.3,1.7,26.1-24.9,27.9-24.9h26.7l-35.3,33.7,23.4,39.7h-28.5l-13.1-23.7c-9.8,4.8-9.1,14-10.7,23.7h-25L115.7,11.7h23.2Z"/>
      <path class="st1" d="M218.6,11.7l-4.7,26,27.9-26h27.9l-35.8,32.7,22.7,40.7h-26.7l-15.5-23.7c-8.5,5.7-7.8,14.7-10.1,23.7h-23.8l14.3-73.4h23.8Z"/>
      <path class="st1" d="M56.9,11.7c1.7,1.6-8.4,38.7-8.4,45.5,0,12.3,17.1,13.4,22-.6,4.7-13.5,5.3-30.9,8.9-45h23.8c-1.9,13.5-4,28.6-7.5,41.7-5,18.7-13.9,31.4-34.7,33C9.5,90.2,25.2,47,31.9,14.7l1.8-3h23.2Z"/>
      <path class="st1" d="M438.4,34.1c-5.6-2.2-30.4-9.2-31.9-.4-.8,4.5,20.9,8,25.7,10.9,11.5,6.8,11.8,19.6,4.4,29.7-12.4,16.8-46.3,13.9-63.5,6l8.3-18.9c6.2,1.8,11.8,5.2,18.4,5.9,3.1.3,16.6,1.1,17-2.9s-17.7-7.6-22.2-9.6c-14.1-6.4-16.9-20.1-7.8-32.3,10.6-14.3,44.9-15.5,58.7-5.2l-7.1,16.9Z"/>
    </g>
  </g>
  <path class="st0" d="M479.4,31.1v12.5h12.1v12.2h-12.1v12.3h-12.8v-12.3h-12.1v-12.2h12.1v-12.5h12.8Z"/>
</svg>