<?xml version="1.0" encoding="UTF-8"?>
<svg id="Capa_1" xmlns="http://www.w3.org/2000/svg" version="1.1" viewBox="0 0 500 100">
  <!-- Generator: Adobe Illustrator 29.6.1, SVG Export Plug-In . SVG Version: 2.1.1 Build 9)  -->
  <defs>
    <style>
      .st0 {
        fill-rule: evenodd;
      }

      .st0, .st1 {
        fill: #fff;
      }
    </style>
  </defs>
  <polygon class="st0" points="90.5 18.5 79 18.5 59.4 40.6 39.9 18.5 28.4 18.5 16.9 18.5 10 18.5 10 98.6 28.4 98.6 28.4 31.4 48 53.6 59.4 66.6 70.9 53.6 90.5 31.4 90.5 98.6 108.9 98.6 108.9 18.5 102 18.5 90.5 18.5 90.5 18.5"/>
  <path class="st0" d="M168.1,18.5h-7.4c-21.8,0-39.5,17.9-39.5,40.1s17.7,40.1,39.5,40.1h7.4c21.8,0,39.5-17.9,39.5-40.1s-17.7-40.1-39.5-40.1h0ZM166.8,82.7h-5c-12.5,0-22.6-10.9-22.6-24.2s10.1-24.2,22.6-24.2h5c12.5,0,22.6,10.9,22.6,24.2s-10.1,24.2-22.6,24.2h0Z"/>
  <g>
    <path class="st1" d="M278.6,66.2h-40.7v-15.4h40.7c4.6,0,8.3-3.7,8.3-8.3s-3.7-8.3-8.3-8.3h-37.6c-4.6,0-8.3,3.7-8.3,8.3h-15.4c0-13,10.7-23.7,23.7-23.7h37.6c13,0,23.7,10.7,23.7,23.7s-10.7,23.7-23.7,23.7Z"/>
    <path class="st1" d="M278.6,98.1h-37.6c-13,0-23.7-10.7-23.7-23.7h15.4c0,4.6,3.7,8.3,8.3,8.3h37.6c4.6,0,8.3-3.7,8.3-8.3s-3.7-8.3-8.3-8.3h-40.7v-15.4h40.7c13,0,23.7,10.7,23.7,23.7s-10.7,23.7-23.7,23.7Z"/>
  </g>
  <g>
    <path class="st0" d="M63.6,3.9h-2c-2.4,0-4.4,2-4.4,4.5s2,4.5,4.4,4.5h2c2.4,0,4.4-2,4.4-4.5s-2-4.5-4.4-4.5ZM63.5,11.1h-1.8c-1.4,0-2.5-1.2-2.5-2.7s1.1-2.7,2.5-2.7h1.8c1.4,0,2.5,1.2,2.5,2.7s-1.1,2.7-2.5,2.7Z"/>
    <path class="st0" d="M38.5,3.9h-2c-2.4,0-4.4,2-4.4,4.5s2,4.5,4.4,4.5h2c2.4,0,4.4-2,4.4-4.5,0-2.5-2-4.5-4.4-4.5ZM38.4,11.1h-1.8c-1.4,0-2.5-1.2-2.5-2.7s1.1-2.7,2.5-2.7h1.8c1.4,0,2.5,1.2,2.5,2.7s-1.1,2.7-2.5,2.7Z"/>
    <path class="st0" d="M30.5,6.9c0-1.7-1.7-3.1-3.7-3.1h-5v1.8h5c.9,0,1.7.6,1.7,1.3s-.8,1.3-1.7,1.3h0s-5,0-5,0v1.8h3.9l2.9,2.9h2.6l-3.1-3.1c1.4-.4,2.3-1.5,2.3-2.8h0Z"/>
    <polygon class="st0" points="53.5 3.9 52.2 3.9 50 6.4 47.8 3.9 46.5 3.9 45.3 3.9 44.5 3.9 44.5 12.9 46.5 12.9 46.5 5.3 48.7 7.8 50 9.3 51.3 7.8 53.5 5.3 53.5 12.9 55.6 12.9 55.6 3.9 54.8 3.9 53.5 3.9 53.5 3.9"/>
    <polygon class="st0" points="79.1 3.9 75.6 8.4 79.1 12.9 76.8 12.9 74 9.3 73.2 9.3 70.3 12.9 68 12.9 71.6 8.4 68 3.9 70.3 3.9 73.2 7.5 74 7.5 76.8 3.9 79.1 3.9 79.1 3.9"/>
    <polygon class="st0" points="14.1 3.9 10 3.9 10 5.7 14.1 5.7 14.1 12.9 16.1 12.9 16.1 5.7 20.2 5.7 20.2 3.9 16.1 3.9 14.1 3.9 14.1 3.9"/>
  </g>
</svg>