<?xml version="1.0" encoding="UTF-8"?>
<svg id="Capa_1" xmlns="http://www.w3.org/2000/svg" version="1.1" viewBox="0 0 500 100">
  <!-- Generator: Adobe Illustrator 29.6.1, SVG Export Plug-In . SVG Version: 2.1.1 Build 9)  -->
  <defs>
    <style>
      .st0 {
        fill-rule: evenodd;
      }

      .st0, .st1 {
        fill: #fff;
      }
    </style>
  </defs>
  <path class="st1" d="M6.7,85.4V24.7h3.4l25.8,56.4,25.5-56.4h3.5v60.6h-3.5v-52.1l-23.6,52.2h-4L10.2,33.2v52.2h-3.5Z"/>
  <path class="st1" d="M98.5,86.6c-6,0-11.1-1.4-15.1-4-4-2.7-7.1-6.4-9.1-11.2-2-4.7-3-10.2-3-16.4s1-11.6,3-16.4c2-4.7,5-8.5,9.1-11.2,4-2.7,9.1-4,15.1-4s12.8,1.8,17.1,5.5c4.3,3.7,7.2,8.6,8.8,14.8l-3.7.8c-1.4-5.4-3.9-9.6-7.6-12.8-3.7-3.2-8.6-4.8-14.6-4.8s-9.5,1.2-13,3.6c-3.4,2.4-6,5.7-7.8,9.9-1.7,4.2-2.6,9.1-2.7,14.6,0,5.5.8,10.3,2.5,14.5,1.7,4.2,4.4,7.5,7.9,9.9s7.8,3.6,13,3.6,10.9-1.6,14.6-4.8c3.7-3.2,6.2-7.5,7.6-12.8l3.7.8c-1.5,6.2-4.4,11.1-8.8,14.8-4.3,3.7-10,5.5-17.1,5.5h0Z"/>
  <path class="st1" d="M142.1,85.4V28.8l-11.5,6.8v-4.1l11.5-6.8h3.5v60.7s-3.5,0-3.5,0Z"/>
  <path class="st1" d="M178.1,86.6c-3.4,0-6.5-.8-9.3-2.5s-5-3.9-6.7-6.7c-1.7-2.8-2.5-5.9-2.5-9.3v-26.3c0-3.4.8-6.5,2.5-9.3s3.9-5,6.7-6.7,5.9-2.5,9.3-2.5,6.5.8,9.3,2.5,5,3.9,6.7,6.7c1.7,2.8,2.5,5.9,2.5,9.3v26.3c0,3.4-.8,6.5-2.5,9.3-1.7,2.8-3.9,5-6.7,6.7s-5.9,2.5-9.3,2.5ZM178.1,83.1c2.7,0,5.2-.7,7.5-2,2.3-1.4,4.1-3.2,5.4-5.4s2-4.8,2-7.5v-26.3c0-2.7-.7-5.2-2-7.5s-3.2-4.1-5.4-5.4c-2.3-1.3-4.8-2-7.5-2s-5.2.7-7.5,2c-2.3,1.4-4.1,3.2-5.4,5.4s-2,4.8-2,7.5v26.3c0,2.7.7,5.2,2,7.5s3.2,4.1,5.4,5.4c2.3,1.3,4.8,2,7.5,2Z"/>
  <path class="st1" d="M241.3,86.6c-4.1,0-7.8-.7-11.1-2s-6-3.2-8.1-5.7c-2.2-2.4-3.6-5.3-4.3-8.7l3.5-.7c1.1,4.2,3.4,7.4,7,9.9,3.6,2.4,7.9,3.6,13,3.6s6.6-.6,9.3-1.7,4.7-2.7,6.2-4.7,2.2-4.4,2.2-7.1-.4-3.8-1.1-5.1-1.7-2.5-2.9-3.4c-1.2-.9-2.4-1.5-3.6-2-1.3-.5-2.4-.9-3.4-1.2l-15.2-4.6c-2.2-.6-4.1-1.4-5.7-2.4-1.6-.9-2.9-2-3.9-3.2s-1.8-2.5-2.3-3.9-.7-2.9-.7-4.5c0-3.1.8-5.8,2.5-8.2,1.7-2.4,4-4.3,7-5.6s6.4-2,10.3-2,7.5.7,10.7,2.2c3.1,1.5,5.7,3.5,7.7,6.2,2,2.7,3.3,5.8,3.8,9.3l-3.5.7c-.4-2.9-1.4-5.5-3.1-7.8-1.7-2.2-3.9-4-6.5-5.2s-5.7-1.9-9-1.9-6,.5-8.4,1.6-4.3,2.6-5.6,4.4c-1.4,1.9-2,3.9-2,6.2s.7,4.3,2,5.8c1.3,1.4,2.9,2.6,4.8,3.4s3.7,1.5,5.4,2l12.6,3.8c1.1.3,2.4.8,3.9,1.4,1.5.6,3.1,1.5,4.6,2.6,1.5,1.1,2.8,2.6,3.8,4.4,1,1.8,1.5,4.2,1.5,6.9s-.5,5-1.5,7.1-2.4,3.9-4.3,5.4-4.1,2.6-6.7,3.4-5.5,1.2-8.7,1.2h-.2Z"/>
  <path class="st1" d="M263.6,43.4v-3.5h28.6v3.5h-28.6ZM292.2,85.4c-2.3.5-4.5.7-6.7.6s-4.2-.7-5.9-1.6-3-2.4-3.9-4.3c-.7-1.5-1.1-3-1.1-4.5s-.1-3.3-.1-5.2V27.2h3.5v47.9c0,1.2.3,2.3.9,3.4,1,2,2.6,3.3,4.8,3.7s5.1.4,8.6-.2v3.4h0Z"/>
  <path class="st1" d="M298.5,85.4v-45.5h3.3v10.9l-1.1-1.4c.5-1.2,1.1-2.4,1.8-3.5.7-1.1,1.4-1.9,2.2-2.6,1.2-1.2,2.7-2.1,4.4-2.8,1.7-.6,3.4-1,5.1-1.1,1.7,0,3.2,0,4.6.5v3.4c-1.9-.4-3.9-.5-6-.2s-4.1,1.2-5.9,2.9c-1.6,1.5-2.7,3.2-3.4,5.1-.7,1.9-1.1,3.9-1.2,6s-.2,4-.2,5.9v22.4h-3.6Z"/>
  <path class="st1" d="M342.2,86.6c-4.3,0-8-1-11.1-2.9s-5.5-4.7-7.2-8.3c-1.7-3.6-2.5-7.9-2.5-12.8s.8-9.3,2.5-12.9,4.1-6.4,7.2-8.3,6.8-2.9,11.1-2.9,8.1,1,11.2,2.9c3.1,2,5.5,4.8,7.1,8.6s2.5,8.2,2.5,13.5h-3.8v-1.2c-.2-6.5-1.7-11.6-4.6-15.1s-7-5.2-12.3-5.2-9.6,1.8-12.6,5.4c-3,3.6-4.5,8.6-4.5,15.1s1.5,11.5,4.5,15.1,7.2,5.4,12.6,5.4,7.1-.9,9.9-2.7c2.8-1.8,5.1-4.3,6.8-7.6l2.9,1.7c-1.9,3.9-4.5,6.9-7.9,9s-7.3,3.2-11.8,3.2h0ZM323.6,63.6v-3.5h37.1v3.5h-37.1Z"/>
  <path class="st1" d="M388.4,86.6c-4.3,0-8-1-11.1-2.9s-5.5-4.7-7.2-8.3c-1.7-3.6-2.5-7.9-2.5-12.8s.8-9.3,2.5-12.9,4.1-6.4,7.2-8.3,6.8-2.9,11.1-2.9,8.1,1,11.2,2.9c3.1,2,5.5,4.8,7.1,8.6s2.5,8.2,2.5,13.5h-3.8v-1.2c-.2-6.5-1.7-11.6-4.6-15.1s-7-5.2-12.3-5.2-9.6,1.8-12.6,5.4c-3,3.6-4.5,8.6-4.5,15.1s1.5,11.5,4.5,15.1,7.2,5.4,12.6,5.4,7.1-.9,9.9-2.7c2.8-1.8,5.1-4.3,6.8-7.6l2.9,1.7c-1.9,3.9-4.5,6.9-7.9,9s-7.3,3.2-11.8,3.2h0ZM369.9,63.6v-3.5h37.1v3.5h-37.1Z"/>
  <path class="st1" d="M411.4,43.4v-3.5h28.6v3.5h-28.6ZM439.9,85.4c-2.3.5-4.5.7-6.7.6s-4.2-.7-5.9-1.6-3-2.4-3.9-4.3c-.7-1.5-1.1-3-1.1-4.5s-.1-3.3-.1-5.2V27.2h3.5v47.9c0,1.2.3,2.3.9,3.4,1,2,2.6,3.3,4.8,3.7s5.1.4,8.6-.2v3.4h0Z"/>
  <path class="st1" d="M441.3,85.4l21.3-30.8-20.8-29.9h4.2l18.5,27.1,18.6-27.1h4.2l-20.8,29.9,21.3,30.8h-4.2l-19.1-27.8-19.1,27.8h-4.2.1Z"/>
  <g>
    <path class="st0" d="M63,10.5h-2.1c-2.6,0-4.7,2.1-4.7,4.7s2.1,4.7,4.7,4.7h2.1c2.6,0,4.7-2.1,4.7-4.7s-2.1-4.7-4.7-4.7ZM62.8,18.1h-1.8c-1.5,0-2.7-1.3-2.7-2.8s1.2-2.8,2.7-2.8h1.8c1.5,0,2.7,1.3,2.7,2.8s-1.2,2.8-2.7,2.8Z"/>
    <path class="st0" d="M36.6,10.5h-2.1c-2.6,0-4.7,2.1-4.7,4.7s2.1,4.7,4.7,4.7h2.1c2.6,0,4.7-2.1,4.7-4.7,0-2.6-2.1-4.7-4.7-4.7ZM36.5,18.1h-1.8c-1.5,0-2.7-1.3-2.7-2.8s1.2-2.8,2.7-2.8h1.8c1.5,0,2.7,1.3,2.7,2.8s-1.2,2.8-2.7,2.8Z"/>
    <path class="st0" d="M28.2,13.7c0-1.8-1.7-3.2-3.9-3.2h-5.3v1.9h5.3c1,0,1.7.6,1.7,1.3s-.8,1.3-1.8,1.3h0s-5.2,0-5.2,0v1.9h4.1l3.1,3h2.8l-3.3-3.2c1.4-.5,2.5-1.6,2.5-3h0Z"/>
    <polygon class="st0" points="52.4 10.5 51 10.5 48.7 13.1 46.5 10.5 45.1 10.5 43.7 10.5 42.9 10.5 42.9 20 45.1 20 45.1 12 47.4 14.7 48.7 16.2 50.1 14.7 52.4 12 52.4 20 54.6 20 54.6 10.5 53.8 10.5 52.4 10.5 52.4 10.5"/>
    <polygon class="st0" points="79.3 10.5 75.6 15.2 79.3 20 76.9 20 73.9 16.2 73.1 16.2 70.1 20 67.7 20 71.4 15.2 67.7 10.5 70.1 10.5 73.1 14.3 73.9 14.3 76.9 10.5 79.3 10.5 79.3 10.5"/>
    <polygon class="st0" points="11 10.5 6.7 10.5 6.7 12.4 11 12.4 11 20 13.2 20 13.2 12.4 17.4 12.4 17.4 10.5 13.2 10.5 11 10.5 11 10.5"/>
  </g>
</svg>