<?xml version="1.0" encoding="UTF-8"?>
<svg id="Capa_1" xmlns="http://www.w3.org/2000/svg" version="1.1" viewBox="0 0 200 200">
  <!-- Generator: Adobe Illustrator 29.6.0, SVG Export Plug-In . SVG Version: 2.1.1 Build 207)  -->
  <defs>
    <style>
      .st0 {
        font-family: HyundaiSansHeadKRLight, 'HyundaiSans Head KR';
        font-size: 12px;
      }

      .st0, .st1 {
        fill: #fff;
      }
    </style>
  </defs>
  <path class="st1" d="M195.5,58.3c-7.3-5.8-15.2-9.6-22.9-12.7,0,0,0,0,0,0l-.3-1.8,3-3.1-5.1-4.8-.4.4c-3-2.4-7.1-5.3-12-7.4-1.5-.7-3.1-1.5-5.3-2.2h-.3c0-.1-.2.2-.2.2,0,0-.1.2-.2.3-4.5-1.7-9.8-3.5-16.2-5-25.6-6-46.4-6-72,0-6,1.4-11.1,3-15.4,4.7l-.2-.2h-.3q-2.6,1-6.2,2.4l-.5.2.2.3c-3.4,1.5-7.5,3.7-11.2,6.6l-.2-.2-5,4.9,2.6,2.8-.3,2.1s0,.1,0,.2c-7.3,3-15.4,6.9-22.6,12.6l-.3.2,3.7,5.8.3-.2c5.5-2.7,11.4-5.1,18.1-7.4-.3,17.3,2.5,51.7,25.7,85.5,16.9,24.6,40.2,38.7,46.3,39.9l1.6.3,1.6-.3c6-1.2,29.4-15.3,46.3-39.9,23.2-33.9,26-68.3,25.7-85.6,4.3,1.6,8.6,3.2,13.1,5,1.8.7,3.7,1.4,5.5,2.1h.3c0,.1,3.5-5.3,3.5-5.3l-.3-.2ZM95.9,139l6.3-15,20.2-15.9-18.1,27.7h3.4s-13.6,16.5-13.6,16.5l5.8-13.5h-4ZM102.9,163.5c12.9-28.1,25.5-55.8,38.2-83.4-.1,0-.2-.1-.3-.2-13.5,14-27.1,27.9-40.8,42-13.7-14.2-27.3-28.1-40.8-42.1,0,0-.2.1-.3.2,12.8,27.9,25.6,55.8,38.5,84.1-1.5-.8-3.4-1.9-5.5-3.4-7.7-5.6-18.2-14.8-26.8-27.3-20-29.1-22.9-59.3-22.8-74.8,10.2,10.5,20.4,21.1,30.6,31.6,8.3,8.5,16.5,17,24.8,25.6.4.4.7,1,1,1.5.1.2.3.5.4.7l.3.4.4-.4c.9-.8,1.7-1.6,2.5-2.3,1.5-1.4,2.8-2.7,4.1-4,20.3-20.9,36.4-37.5,51.3-52.9,0,15.6-3,45.6-22.8,74.5-6,8.8-13.1,16-19.4,21.5-5,4-9.3,6.9-12.4,8.7ZM132.5,41.9c2.7.6,5.1,1.3,7.4,2-4.7,6.8-9.4,13.5-14,20.1-8.3,12-16.9,24.4-25.9,37.3-9-12.9-17.6-25.3-25.8-37.2-4.6-6.6-9.2-13.4-14-20.2,2.2-.7,4.5-1.3,7.1-1.9,16.9-3.9,36.5-6.7,65.2,0Z"/>
  <text class="st0" transform="translate(162.3 117)"><tspan x="0" y="0">®</tspan></text>
</svg>