<?xml version="1.0" encoding="UTF-8"?>
<svg id="Capa_1" xmlns="http://www.w3.org/2000/svg" version="1.1" viewBox="0 0 602 188">
  <!-- Generator: Adobe Illustrator 29.6.1, SVG Export Plug-In . SVG Version: 2.1.1 Build 9)  -->
  <defs>
    <style>
      .st0 {
        fill-rule: evenodd;
      }

      .st0, .st1 {
        fill: #fff;
      }
    </style>
  </defs>
  <g>
    <g>
      <path class="st1" d="M53.5,148l-15.6,35.9h-8.2l-15.6-35.9h10.7l9.1,24,9.1-24h10.7-.2Z"/>
      <path class="st1" d="M55.7,166c0-10.9,8.1-19,19.8-19s19.8,8.1,19.8,19-8.1,18.9-19.8,18.9-19.8-8.1-19.8-18.9ZM84.9,166c0-6.1-4-10.5-9.4-10.5s-9.4,4.4-9.4,10.5,3.9,10.4,9.4,10.4,9.4-4.4,9.4-10.4Z"/>
      <path class="st1" d="M102.6,130.9h10v52.9h-10v-52.9Z"/>
      <path class="st1" d="M144.4,155.6h-8.9v28.2h-10v-28.2h-5.4v-7.6h5.4v-10.3h10v10.3h8.9v7.6Z"/>
      <path class="st1" d="M150.8,136.9c0-3.1,2.6-5.7,5.8-5.7s5.9,2.6,5.9,5.7-2.6,5.7-5.9,5.7-5.8-2.6-5.8-5.7ZM151.8,148h10v35.9h-10v-35.9Z"/>
      <path class="st1" d="M196,183.8l-13.9-16.1v16.1h-10v-52.9h10v30.1l11.9-13.1h12.8l-15.9,16.3,18,19.5h-12.9Z"/>
      <path class="st1" d="M249.1,148v35.9h-8.3l-1.2-4.4c-2.6,3.1-6.5,5.2-11.8,5.2-9.3,0-16.6-6.9-16.6-18.7s7.3-18.8,16.6-18.8,9.2,2.2,11.9,5.4l1.2-4.4h8.2v-.2ZM239.8,165.9c0-6.1-3.8-10.3-9.3-10.3s-9.1,4.2-9.1,10.3,3.7,10.3,9.1,10.3,9.3-4.2,9.3-10.3Z"/>
    </g>
    <path class="st1" d="M205.8,30.9c-5.5-4.4-11.5-7.2-17.3-9.7h0l-.2-1.4,2.2-2.4-3.8-3.7-.3.3c-2.2-1.8-5.4-4-9.1-5.6-1.1-.6-2.3-1.1-4-1.7h-.3c0,0,0,.2-.1.3-3.4-1.3-7.4-2.6-12.3-3.7-19.3-4.5-35.1-4.5-54.4,0-4.5,1.1-8.4,2.3-11.7,3.5v-.2h-.3c-1.3.5-2.9,1.1-4.7,1.8l-.4.2.2.2c-2.6,1.1-5.7,2.8-8.5,5l-.2-.2-3.8,3.7,2,2.1-.2,1.6h0c-5.5,2.4-11.7,5.3-17.1,9.7l-.2.2,2.8,4.4h.3c4.1-2.2,8.6-4,13.7-5.7-.3,13.1,1.9,39.1,19.4,64.7,12.8,18.6,30.5,29.3,35,30.2l1.2.2,1.2-.2c4.6-.9,22.3-11.6,35-30.2,17.6-25.6,19.7-51.7,19.4-64.8,3.3,1.2,6.5,2.5,9.9,3.8,1.4.5,2.8,1.1,4.2,1.6h.2l2.6-4-.2-.2-.2.2ZM130.5,92l4.8-11.3,15.3-12-13.7,20.9h2.6l-10.3,12.5,4.4-10.2h-3.1ZM135.8,110.5c9.7-21.3,19.3-42.2,28.9-63.1,0,0-.2,0-.2,0-10.2,10.6-20.5,21.1-30.8,31.8-10.4-10.7-20.6-21.3-30.9-31.8,0,0,0,0-.2.2,9.7,21.1,19.3,42.2,29.1,63.6-1.2-.7-2.8-1.6-4.6-2.8-5.8-4.3-13.6-11.2-19.9-20.4-15.1-22-17.3-44.9-17.3-56.6,7.7,8,15.4,15.9,23.1,23.9,6.2,6.4,12.5,12.9,18.7,19.4.3.3.6.8.8,1.2,0,.2.2.4.3.5l.2.3.3-.3c.7-.6,1.3-1.2,1.9-1.8,1.1-1.1,2.1-2,3.1-3,15.4-15.8,27.5-28.4,38.8-40,0,11.8-2.3,34.5-17.3,56.4-4.6,6.6-9.9,12.1-14.6,16.2-3.8,3-7.1,5.2-9.4,6.6v-.2ZM158.2,18.5c2,.5,3.9,1,5.6,1.5-3.6,5.2-7.1,10.2-10.6,15.2-6.3,9.1-12.8,18.4-19.6,28.2-6.8-9.7-13.3-19.1-19.5-28.2-3.5-5-7-10.1-10.6-15.3,1.7-.5,3.4-1,5.4-1.4,12.8-3,27.6-5.1,49.3,0Z"/>
  </g>
  <path class="st0" d="M490,26.9c-.9-.3-1.9-.5-2.9-.7-.3,0-.6-.1-.9-.2-.6-.1-1.2-.3-1.8-.4-.4,0-.9-.2-1.3-.3-.4,0-.7-.2-1.1-.2-1.6-.3-3.2-.6-4.9-.9h0c-2.3-.4-4.7-.8-7.2-1l-22.5,19.1-22.5-19.1c-2.4.3-4.8.7-7.2,1.1h0c-1.8.3-3.5.6-5.3,1-.2,0-.4,0-.6.1-.6.1-1.1.2-1.6.4-.5.1-.9.2-1.4.3-.4,0-.8.2-1.3.3-.7.2-1.4.3-2.1.5-.2,0-.4.1-.7.2t0,0h0c-4,1.1-7.8,2.3-11.3,3.6,1.2,15.4,5,32.3,11.7,49.3,7.8,19.9,18.4,37,30,49.9-6.3-15.4-11.5-34.4-14.7-55.2-1.6-10.2-2.5-20.1-2.9-29.5l29.7,41.6,29.7-41.6c-.4,9.4-1.4,19.3-2.9,29.5-3.2,20.8-8.4,39.8-14.6,55.2,11.6-12.9,22.2-30,30-49.9,6.7-17,10.5-33.9,11.7-49.3-3.5-1.4-7.3-2.6-11.3-3.6h0ZM524.4,146.9h-8.3c-9.9,0-17.9,8.1-17.9,18.2s8,18.2,17.9,18.2h8.3c9.9,0,18-8.1,18-18.2s-8-18.2-18-18.2h0ZM523.9,176.1h-7.1c-5.7,0-10.2-4.9-10.2-11s4.6-11,10.2-11h7.1c5.7,0,10.2,4.9,10.2,11s-4.6,11-10.2,11h0ZM422.8,146.9h-8.3c-9.9,0-17.9,8.1-17.9,18.2s8,18.2,17.9,18.2h8.3c9.9,0,18-8.1,18-18.2,0-10-8-18.2-18-18.2h0ZM422.2,176.1h-7.1c-5.7,0-10.2-4.9-10.2-11s4.6-11,10.2-11h7.1c5.7,0,10.2,4.9,10.2,11s-4.6,11-10.2,11h0ZM390.2,159.3c0-6.8-6.7-12.4-15-12.4h-20.3v7.3h20.3c3.7,0,6.7,2.3,6.7,5.1s-3.1,5.1-6.9,5.1h0s-20.1,0-20.1,0v7.3h15.9l11.8,11.6h10.7l-12.7-12.5c5.6-1.8,9.5-6.3,9.5-11.5h0ZM483.6,146.9h-5.3l-8.9,10-8.9-10h-13.6v36.4h8.4v-30.5l8.9,10.1,5.2,5.9,5.2-5.9,8.9-10.1v30.5h8.4v-36.4h-8.4ZM587.3,146.9l-14.4,18.2,14.4,18.2h-9.4l-11.5-14.5h-3.2l-11.5,14.5h-9.4l14.4-18.2-14.4-18.2h9.4l11.5,14.6h3.2l11.5-14.6h9.4ZM323.8,146.9h-16.5v7.3h16.5v29.1h8.4v-29.1h16.5v-7.3h-24.9ZM501.3,12.7c.3,4,.3,8.1.2,12.3-14.7-5.5-33.4-8.7-54.1-8.7s-39.4,3.2-54.1,8.7c-.2-4.2-.1-8.4.2-12.3,16.1-5.3,35.1-8,54-8s37.8,2.7,53.9,8Z"/>
</svg>