<?xml version="1.0" encoding="UTF-8"?>
<svg id="Capa_1" xmlns="http://www.w3.org/2000/svg" version="1.1" viewBox="0 0 111.3 22.2">
  <!-- Generator: Adobe Illustrator 29.5.1, SVG Export Plug-In . SVG Version: 2.1.0 Build 141)  -->
  <defs>
    <style>
      .st0 {
        fill: #fff;
      }
    </style>
  </defs>
  <path class="st0" d="M24,7.2l-6.1,14.1h-3.2l-6.1-14.1h4.2l3.6,9.4,3.6-9.4h4.2Z"/>
  <path class="st0" d="M24.9,14.3c0-4.3,3.2-7.4,7.7-7.4s7.7,3.2,7.7,7.4-3.2,7.4-7.7,7.4-7.7-3.2-7.7-7.4ZM36.3,14.3c0-2.4-1.6-4.1-3.7-4.1s-3.7,1.7-3.7,4.1,1.5,4.1,3.7,4.1,3.7-1.7,3.7-4.1Z"/>
  <path class="st0" d="M43.3.5h3.9v20.7h-3.9V.5Z"/>
  <path class="st0" d="M59.6,10.2h-3.5v11.1h-3.9v-11.1h-2.1v-3h2.1V3.1h3.9v4.1h3.5v3Z"/>
  <path class="st0" d="M62.2,2.8c0-1.2,1-2.2,2.3-2.2s2.3,1,2.3,2.2-1,2.2-2.3,2.2-2.3-1-2.3-2.2ZM62.5,7.2h3.9v14.1h-3.9V7.2Z"/>
  <path class="st0" d="M79.8,21.3l-5.5-6.3v6.3h-3.9V.5h3.9v11.8l4.7-5.1h5l-6.2,6.4,7,7.7h-5Z"/>
  <path class="st0" d="M100.7,7.2v14.1h-3.3l-.5-1.7c-1,1.2-2.6,2-4.6,2-3.7,0-6.5-2.7-6.5-7.3s2.9-7.4,6.5-7.4,3.6.9,4.7,2.1l.5-1.7h3.2ZM97,14.2c0-2.4-1.5-4.1-3.7-4.1s-3.6,1.6-3.6,4.1,1.5,4,3.6,4,3.7-1.6,3.7-4Z"/>
</svg>