<?xml version="1.0" encoding="UTF-8"?>
<svg id="Capa_1" xmlns="http://www.w3.org/2000/svg" version="1.1" viewBox="0 0 111.3 22.2">
  <!-- Generator: Adobe Illustrator 29.5.1, SVG Export Plug-In . SVG Version: 2.1.0 Build 141)  -->
  <defs>
    <style>
      .st0 {
        fill: #303030;
      }
    </style>
  </defs>
  <path class="st0" d="M23.2,7.4l-6.3,14.3h-3.3L7.4,7.4h4.3l3.6,9.6,3.6-9.6h4.3Z"/>
  <path class="st0" d="M24.1,14.6c0-4.4,3.2-7.6,7.9-7.6s7.9,3.2,7.9,7.6-3.2,7.6-7.9,7.6-7.9-3.2-7.9-7.6ZM35.8,14.6c0-2.4-1.6-4.2-3.8-4.2s-3.8,1.8-3.8,4.2,1.6,4.2,3.8,4.2,3.8-1.7,3.8-4.2Z"/>
  <path class="st0" d="M42.9.6h4v21.2h-4V.6Z"/>
  <path class="st0" d="M59.6,10.5h-3.5v11.3h-4v-11.3h-2.2v-3h2.2V3.3h4v4.1h3.5v3Z"/>
  <path class="st0" d="M62.2,3c0-1.2,1.1-2.3,2.3-2.3s2.4,1,2.4,2.3-1.1,2.3-2.4,2.3-2.3-1-2.3-2.3ZM62.5,7.4h4v14.3h-4V7.4Z"/>
  <path class="st0" d="M80.2,21.8l-5.6-6.4v6.4h-4V.6h4v12l4.8-5.2h5.1l-6.3,6.5,7.2,7.8h-5.1Z"/>
  <path class="st0" d="M101.4,7.4v14.3h-3.3l-.5-1.8c-1.1,1.2-2.6,2.1-4.7,2.1-3.7,0-6.7-2.8-6.7-7.5s2.9-7.5,6.7-7.5,3.7.9,4.8,2.1l.5-1.8h3.3ZM97.7,14.6c0-2.5-1.5-4.1-3.7-4.1s-3.6,1.7-3.6,4.1,1.5,4.1,3.6,4.1,3.7-1.7,3.7-4.1Z"/>
</svg>