<?xml version="1.0" encoding="UTF-8"?>
<svg id="Capa_1" xmlns="http://www.w3.org/2000/svg" version="1.1" viewBox="0 0 500 100">
  <!-- Generator: Adobe Illustrator 29.6.1, SVG Export Plug-In . SVG Version: 2.1.1 Build 9)  -->
  <defs>
    <style>
      .st0 {
        fill: #e30613;
      }
    </style>
  </defs>
  <g>
    <path class="st0" d="M103.3,61.7v-20.6h6.6c.2,0,.5,0,1,0,.5,0,1,0,1.5.1,1.6.2,3,.8,4.1,1.7,1.1,1,2,2.2,2.6,3.6.6,1.5.9,3.1.9,4.8s-.3,3.4-.9,4.8c-.6,1.5-1.4,2.7-2.6,3.6-1.1,1-2.5,1.5-4.1,1.7-.5,0-1,0-1.5,0-.5,0-.9,0-1,0h-6.6ZM106.8,58.4h3.1c.3,0,.7,0,1.1,0,.4,0,.8,0,1.2-.1,1-.2,1.8-.6,2.4-1.3.6-.7,1.1-1.5,1.4-2.5.3-1,.4-2,.4-3.1s-.1-2.2-.4-3.2c-.3-1-.8-1.8-1.4-2.5-.6-.7-1.4-1.1-2.4-1.3-.3,0-.7-.1-1.2-.1-.4,0-.8,0-1.1,0h-3.1v14.1Z"/>
    <path class="st0" d="M130.2,62.1c-1.5,0-2.9-.3-4.1-1-1.2-.7-2.1-1.7-2.7-2.9-.6-1.2-1-2.6-1-4.2s.3-3,1-4.3c.6-1.2,1.6-2.2,2.7-2.9,1.2-.7,2.5-1,4-1s2.9.3,4.1,1,2.1,1.7,2.7,2.9,1,2.6,1,4.2-.3,3-1,4.2-1.5,2.2-2.7,2.9c-1.2.7-2.5,1-4.1,1ZM130.2,58.9c1.4,0,2.4-.5,3.1-1.4.7-.9,1-2.1,1-3.6s-.3-2.7-1-3.6c-.7-.9-1.7-1.3-3.1-1.3s-1.7.2-2.3.6c-.6.4-1,1-1.3,1.7-.3.7-.4,1.6-.4,2.6,0,1.5.3,2.7,1,3.6.7.9,1.7,1.3,3,1.3Z"/>
    <path class="st0" d="M141.1,61.7v-20.6h3.5v9.8h-.4v10.9h-3.1ZM148.5,62.1c-1.5,0-2.8-.4-3.8-1.1-1-.7-1.8-1.7-2.3-2.9s-.8-2.6-.8-4.2.3-3,.8-4.2c.5-1.2,1.3-2.2,2.3-2.9s2.2-1.1,3.7-1.1,2.7.4,3.8,1.1c1.1.7,1.9,1.7,2.5,2.9.6,1.2.9,2.6.9,4.2s-.3,2.9-.9,4.2c-.6,1.2-1.4,2.2-2.5,2.9-1.1.7-2.3,1.1-3.7,1.1ZM148,59c.9,0,1.6-.2,2.2-.7s1-1.1,1.3-1.8c.3-.8.4-1.6.4-2.6s-.1-1.8-.4-2.6c-.3-.8-.7-1.4-1.3-1.8-.6-.5-1.4-.7-2.3-.7s-1.6.2-2.1.6c-.6.4-1,1-1.2,1.8-.3.8-.4,1.6-.4,2.7s.1,1.9.4,2.6c.3.8.7,1.4,1.2,1.8.6.4,1.3.6,2.2.6Z"/>
    <path class="st0" d="M159,61.7v-21.1h3.5v21.1h-3.5Z"/>
    <path class="st0" d="M173.8,62.1c-1.6,0-2.9-.3-4.1-1-1.2-.7-2.1-1.6-2.8-2.8s-1-2.6-1-4.2.3-3.2,1-4.4,1.6-2.2,2.7-2.9c1.2-.7,2.5-1,4-1s3,.4,4.1,1.1c1.1.7,2,1.8,2.5,3.2.5,1.4.7,3,.6,4.8h-3.4v-1.3c0-1.7-.3-2.9-.9-3.7s-1.5-1.2-2.7-1.2-2.5.4-3.2,1.3c-.7.9-1,2.1-1,3.8s.3,2.8,1,3.6,1.7,1.3,3,1.3,1.6-.2,2.2-.6c.6-.4,1.1-.9,1.4-1.6l3.4,1c-.6,1.4-1.5,2.5-2.7,3.3-1.2.8-2.6,1.2-4.1,1.2ZM168.5,54.9v-2.6h10.6v2.6h-10.6Z"/>
    <path class="st0" d="M189.7,61.7v-20.6h8.5c.2,0,.5,0,.8,0,.3,0,.6,0,.9,0,1.2.2,2.2.6,3,1.2.8.6,1.4,1.4,1.7,2.3.4.9.6,2,.6,3.1s-.2,2.2-.6,3.1c-.4.9-1,1.7-1.7,2.3-.8.6-1.8,1-2.9,1.2-.3,0-.6,0-.9,0-.3,0-.6,0-.8,0h-5.1v7.2h-3.5ZM193.2,51.3h4.9c.2,0,.4,0,.6,0,.2,0,.5,0,.7-.1.6-.1,1-.4,1.4-.8.3-.4.6-.8.7-1.2.1-.5.2-.9.2-1.3s0-.9-.2-1.4c-.1-.5-.4-.9-.7-1.2-.3-.4-.8-.6-1.4-.8-.2,0-.4,0-.7-.1-.2,0-.5,0-.6,0h-4.9v7Z"/>
    <path class="st0" d="M208,61.7v-15.5h3.1v3.8l-.4-.5c.2-.5.4-1,.8-1.4s.7-.8,1.2-1.1c.4-.3.8-.5,1.3-.6.5-.1.9-.2,1.4-.3.5,0,1,0,1.4,0v3.2c-.5-.1-1-.2-1.6-.1-.6,0-1.1.2-1.6.5-.5.3-.9.6-1.2,1-.3.4-.5.9-.7,1.4-.1.5-.2,1.1-.2,1.7v7.9h-3.5Z"/>
    <path class="st0" d="M226,62.1c-1.5,0-2.9-.3-4.1-1-1.2-.7-2.1-1.7-2.7-2.9-.6-1.2-1-2.6-1-4.2s.3-3,1-4.3c.6-1.2,1.6-2.2,2.7-2.9,1.2-.7,2.5-1,4-1s2.9.3,4.1,1,2.1,1.7,2.7,2.9,1,2.6,1,4.2-.3,3-1,4.2-1.5,2.2-2.7,2.9c-1.2.7-2.5,1-4.1,1ZM226,58.9c1.4,0,2.4-.5,3.1-1.4.7-.9,1-2.1,1-3.6s-.3-2.7-1-3.6c-.7-.9-1.7-1.3-3.1-1.3s-1.7.2-2.3.6c-.6.4-1,1-1.3,1.7-.3.7-.4,1.6-.4,2.6,0,1.5.3,2.7,1,3.6.7.9,1.7,1.3,3,1.3Z"/>
    <path class="st0" d="M236.9,68.6v-22.3h3.1v10.9h.4v11.5h-3.5ZM244.3,62.1c-1.5,0-2.8-.4-3.8-1.1-1-.7-1.8-1.7-2.3-2.9s-.8-2.6-.8-4.2.3-3,.8-4.2c.5-1.2,1.3-2.2,2.3-2.9s2.2-1.1,3.7-1.1,2.7.4,3.8,1.1,1.9,1.7,2.5,2.9c.6,1.2.9,2.6.9,4.2s-.3,2.9-.9,4.2c-.6,1.2-1.4,2.2-2.5,2.9-1.1.7-2.3,1.1-3.7,1.1ZM243.8,59c.9,0,1.6-.2,2.2-.7s1-1.1,1.3-1.8c.3-.8.4-1.6.4-2.6s-.1-1.8-.4-2.6c-.3-.8-.7-1.4-1.3-1.8-.6-.5-1.4-.7-2.3-.7s-1.6.2-2.1.6c-.6.4-1,1-1.2,1.8-.3.8-.4,1.6-.4,2.7s.1,1.9.4,2.6c.3.8.7,1.4,1.2,1.8.6.4,1.3.6,2.2.6Z"/>
    <path class="st0" d="M261.4,62.1c-1.5,0-2.9-.3-4.1-1-1.2-.7-2-1.7-2.7-2.9-.6-1.2-1-2.6-1-4.2s.3-3,1-4.3c.6-1.2,1.6-2.2,2.7-2.9s2.5-1,4-1,2.9.3,4.1,1c1.2.7,2.1,1.7,2.7,2.9s1,2.6,1,4.2-.3,3-1,4.2-1.5,2.2-2.7,2.9c-1.2.7-2.5,1-4.1,1ZM261.4,58.9c1.4,0,2.4-.5,3.1-1.4.7-.9,1-2.1,1-3.6s-.3-2.7-1-3.6c-.7-.9-1.7-1.3-3-1.3s-1.7.2-2.3.6c-.6.4-1,1-1.3,1.7-.3.7-.4,1.6-.4,2.6,0,1.5.3,2.7,1,3.6.7.9,1.7,1.3,3,1.3ZM262.7,44h-2.6l2.2-5.3h2.6l-2.2,5.3Z"/>
    <path class="st0" d="M277.8,62.1c-1.9,0-3.5-.4-4.7-1.3s-1.9-2.1-2.2-3.6l3.5-.5c.2.8.6,1.4,1.2,1.8.6.4,1.4.7,2.3.7s1.5-.2,1.9-.5c.5-.3.7-.8.7-1.4s0-.6-.3-.9-.5-.4-1.1-.6c-.6-.2-1.4-.5-2.6-.8-1.3-.3-2.3-.7-3.1-1.1-.8-.4-1.3-.9-1.6-1.4-.3-.5-.5-1.2-.5-2s.3-1.8.8-2.5c.5-.7,1.2-1.3,2.1-1.7s2-.6,3.2-.6,2.3.2,3.2.6c.9.4,1.7.9,2.3,1.6s.9,1.5,1.1,2.4l-3.5.6c0-.7-.4-1.2-.9-1.6s-1.2-.6-2-.6c-.8,0-1.5,0-2,.4-.5.3-.7.7-.7,1.2s.1.5.3.8c.2.2.6.4,1.2.6s1.5.5,2.7.8c1.2.3,2.2.7,3,1.1.7.4,1.3.9,1.6,1.5.3.6.5,1.2.5,2,0,1.6-.6,2.8-1.7,3.7-1.1.9-2.7,1.3-4.7,1.3Z"/>
    <path class="st0" d="M287.7,43.9v-3.2h3.5v3.2h-3.5ZM287.7,61.7v-15.5h3.5v15.5h-3.5Z"/>
    <path class="st0" d="M293.7,48.9v-2.7h10.8v2.7h-10.8ZM304.5,61.7c-1,.2-2,.3-3,.3-1,0-1.9-.2-2.6-.5s-1.4-.9-1.8-1.6c-.4-.7-.5-1.4-.6-2,0-.7,0-1.5,0-2.4v-13.4h3.4v13.2c0,.6,0,1.2,0,1.6,0,.5.1.8.3,1.1.3.6.9.9,1.6,1,.8,0,1.6,0,2.6-.1v2.9Z"/>
    <path class="st0" d="M313.9,62.1c-1.5,0-2.9-.3-4.1-1-1.2-.7-2-1.7-2.7-2.9-.6-1.2-1-2.6-1-4.2s.3-3,1-4.3c.6-1.2,1.6-2.2,2.7-2.9s2.5-1,4-1,2.9.3,4.1,1c1.2.7,2.1,1.7,2.7,2.9s1,2.6,1,4.2-.3,3-1,4.2-1.5,2.2-2.7,2.9c-1.2.7-2.5,1-4.1,1ZM313.9,58.9c1.4,0,2.4-.5,3.1-1.4.7-.9,1-2.1,1-3.6s-.3-2.7-1-3.6c-.7-.9-1.7-1.3-3-1.3s-1.7.2-2.3.6c-.6.4-1,1-1.3,1.7-.3.7-.4,1.6-.4,2.6,0,1.5.3,2.7,1,3.6.7.9,1.7,1.3,3,1.3Z"/>
    <path class="st0" d="M337.3,62.1c-1.1,0-2.2-.2-3.2-.5s-1.9-.9-2.5-1.6c-.5-.6-.9-1.3-1.2-2s-.4-1.5-.4-2.3c0-.8.1-1.6.4-2.3.2-.7.6-1.4,1.1-2,.2-.2.4-.4.6-.6.2-.2.5-.3.7-.5-.6-.6-1-1.2-1.3-1.8s-.4-1.3-.4-2.1c0-1.2.3-2.3,1-3.2s1.5-1.6,2.6-2.1c.5-.2,1-.3,1.5-.4s1-.1,1.5-.1c.9,0,1.8.1,2.6.4.8.3,1.5.7,2.1,1.3.4.4.7.8.9,1.2.2.4.4.9.6,1.4l-3.4.7c-.1-.4-.4-.8-.7-1.1-.3-.3-.6-.5-1-.6-.4,0-.8-.1-1.2-.1-.6,0-1.2.1-1.6.3-.5.2-.8.5-1,.9-.2.4-.3.8-.3,1.4s0,.9.3,1.1c.2.3.4.6.7.9.2.2.4.4.6.6s.5.5.8.7l5.2,4.8c0-.2,0-.4,0-.6v-3.2h3v3.7c0,.5,0,1,0,1.5,0,.5,0,.9-.2,1.2l2.6,2.3-2.2,2.4-2-1.9c-.5.5-1,.8-1.6,1.1-.6.3-1.2.5-1.8.6-.4.1-.8.2-1.2.2-.4,0-.8,0-1.2,0ZM337.4,58.8c.3,0,.6,0,.8,0,.3,0,.5,0,.8-.2.4-.1.7-.2.9-.4.3-.1.5-.3.7-.4l-5.5-5c-.3,0-.5.2-.7.4-.2.1-.4.3-.5.5-.2.2-.3.5-.4.8,0,.3-.2.7-.2,1.1,0,.4,0,.8.2,1.2s.3.6.5.9c.3.4.8.8,1.5.9.6.2,1.3.3,1.8.3Z"/>
    <path class="st0" d="M355.3,61.7v-20.6h8.5c.2,0,.5,0,.8,0,.3,0,.6,0,.9,0,1.2.2,2.2.6,3,1.2.8.6,1.4,1.4,1.7,2.3.4.9.6,2,.6,3.1s-.2,2.2-.6,3.1c-.4.9-1,1.7-1.7,2.3-.8.6-1.8,1-2.9,1.2-.3,0-.6,0-.9,0-.3,0-.6,0-.8,0h-5.1v7.2h-3.5ZM358.8,51.3h4.9c.2,0,.4,0,.6,0,.2,0,.5,0,.7-.1.6-.1,1-.4,1.4-.8.3-.4.6-.8.7-1.2.1-.5.2-.9.2-1.3s0-.9-.2-1.4c-.1-.5-.4-.9-.7-1.2-.3-.4-.8-.6-1.4-.8-.2,0-.4,0-.7-.1-.2,0-.5,0-.6,0h-4.9v7Z"/>
    <path class="st0" d="M373.6,61.7v-15.5h3.1v3.8l-.4-.5c.2-.5.4-1,.8-1.4.3-.4.7-.8,1.2-1.1.4-.3.8-.5,1.3-.6.5-.1.9-.2,1.4-.3.5,0,1,0,1.4,0v3.2c-.5-.1-1-.2-1.6-.1s-1.1.2-1.6.5c-.5.3-.9.6-1.2,1-.3.4-.5.9-.7,1.4-.1.5-.2,1.1-.2,1.7v7.9h-3.5Z"/>
    <path class="st0" d="M391.8,62.1c-1.6,0-2.9-.3-4.1-1s-2.1-1.6-2.8-2.8c-.7-1.2-1-2.6-1-4.2s.3-3.2,1-4.4c.6-1.2,1.6-2.2,2.7-2.9s2.5-1,4-1,3,.4,4.1,1.1c1.1.7,2,1.8,2.5,3.2.5,1.4.7,3,.6,4.8h-3.4v-1.3c0-1.7-.3-2.9-.9-3.7s-1.5-1.2-2.8-1.2-2.5.4-3.2,1.3c-.7.9-1,2.1-1,3.8s.3,2.8,1,3.6,1.7,1.3,3,1.3,1.6-.2,2.2-.6c.6-.4,1.1-.9,1.4-1.6l3.4,1c-.6,1.4-1.5,2.5-2.7,3.3s-2.6,1.2-4.1,1.2ZM386.5,54.9v-2.6h10.6v2.6h-10.6Z"/>
    <path class="st0" d="M401.6,61.7v-15.5h3.1v4.8h.4v10.7h-3.5ZM410.9,61.7v-9.4c0-1.1-.3-1.9-.8-2.5-.5-.6-1.2-.9-2.1-.9s-1.6.3-2.1.9c-.5.6-.8,1.4-.8,2.3l-1.5-1c0-1,.2-1.9.7-2.7.5-.8,1.2-1.4,2-1.9.8-.5,1.8-.7,2.8-.7s2.1.2,2.9.7c.8.5,1.4,1.2,1.7,2,.4.8.6,1.8.6,2.9v10.3h-3.4ZM420.2,61.7v-9.4c0-1.1-.3-1.9-.8-2.5-.5-.6-1.2-.9-2.1-.9s-1.1.1-1.5.4c-.4.3-.8.6-1,1.1s-.4,1.1-.4,1.8l-1.5-.9c0-1.1.2-2,.7-2.8.5-.8,1.2-1.5,2-1.9.8-.5,1.8-.7,2.8-.7,1.7,0,3,.5,3.9,1.5s1.4,2.4,1.4,4v10.3h-3.5Z"/>
    <path class="st0" d="M427.6,43.9v-3.2h3.5v3.2h-3.5ZM427.6,61.7v-15.5h3.5v15.5h-3.5Z"/>
    <path class="st0" d="M441.2,62.1c-1.1,0-2.1-.2-2.8-.6s-1.3-.9-1.8-1.5c-.4-.6-.8-1.2-1-1.9-.2-.7-.3-1.3-.4-1.9s0-1.1,0-1.5v-8.6h3.5v7.4c0,.5,0,1,.1,1.6,0,.6.2,1.2.5,1.7.2.5.6,1,1.1,1.4s1.1.5,2,.5.9,0,1.3-.2c.4-.1.8-.4,1.2-.7.3-.3.6-.8.8-1.4.2-.6.3-1.4.3-2.3l2,.9c0,1.3-.3,2.5-.8,3.6s-1.3,1.9-2.3,2.6-2.2,1-3.7,1ZM446.2,61.7v-4.8h-.4v-10.7h3.5v15.5h-3Z"/>
    <path class="st0" d="M453.3,61.7v-15.5h3.1v4.8h.4v10.7h-3.5ZM462.6,61.7v-9.4c0-1.1-.3-1.9-.8-2.5-.5-.6-1.2-.9-2.1-.9s-1.6.3-2.1.9c-.5.6-.8,1.4-.8,2.3l-1.5-1c0-1,.2-1.9.7-2.7.5-.8,1.2-1.4,2-1.9.8-.5,1.8-.7,2.8-.7s2.1.2,2.9.7c.8.5,1.4,1.2,1.7,2,.4.8.6,1.8.6,2.9v10.3h-3.4ZM471.9,61.7v-9.4c0-1.1-.3-1.9-.8-2.5-.5-.6-1.2-.9-2.1-.9s-1.1.1-1.5.4c-.4.3-.8.6-1,1.1s-.4,1.1-.4,1.8l-1.5-.9c0-1.1.2-2,.7-2.8.5-.8,1.2-1.5,2-1.9.8-.5,1.8-.7,2.8-.7,1.7,0,3,.5,3.9,1.5s1.4,2.4,1.4,4v10.3h-3.5Z"/>
  </g>
  <g>
    <path class="st0" d="M39.2,24.7h.2s3.8,7.3,3.8,7.3l5.3-7.2,5.1,7.1,4.8-7.6h.3c0-.1,21.1,32.1,21.1,32.1l-19.4-13-12.6,12.9-8.9-15-13,18c.6.1,1.4.1,2,.2,6.1.8,12.4,1.5,18.5,2.3l11.7-6.9,21.1,10.1.2.3-31.2,1.6c.9,0,1.8.2,2.7.3,9.2,1.4,18.4,2.8,27.6,4.3,4.2-6,6.7-13.5,6.7-21.5,0-20.4-16.1-36.9-36-36.9S13.2,29.6,13.2,50s1.2,11,3.4,15.7l22.5-41Z"/>
    <path class="st0" d="M24.4,75.8l34.3-5-16.4-3.9c-7.9.2-15.8.8-23.8,1.2-.2,0-.4,0-.6,0,6.2,11.2,17.9,18.7,31.3,18.7s22.2-5.8,28.7-14.7l-53.6,3.6Z"/>
  </g>
</svg>