<?xml version="1.0" encoding="UTF-8"?>
<svg id="Capa_1" xmlns="http://www.w3.org/2000/svg" version="1.1" viewBox="0 0 500 100">
  <!-- Generator: Adobe Illustrator 29.6.1, SVG Export Plug-In . SVG Version: 2.1.1 Build 9)  -->
  <g>
    <path d="M105.7,88.2h-17.4V24.6s-.2-.1-.3-.2c-9.8,11.1-19.6,22.2-29.5,33.3-9.8-11.1-19.6-22.2-29.6-33.5v64H11.4V11.9h27.3c.8,0,1.4.3,1.9.9,5.6,6.4,11.3,12.9,17,19.3.3.3.5.6.9,1,2.1-2.3,4.1-4.6,6.1-6.8,3.9-4.4,7.8-8.8,11.7-13.3.7-.8,1.4-1,2.4-1h27v76.3h0Z"/>
    <path d="M158.8,88c-5.8.5-11.5,0-16.9-2.2-13.2-5.4-21.3-15.2-23.8-29.2-2.1-12,1-22.8,9-31.9,7.2-8.2,16.4-12.5,27.4-12.8,4.9-.1,9.8-.3,14.7.6,15.2,2.8,27.5,15.2,30.1,30.4,2.3,13.6-1.4,25.5-11.4,35.1-6,5.8-13.3,9.2-21.6,10-2.5.2-5,0-7.6,0h.1ZM158.7,73.1h2.5c5,0,9.4-1.7,13.2-4.9,7.5-6.4,10.3-17.3,6.7-26.5-2.8-7.3-7.8-12.3-15.5-14.1-3.1-.7-6.4-.6-9.7-.6s-7.8,1.2-11.1,3.6c-7.6,5.4-10.8,13-9.9,22.1.8,7.8,4.6,13.9,11.5,17.9,3.8,2.2,7.9,2.8,12.2,2.5h.1Z"/>
  </g>
  <path d="M226.7,28v9.7h47c2.3,0,4.5.4,6.5,1.2s3.8,1.9,5.4,3.3c1.5,1.4,2.7,3,3.6,4.9s1.3,3.9,1.3,6v19.6c0,2.1-.4,4.1-1.3,5.9s-2.1,3.5-3.6,4.9-3.3,2.5-5.4,3.3c-2,.8-4.2,1.2-6.5,1.2h-47.8c-2.3,0-4.5-.4-6.5-1.2-2-.8-3.8-1.9-5.4-3.3-1.5-1.4-2.7-3-3.6-4.9-.9-1.8-1.3-3.8-1.3-5.9v-4.7h17.6v3.8h46.2v-17.8h-61.1c-1.5,0-2.7-1.2-2.7-2.7V14.5c0-1.5,1.2-2.7,2.7-2.7h77.4c.7,0,1.3.6,1.3,1.3v13.6c0,.7-.6,1.3-1.3,1.3h-62.5Z"/>
</svg>