<?xml version="1.0" encoding="UTF-8"?>
<svg id="Capa_1" xmlns="http://www.w3.org/2000/svg" version="1.1" viewBox="0 0 500 100">
  <!-- Generator: Adobe Illustrator 30.1.0, SVG Export Plug-In . SVG Version: 2.1.1 Build 136)  -->
  <g id="pYaiRT.tif">
    <g>
      <path d="M284,17.9c5.6-.6,9.4-.4,14.8.8,36.1,7.9,24.8,59.1-9.1,63.3-54,6.7-49.6-59.3-5.7-64.1ZM297.1,38.1c-4.7-5.3-15.5-4.1-20.3.8-11.3,11.6-4.2,33,14,25,8.3-3.6,12-19.4,6.4-25.8Z"/>
      <path d="M147.6,18.6l-4,21.2c1.1,1.4,22.2-21.2,23.8-21.2h22.8l-30.1,28.7,20,33.8h-24.3l-11.1-20.2c-8.4,4.1-7.8,11.9-9.1,20.2h-21.3l13.7-62.5h19.7Z"/>
      <path d="M215.4,18.6l-4,22.2,23.8-22.2h23.8l-30.4,27.9,19.3,34.6h-22.8l-13.2-20.1c-7.3,4.9-6.6,12.5-8.6,20.1h-20.2l12.1-62.5h20.2Z"/>
      <path d="M77.8,18.6c1.4,1.4-7.2,32.9-7.1,38.8,0,10.5,14.6,11.4,18.7-.5,4-11.5,4.5-26.3,7.6-38.3h20.2c-1.6,11.5-3.4,24.3-6.4,35.5-4.2,15.9-11.8,26.7-29.5,28.1-43.9,3.3-30.5-33.5-24.8-61l1.5-2.5h19.7Z"/>
      <path d="M402.6,37.7c-4.8-1.9-25.9-7.8-27.2-.3-.7,3.8,17.8,6.8,21.9,9.3,9.8,5.8,10.1,16.7,3.8,25.3-10.5,14.3-39.4,11.8-54.1,5.1l7.1-16.1c5.3,1.5,10,4.4,15.7,5,2.7.3,14.2.9,14.4-2.5.3-4.2-15-6.5-18.9-8.2-12-5.4-14.4-17.1-6.6-27.5s38.2-13.2,49.9-4.4l-6.1,14.4Z"/>
    </g>
  </g>
  <path d="M429.3,70.9v-15.3h-15.3v-9.3h15.3v-15.3h9.3v15.3h15.3v9.3h-15.3v15.3h-9.3Z"/>
</svg>