<?xml version="1.0" encoding="UTF-8"?>
<svg id="Capa_1" xmlns="http://www.w3.org/2000/svg" version="1.1" viewBox="0 0 500 100">
  <!-- Generator: Adobe Illustrator 29.6.1, SVG Export Plug-In . SVG Version: 2.1.1 Build 9)  -->
  <path d="M20.2,70V7.7h24.6c.6,0,1.3,0,2.2,0,.8,0,1.6.1,2.4.3,3.4.5,6.2,1.7,8.5,3.5s4,4.1,5.2,6.8c1.2,2.7,1.7,5.7,1.7,9s-.6,6.3-1.8,9.1c-1.2,2.7-2.9,5-5.2,6.8-2.3,1.8-5.1,2.9-8.4,3.5-.8.1-1.6.2-2.4.3-.8,0-1.6,0-2.2,0h-16.9v23h-7.7ZM27.9,39.7h16.6c.5,0,1.2,0,1.9,0s1.4-.2,2-.3c2-.5,3.6-1.3,4.8-2.5,1.2-1.2,2.2-2.7,2.7-4.3.6-1.7.9-3.4.9-5.1s-.3-3.4-.9-5.1c-.6-1.7-1.5-3.1-2.7-4.3-1.2-1.2-2.9-2.1-4.8-2.5-.6-.1-1.3-.2-2-.3s-1.3,0-1.9,0h-16.6v24.6Z"/>
  <path d="M93.2,71.3c-4.6,0-8.6-1-12-3s-6.1-4.9-8-8.5-2.9-7.9-2.9-12.8.9-9.5,2.8-13.2c1.9-3.7,4.5-6.6,7.8-8.6s7.3-3,11.8-3,8.7,1.1,12,3.2c3.3,2.2,5.8,5.2,7.4,9.3s2.4,8.8,2.1,14.3h-7.8v-2.8c0-5.7-1.3-10-3.5-12.9-2.2-2.8-5.6-4.3-10-4.3s-8.4,1.5-10.8,4.6c-2.5,3.1-3.7,7.4-3.7,13.1s1.2,9.8,3.7,12.8c2.5,3,6,4.5,10.6,4.5s5.8-.7,8-2.1,4.1-3.4,5.4-6.1l7.4,2.5c-1.8,4.1-4.5,7.3-8.2,9.6-3.6,2.3-7.7,3.4-12.3,3.4ZM75.9,48.8v-6.2h34.5v6.2h-34.5Z"/>
  <path d="M141.6,71.2c-5.6,0-10.1-1.2-13.7-3.7-3.6-2.4-5.7-5.8-6.5-10.2l7.9-1.3c.6,2.5,2.1,4.5,4.4,6,2.3,1.5,5.1,2.2,8.5,2.2s5.7-.7,7.5-2c1.8-1.3,2.7-3.1,2.7-5.4s-.3-2.4-.9-3.2c-.6-.8-1.9-1.6-3.7-2.3s-4.7-1.6-8.5-2.6c-4.1-1.1-7.4-2.2-9.7-3.4s-4-2.5-5.1-4.1-1.5-3.5-1.5-5.7.7-5.1,2.2-7.2c1.5-2,3.6-3.6,6.3-4.8s5.8-1.7,9.4-1.7,6.7.6,9.5,1.7,5.1,2.7,6.8,4.8c1.7,2.1,2.7,4.5,3,7.2l-7.9,1.4c-.4-2.5-1.6-4.4-3.6-5.9-2-1.5-4.7-2.2-7.8-2.3-3,0-5.5.5-7.4,1.6s-2.8,2.8-2.8,4.8.4,2.1,1.1,2.9c.7.8,2,1.5,3.9,2.3,1.9.7,4.7,1.5,8.4,2.5,4.1,1,7.4,2.2,9.7,3.4s4.1,2.7,5.1,4.3,1.5,3.7,1.5,6.1c0,4.5-1.7,8-5,10.6-3.3,2.6-7.9,3.9-13.7,3.9Z"/>
  <path d="M188.2,71.3c-4.4,0-8.1-1.1-11.2-3.2-3.1-2.2-5.5-5.1-7.2-8.8-1.7-3.7-2.5-7.9-2.5-12.6s.8-8.9,2.5-12.6c1.7-3.7,4.1-6.6,7.2-8.8,3.1-2.1,6.8-3.2,11.1-3.2s8.1,1.1,11.1,3.2c3,2.1,5.3,5.1,6.8,8.8,1.5,3.7,2.3,7.9,2.3,12.6s-.8,8.9-2.3,12.6c-1.5,3.7-3.8,6.7-6.8,8.8s-6.7,3.3-11.1,3.3ZM188.7,92c-2.4,0-4.8-.4-7.2-1.1-2.3-.7-4.5-1.9-6.4-3.4-1.9-1.5-3.6-3.4-4.9-5.7l7-3.7c1.2,2.3,2.8,3.9,4.9,5,2.1,1,4.3,1.6,6.5,1.6s5.4-.5,7.4-1.6c1.9-1.1,3.4-2.7,4.3-4.8s1.4-4.8,1.4-8v-12.8h.9V23.3h6.8v47c0,1.3,0,2.5-.1,3.7,0,1.2-.2,2.3-.5,3.5-.6,3.3-1.8,6-3.6,8.2-1.8,2.1-4.1,3.7-6.9,4.8-2.8,1.1-6.1,1.6-9.8,1.6ZM189.1,64.2c3.1,0,5.7-.8,7.7-2.3,2-1.5,3.5-3.6,4.5-6.3,1-2.7,1.4-5.7,1.4-9.1s-.5-6.5-1.5-9.1c-1-2.7-2.5-4.7-4.4-6.2-2-1.5-4.5-2.2-7.5-2.2s-5.8.8-7.8,2.3c-2.1,1.6-3.6,3.7-4.6,6.3s-1.5,5.6-1.5,8.9.5,6.3,1.5,9c1,2.7,2.5,4.8,4.6,6.3,2,1.6,4.6,2.3,7.6,2.3Z"/>
  <path d="M241.6,71.3c-4.6,0-8.6-1.1-12-3.2-3.4-2.1-5.9-5-7.8-8.7-1.8-3.7-2.7-8-2.7-12.8s.9-9.2,2.8-12.9c1.8-3.7,4.4-6.6,7.8-8.6,3.4-2.1,7.3-3.1,11.9-3.1s8.7,1.1,12.1,3.2c3.4,2.1,6,5,7.8,8.7s2.7,7.9,2.7,12.7-.9,9.2-2.7,12.9c-1.8,3.7-4.4,6.6-7.8,8.7-3.4,2.1-7.4,3.1-12,3.1ZM241.6,64c4.8,0,8.4-1.6,10.8-4.8,2.4-3.2,3.6-7.4,3.6-12.5s-1.2-9.4-3.6-12.6c-2.4-3.1-6-4.7-10.8-4.7s-5.9.7-8,2.2c-2.1,1.5-3.7,3.5-4.7,6.1-1,2.6-1.6,5.6-1.6,9,0,5.2,1.2,9.5,3.6,12.6s6,4.8,10.7,4.8Z"/>
  <path d="M290.9,70V7.7h24.6c.6,0,1.3,0,2.2,0,.8,0,1.6.1,2.4.3,3.4.5,6.2,1.7,8.5,3.5s4,4.1,5.2,6.8c1.2,2.7,1.7,5.7,1.7,9s-.6,6.3-1.8,9.1c-1.2,2.7-2.9,5-5.2,6.8-2.3,1.8-5.1,2.9-8.4,3.5-.8.1-1.6.2-2.4.3-.8,0-1.6,0-2.2,0h-16.9v23h-7.7ZM298.6,39.7h16.6c.5,0,1.2,0,1.9,0s1.4-.2,2-.3c2-.5,3.6-1.3,4.8-2.5,1.2-1.2,2.2-2.7,2.7-4.3.6-1.7.9-3.4.9-5.1s-.3-3.4-.9-5.1c-.6-1.7-1.5-3.1-2.7-4.3-1.2-1.2-2.9-2.1-4.8-2.5-.6-.1-1.3-.2-2-.3s-1.3,0-1.9,0h-16.6v24.6Z"/>
  <path d="M345,70V6.5h7.7v63.5h-7.7Z"/>
  <path d="M383.3,71.2c-3,0-5.6-.5-7.7-1.4s-3.9-2.2-5.3-3.8c-1.4-1.6-2.5-3.3-3.3-5.3-.8-1.9-1.4-3.9-1.7-5.9-.3-2-.5-3.9-.5-5.7v-25.8h7.8v23.4c0,2.2.2,4.3.6,6.4.4,2,1.1,3.9,2.1,5.5,1,1.6,2.3,2.9,3.9,3.9,1.6,1,3.7,1.4,6.1,1.4s3.7-.3,5.2-1,2.9-1.7,4-3c1.1-1.3,2-3,2.6-5,.6-2,.9-4.4.9-7l5.1,1.6c0,4.5-.8,8.4-2.4,11.6-1.6,3.3-3.9,5.8-6.9,7.5-3,1.7-6.4,2.6-10.4,2.6ZM398.9,70v-12.5h-.9V23.3h7.7v46.7h-6.9Z"/>
  <path d="M435.5,71.2c-5.6,0-10.1-1.2-13.7-3.7-3.6-2.4-5.7-5.8-6.5-10.2l7.9-1.3c.6,2.5,2.1,4.5,4.4,6,2.3,1.5,5.1,2.2,8.5,2.2s5.7-.7,7.5-2c1.8-1.3,2.7-3.1,2.7-5.4s-.3-2.4-.9-3.2c-.6-.8-1.9-1.6-3.7-2.3s-4.7-1.6-8.5-2.6c-4.1-1.1-7.4-2.2-9.7-3.4s-4-2.5-5.1-4.1-1.5-3.5-1.5-5.7.7-5.1,2.2-7.2c1.5-2,3.6-3.6,6.3-4.8s5.8-1.7,9.4-1.7,6.7.6,9.5,1.7,5.1,2.7,6.8,4.8c1.7,2.1,2.7,4.5,3,7.2l-7.9,1.4c-.4-2.5-1.6-4.4-3.6-5.9-2-1.5-4.7-2.2-7.8-2.3-3,0-5.5.5-7.4,1.6s-2.8,2.8-2.8,4.8.4,2.1,1.1,2.9c.7.8,2,1.5,3.9,2.3,1.9.7,4.7,1.5,8.4,2.5,4.1,1,7.4,2.2,9.7,3.4s4.1,2.7,5.1,4.3,1.5,3.7,1.5,6.1c0,4.5-1.7,8-5,10.6-3.3,2.6-7.9,3.9-13.7,3.9Z"/>
</svg>