<?xml version="1.0" encoding="UTF-8"?>
<svg id="Capa_1" xmlns="http://www.w3.org/2000/svg" version="1.1" viewBox="0 0 500 100">
  <!-- Generator: Adobe Illustrator 29.6.1, SVG Export Plug-In . SVG Version: 2.1.1 Build 9)  -->
  <defs>
    <style>
      .st0 {
        fill: #8fc31f;
      }
    </style>
  </defs>
  <g id="iN6BrT.tif">
    <path class="st0" d="M36.7,83.5c-7.2-3.4-13.2-9.1-16.9-16.2-7-13.4-5.2-29.1,4.5-40.7,9.4-11.1,25.4-15.7,39.4-11.3,21.3,6.8,31.9,30.6,22,51-3.6,7.4-9.8,13.5-17.2,17.1v-22.7c-4.3-4.8-8.6-9.5-12.8-14.2,0,0,0,0,0,0v40.3h0c0,0-.8,0-.9,0-.5,0-1.2,0-1.6,0s-.2,0-.2-.2v-47.2l7.9,8.4v-12.2c-4-4.4-7.8-9-11.8-13.4-.2-.2-.6-.7-.8-.8s0-.1-.2,0v65.2l-2.7-.6v-46.2h-.2c-.7.9-1.5,1.8-2.2,2.6-2,2.2-4,4.4-5.9,6.6v34.3l-.3.2Z"/>
  </g>
  <g>
    <path class="st0" d="M120.5,63.9c-2.7,0-5.1-.6-7-1.8-2-1.2-3.5-2.9-4.5-5s-1.6-4.6-1.6-7.5.5-5.3,1.6-7.5c1-2.1,2.5-3.8,4.5-5s4.3-1.8,7-1.8,5.8.8,7.9,2.4c2.1,1.6,3.6,3.7,4.4,6.4l-4.6,1.3c-.5-1.8-1.4-3.2-2.7-4.2-1.3-1-2.9-1.5-5-1.5s-3.4.4-4.6,1.2-2.1,2-2.8,3.5c-.6,1.5-.9,3.2-.9,5.2s.3,3.7.9,5.2,1.5,2.6,2.8,3.5,2.8,1.2,4.6,1.2,3.7-.5,5-1.5,2.2-2.4,2.7-4.2l4.6,1.3c-.8,2.7-2.3,4.8-4.4,6.4-2.1,1.6-4.7,2.4-7.9,2.4Z"/>
    <path class="st0" d="M137.4,39.6v-4.2h4.6v4.2h-4.6ZM137.4,63.3v-20.5h4.6v20.5h-4.6Z"/>
    <path class="st0" d="M155.3,63.9c-1.5,0-2.8-.3-3.8-.8s-1.8-1.2-2.4-1.9-1-1.6-1.3-2.5-.5-1.7-.5-2.5-.1-1.4-.1-1.9v-11.5h4.6v9.9c0,.6,0,1.3.1,2.1s.3,1.6.6,2.3.8,1.3,1.4,1.8c.6.5,1.5.7,2.6.7s1.2,0,1.7-.3c.6-.2,1.1-.5,1.5-1s.8-1.1,1.1-1.9c.3-.8.4-1.8.4-3.1l2.7,1.2c0,1.7-.3,3.3-1,4.8-.7,1.4-1.7,2.6-3,3.4s-2.9,1.3-4.9,1.3h.3ZM162,63.3v-6.4h-.6v-14.2h4.6v20.5h-4.1.1Z"/>
    <path class="st0" d="M179.7,63.9c-1.9,0-3.5-.5-4.9-1.4-1.4-1-2.5-2.2-3.3-3.9-.8-1.6-1.2-3.5-1.2-5.5s.4-3.9,1.2-5.6c.8-1.6,1.9-2.9,3.3-3.9,1.4-.9,3.1-1.4,5.1-1.4s3.6.5,4.9,1.4,2.3,2.2,3,3.9c.7,1.6,1,3.5,1,5.6s-.3,3.9-1,5.5-1.7,2.9-3.1,3.9c-1.4,1-3,1.4-5,1.4ZM180.4,59.8c1.2,0,2.2-.3,3-.8.8-.6,1.3-1.4,1.7-2.4.3-1,.5-2.2.5-3.5s-.2-2.5-.5-3.5-.9-1.8-1.6-2.4c-.7-.6-1.7-.8-2.9-.8s-2.2.3-3,.9c-.8.6-1.4,1.4-1.8,2.4-.4,1-.6,2.2-.6,3.4s.2,2.4.6,3.4.9,1.8,1.7,2.4c.8.6,1.8.9,2.9.9h0ZM185.5,63.3v-14.4h-.6v-13h4.6v27.4h-4.1.1Z"/>
    <path class="st0" d="M200.6,63.9c-1.5,0-2.7-.3-3.8-.8-1-.6-1.8-1.3-2.3-2.3-.5-.9-.8-2-.8-3.1s.2-1.9.5-2.7.8-1.5,1.5-2.1,1.6-1,2.7-1.4c.8-.3,1.8-.5,2.9-.7,1.1-.2,2.3-.4,3.6-.6s2.7-.4,4.1-.6l-1.6.9c0-1.4-.3-2.5-1-3.1s-1.7-1-3.3-1-1.8.2-2.7.6c-.9.4-1.5,1.2-1.8,2.2l-4.2-1.3c.5-1.7,1.5-3.1,2.9-4.2,1.4-1.1,3.3-1.6,5.8-1.6s3.4.3,4.8.9c1.4.6,2.4,1.6,3.1,2.9.4.7.6,1.5.7,2.2,0,.8.1,1.6.1,2.5v12.6h-4v-4.4l.7.7c-.9,1.5-2,2.6-3.2,3.3s-2.8,1-4.6,1h0ZM201.5,60.2c1,0,1.9-.2,2.7-.6.7-.4,1.3-.8,1.8-1.3.4-.5.7-1,.9-1.5.2-.6.4-1.3.4-2v-1.8l1.4.4c-1.4.2-2.6.4-3.6.6-1,.2-1.8.3-2.5.5-.7,0-1.3.3-1.9.5-.5.2-1,.4-1.4.7s-.6.5-.8.9c-.2.3-.3.7-.3,1.2s.1,1,.4,1.3.6.7,1.1.9,1.1.3,1.8.3h0Z"/>
    <path class="st0" d="M225,63.9c-1.9,0-3.5-.5-4.9-1.4-1.4-1-2.5-2.2-3.3-3.9-.8-1.6-1.2-3.5-1.2-5.5s.4-3.9,1.2-5.6c.8-1.6,1.9-2.9,3.3-3.9,1.4-.9,3.1-1.4,5.1-1.4s3.6.5,4.9,1.4,2.3,2.2,3,3.9c.7,1.6,1,3.5,1,5.6s-.3,3.9-1,5.5-1.7,2.9-3.1,3.9c-1.4,1-3,1.4-5,1.4ZM225.7,59.8c1.2,0,2.2-.3,3-.8.8-.6,1.3-1.4,1.7-2.4.3-1,.5-2.2.5-3.5s-.2-2.5-.5-3.5-.9-1.8-1.6-2.4c-.7-.6-1.7-.8-2.9-.8s-2.2.3-3,.9c-.8.6-1.4,1.4-1.8,2.4-.4,1-.6,2.2-.6,3.4s.2,2.4.6,3.4.9,1.8,1.7,2.4c.8.6,1.8.9,2.9.9h0ZM230.9,63.3v-14.4h-.6v-13h4.6v27.4h-4.1.1Z"/>
    <path class="st0" d="M248.2,39.6v-4.2h4.6v4.2h-4.6ZM248.2,63.3v-20.5h4.6v20.5h-4.6Z"/>
    <path class="st0" d="M258.5,63.3v-20.5h4.1v6.4h.6v14.2h-4.7ZM272.7,63.3v-9.9c0-.6,0-1.4-.1-2.1,0-.8-.3-1.5-.6-2.3s-.8-1.3-1.4-1.8-1.5-.7-2.6-.7-1.2,0-1.7.3c-.6.2-1.1.5-1.5,1-.5.5-.8,1.1-1.1,1.9-.3.8-.4,1.8-.4,3.1l-2.7-1.2c0-1.7.3-3.3,1-4.8.7-1.4,1.7-2.6,3-3.4,1.3-.8,2.9-1.3,4.9-1.3s2.8.3,3.8.8,1.8,1.2,2.4,1.9c.6.8,1,1.6,1.3,2.5s.5,1.7.5,2.5.1,1.4.1,1.9v11.5h-4.9Z"/>
    <path class="st0" d="M280,46.4v-3.6h14.3v3.6h-14.3ZM294.3,63.3c-1.4.3-2.7.4-4,.3-1.3,0-2.5-.3-3.5-.7-1-.5-1.8-1.2-2.3-2.1-.5-.9-.7-1.8-.7-2.7v-21h4.6v19.8c0,.7.1,1.1.4,1.5.5.8,1.2,1.2,2.2,1.3s2.1,0,3.4-.2v3.8h-.1Z"/>
    <path class="st0" d="M307.1,63.9c-2.1,0-3.9-.5-5.5-1.3-1.6-.9-2.8-2.1-3.7-3.7-.9-1.6-1.3-3.4-1.3-5.5s.4-4.2,1.3-5.8,2.1-2.9,3.6-3.9,3.3-1.4,5.3-1.4,3.9.5,5.4,1.5,2.6,2.4,3.3,4.2c.7,1.8,1,3.9.8,6.4h-4.5v-1.7c0-2.2-.4-3.9-1.2-4.9-.8-1-2-1.5-3.7-1.5s-3.3.6-4.2,1.7c-.9,1.2-1.4,2.9-1.4,5.1s.5,3.7,1.4,4.8,2.2,1.7,4,1.7,2.1-.2,2.9-.8c.8-.5,1.4-1.2,1.9-2.2l4.5,1.4c-.8,1.9-2,3.3-3.6,4.3s-3.5,1.5-5.4,1.5h.1ZM300,54.3v-3.5h14.1v3.5h-14.1Z"/>
    <path class="st0" d="M321,63.3v-28h4.6v28h-4.6Z"/>
    <path class="st0" d="M331.7,39.6v-4.2h4.6v4.2h-4.6ZM331.7,63.3v-20.5h4.6v20.5h-4.6Z"/>
    <path class="st0" d="M350.2,63.9c-1.9,0-3.5-.5-4.9-1.4-1.4-1-2.5-2.2-3.3-3.9s-1.2-3.5-1.2-5.5.4-3.9,1.2-5.6c.8-1.6,1.9-2.9,3.3-3.9,1.4-.9,3.1-1.4,5.1-1.4s3.6.5,4.9,1.4,2.3,2.2,3,3.9,1,3.5,1,5.6-.3,3.9-1,5.5-1.7,2.9-3.1,3.9-3,1.4-5,1.4ZM350.6,73c-1.1,0-2.2-.2-3.3-.5-1-.4-2-.9-2.8-1.5-.8-.7-1.5-1.5-2.1-2.4l4.2-2.1c.4.7.9,1.3,1.7,1.7.7.4,1.5.5,2.3.5s1.8-.2,2.5-.5,1.3-.8,1.7-1.5c.4-.7.6-1.5.6-2.4v-5.8h.6v-15.6h4v23c0,.5-.1.9-.2,1.4-.3,1.3-.9,2.4-1.7,3.3-.9.9-1.9,1.5-3.2,1.9-1.3.4-2.7.6-4.2.6h-.1ZM350.9,59.8c1.2,0,2.2-.3,3-.8.8-.6,1.3-1.4,1.7-2.4.3-1,.5-2.2.5-3.5s-.2-2.5-.5-3.5-.9-1.8-1.6-2.4c-.7-.6-1.7-.8-2.9-.8s-2.2.3-3,.9c-.8.6-1.4,1.4-1.8,2.4s-.6,2.2-.6,3.4.2,2.4.6,3.4.9,1.8,1.7,2.4c.8.6,1.8.9,2.9.9h0Z"/>
    <path class="st0" d="M374.7,63.9c-2.1,0-3.9-.5-5.5-1.3-1.6-.9-2.8-2.1-3.7-3.7-.9-1.6-1.3-3.4-1.3-5.5s.4-4.2,1.3-5.8c.9-1.7,2.1-2.9,3.6-3.9,1.5-.9,3.3-1.4,5.3-1.4s3.9.5,5.4,1.5,2.6,2.4,3.3,4.2c.7,1.8,1,3.9.8,6.4h-4.5v-1.7c0-2.2-.4-3.9-1.2-4.9-.8-1-2-1.5-3.7-1.5s-3.3.6-4.2,1.7c-.9,1.2-1.4,2.9-1.4,5.1s.5,3.7,1.4,4.8,2.2,1.7,4,1.7,2.1-.2,2.9-.8,1.4-1.2,1.9-2.2l4.5,1.4c-.8,1.9-2,3.3-3.6,4.3s-3.5,1.5-5.4,1.5h.1ZM367.6,54.3v-3.5h14.1v3.5h-14.1Z"/>
    <path class="st0" d="M387.7,63.3v-20.5h4.1v6.4h.6v14.2h-4.7ZM401.9,63.3v-9.9c0-.6,0-1.4-.1-2.1,0-.8-.3-1.5-.6-2.3s-.8-1.3-1.4-1.8-1.5-.7-2.6-.7-1.2,0-1.7.3c-.6.2-1.1.5-1.5,1-.5.5-.8,1.1-1.1,1.9-.3.8-.4,1.8-.4,3.1l-2.7-1.2c0-1.7.3-3.3,1-4.8.7-1.4,1.7-2.6,3-3.4,1.3-.8,2.9-1.3,4.9-1.3s2.8.3,3.8.8,1.8,1.2,2.4,1.9,1,1.6,1.3,2.5.5,1.7.5,2.5.1,1.4.1,1.9v11.5h-4.9Z"/>
    <path class="st0" d="M409.2,46.4v-3.6h14.3v3.6h-14.3ZM423.5,63.3c-1.4.3-2.7.4-4,.3-1.3,0-2.5-.3-3.5-.7-1-.5-1.8-1.2-2.3-2.1-.5-.9-.7-1.8-.7-2.7v-21h4.6v19.8c0,.6.1,1.1.4,1.5.5.8,1.2,1.2,2.2,1.3s2.1,0,3.4-.2v3.8h-.1Z"/>
    <path class="st0" d="M436.3,63.9c-2.1,0-3.9-.5-5.5-1.3-1.6-.9-2.8-2.1-3.7-3.7-.9-1.6-1.3-3.4-1.3-5.5s.4-4.2,1.3-5.8c.9-1.7,2.1-2.9,3.6-3.9,1.5-.9,3.3-1.4,5.3-1.4s3.9.5,5.4,1.5,2.6,2.4,3.3,4.2c.7,1.8,1,3.9.8,6.4h-4.5v-1.7c0-2.2-.4-3.9-1.2-4.9-.8-1-2-1.5-3.7-1.5s-3.3.6-4.2,1.7c-.9,1.2-1.4,2.9-1.4,5.1s.5,3.7,1.4,4.8,2.2,1.7,4,1.7,2.1-.2,2.9-.8,1.4-1.2,1.9-2.2l4.5,1.4c-.8,1.9-2,3.3-3.6,4.3s-3.5,1.5-5.4,1.5h.1ZM429.2,54.3v-3.5h14.1v3.5h-14.1Z"/>
  </g>
</svg>