<?xml version="1.0" encoding="UTF-8"?>
<svg id="Capa_1" xmlns="http://www.w3.org/2000/svg" version="1.1" viewBox="0 0 500 100">
  <!-- Generator: Adobe Illustrator 29.6.1, SVG Export Plug-In . SVG Version: 2.1.1 Build 9)  -->
  <defs>
    <style>
      .st0 {
        fill-rule: evenodd;
      }
    </style>
  </defs>
  <polygon class="st0" points="94.6 7.1 82.5 7.1 61.9 30.4 41.4 7.1 29.3 7.1 17.3 7.1 10 7.1 10 91.3 29.3 91.3 29.3 20.7 49.9 44 61.9 57.7 74 44 94.6 20.7 94.6 91.3 113.9 91.3 113.9 7.1 106.6 7.1 94.6 7.1 94.6 7.1"/>
  <path class="st0" d="M176.1,7.1h-7.8c-22.9,0-41.5,18.8-41.5,42.1s18.6,42.1,41.5,42.1h7.8c22.9,0,41.5-18.8,41.5-42.1S199,7.1,176.1,7.1h0ZM174.7,74.6h-5.2c-13.1,0-23.7-11.4-23.7-25.4s10.6-25.4,23.7-25.4h5.2c13.1,0,23.7,11.4,23.7,25.4s-10.6,25.4-23.7,25.4h0Z"/>
  <g>
    <path d="M292.1,57.2h-42.8v-16.2h42.8c4.8,0,8.7-3.9,8.7-8.7s-3.9-8.7-8.7-8.7h-39.5c-4.8,0-8.7,3.9-8.7,8.7h-16.2c0-13.7,11.2-24.9,24.9-24.9h39.5c13.7,0,24.9,11.2,24.9,24.9s-11.2,24.9-24.9,24.9Z"/>
    <path d="M292.1,90.8h-39.5c-13.7,0-24.9-11.2-24.9-24.9h16.2c0,4.8,3.9,8.7,8.7,8.7h39.5c4.8,0,8.7-3.9,8.7-8.7s-3.9-8.7-8.7-8.7h-42.8v-16.2h42.8c13.7,0,24.9,11.2,24.9,24.9s-11.2,24.9-24.9,24.9Z"/>
  </g>
</svg>