<?xml version="1.0" encoding="UTF-8"?>
<svg id="Capa_1" xmlns="http://www.w3.org/2000/svg" version="1.1" viewBox="0 0 500 100">
  <!-- Generator: Adobe Illustrator 30.1.0, SVG Export Plug-In . SVG Version: 2.1.1 Build 136)  -->
  <defs>
    <style>
      .st0 {
        fill: #f6f6f6;
      }

      .st1 {
        fill: #fff;
      }

      .st2 {
        fill: #e30613;
      }
    </style>
  </defs>
  <g>
    <g>
      <g>
        <path class="st0" d="M397.3,45.4l-6.4,14.7h-3.4l-6.4-14.7h4.4l3.7,9.9,3.7-9.9h4.4,0Z"/>
        <path class="st0" d="M398.2,52.8c0-4.5,3.3-7.8,8.1-7.8s8.1,3.3,8.1,7.8-3.3,7.8-8.1,7.8-8.1-3.3-8.1-7.8ZM410.2,52.8c0-2.5-1.6-4.3-3.9-4.3s-3.9,1.8-3.9,4.3,1.6,4.3,3.9,4.3,3.9-1.8,3.9-4.3Z"/>
        <path class="st0" d="M417.5,38.4h4.1v21.7h-4.1v-21.7Z"/>
        <path class="st0" d="M434.6,48.5h-3.6v11.6h-4.1v-11.6h-2.2v-3.1h2.2v-4.2h4.1v4.2h3.6v3.1Z"/>
        <path class="st0" d="M437.2,40.8c0-1.3,1.1-2.3,2.4-2.3s2.4,1.1,2.4,2.3-1.1,2.3-2.4,2.3-2.4-1.1-2.4-2.3ZM437.6,45.4h4.1v14.7h-4.1v-14.7Z"/>
        <path class="st0" d="M455.7,60.1l-5.7-6.6v6.6h-4.1v-21.7h4.1v12.3l4.9-5.4h5.2l-6.5,6.7,7.4,8h-5.3Z"/>
        <path class="st0" d="M477.5,45.4v14.7h-3.4l-.5-1.8c-1.1,1.3-2.7,2.1-4.8,2.1-3.8,0-6.8-2.8-6.8-7.7s3-7.7,6.8-7.7,3.8.9,4.9,2.2l.5-1.8h3.4-.1ZM473.7,52.7c0-2.5-1.6-4.2-3.8-4.2s-3.7,1.7-3.7,4.2,1.5,4.2,3.7,4.2,3.8-1.7,3.8-4.2Z"/>
      </g>
      <g>
        <path class="st0" d="M244.2,60.4c-1.1,0-2.1-.2-3-.6-.9-.4-1.7-.9-2.4-1.6-.7-.7-1.2-1.5-1.6-2.5-.4-1-.6-2-.6-3.2s.2-2.2.6-3.2c.4-1,.9-1.8,1.6-2.5.7-.7,1.5-1.3,2.4-1.6.9-.4,1.9-.6,3-.6s2.8.4,4,1.1c1.2.7,2,1.7,2.7,2.9l-1.3.8c-.5-1-1.2-1.8-2.2-2.4-.9-.6-2-.8-3.2-.8s-1.6,0-2.3.4-1.4.7-1.9,1.3-1,1.2-1.3,2-.5,1.7-.5,2.7.2,1.9.5,2.7.7,1.5,1.3,2c.5.6,1.2,1,1.9,1.3s1.5.4,2.3.4,2.2-.3,3.2-.8c.9-.6,1.7-1.3,2.2-2.4l1.3.8c-.6,1.2-1.5,2.2-2.7,2.9s-2.5,1.1-4,1.1v-.2Z"/>
        <path class="st0" d="M254.6,44.9h1.5v2.9c.2-.4.5-.8.8-1.2s.7-.7,1.2-1c.4-.3.9-.5,1.5-.7s1.2-.3,1.9-.3h.2v1.6c-1.4,0-2.5.4-3.5,1.1-.9.7-1.6,1.6-2.1,2.8v10h-1.5s0-15.2,0-15.2Z"/>
        <path class="st0" d="M271,60.4c-1.1,0-2.1-.2-3-.6-.9-.4-1.7-.9-2.3-1.6-.6-.7-1.1-1.5-1.5-2.5s-.5-2-.5-3.2.2-2.2.5-3.2c.4-1,.8-1.8,1.5-2.5s1.4-1.3,2.3-1.6c.9-.4,1.9-.6,3-.6s2.1.2,3,.6c.9.4,1.6.9,2.3,1.6.6.7,1.1,1.5,1.5,2.4s.5,1.9.5,2.9,0,.3,0,.5v.4h-12.9c0,.9.2,1.7.5,2.5.3.7.7,1.3,1.2,1.8s1.1.9,1.8,1.2c.7.3,1.4.4,2.2.4s2.2-.3,3.2-.8,1.8-1.3,2.5-2.3l1.2.9c-.8,1.2-1.8,2.1-3,2.8s-2.5,1-3.9,1h-.1ZM271,46.1c-.8,0-1.5,0-2.2.4s-1.2.6-1.7,1.1-.9,1.1-1.2,1.8c-.3.7-.5,1.5-.6,2.3h11.3c0-.8-.2-1.6-.5-2.3s-.7-1.3-1.2-1.8-1.1-.9-1.8-1.1-1.4-.4-2.1-.4h0ZM270.3,42l2.1-4.6h1.7l-2.6,4.7h-1.3,0Z"/>
        <path class="st0" d="M294.1,57.6c-.6.9-1.4,1.6-2.4,2.1-.9.5-2,.8-3.2.8s-2.1-.2-3-.6c-.9-.4-1.7-.9-2.4-1.6-.7-.7-1.2-1.5-1.6-2.5s-.6-2-.6-3.2.2-2.2.6-3.2.9-1.8,1.6-2.5,1.5-1.3,2.4-1.6c.9-.4,1.9-.6,3-.6s2.3.2,3.2.8,1.7,1.2,2.4,2.1v-9.5h1.5v22.2h-1.5v-2.7ZM288.5,58.9c1.3,0,2.5-.3,3.4-1s1.7-1.5,2.2-2.5v-6c-.5-1-1.2-1.8-2.2-2.5-1-.6-2.1-1-3.4-1s-1.6.2-2.3.5-1.4.7-1.9,1.3-1,1.2-1.3,2-.5,1.7-.5,2.7.2,1.9.5,2.7.7,1.5,1.3,2c.5.6,1.2,1,1.9,1.3.7.3,1.5.5,2.3.5Z"/>
        <path class="st0" d="M300.5,37.9h1.5v3.5h-1.5v-3.5ZM300.5,44.9h1.5v15.2h-1.5v-15.2Z"/>
        <path class="st0" d="M312.7,60.2c-1.6,0-2.8-.4-3.6-1.2-.8-.8-1.2-2-1.2-3.7v-9.1h-2.8v-1.4h2.8v-4h1.5v4h4v1.4h-4v9c0,1.3.3,2.2.9,2.7s1.6.8,2.9.8h.2v1.3h-.7v.2h0Z"/>
        <path class="st0" d="M323.2,60.4c-1.1,0-2.1-.2-3-.6-.9-.4-1.7-.9-2.4-1.6-.7-.7-1.2-1.5-1.6-2.5s-.6-2-.6-3.2.2-2.2.6-3.2.9-1.8,1.6-2.5,1.5-1.3,2.4-1.6c.9-.4,1.9-.6,3-.6s2.1.2,3,.6c.9.4,1.7.9,2.4,1.6.7.7,1.2,1.5,1.6,2.5s.6,2,.6,3.2-.2,2.2-.6,3.2-.9,1.8-1.6,2.5-1.5,1.3-2.4,1.6c-.9.4-1.9.6-3,.6ZM323.2,58.9c.8,0,1.6-.2,2.3-.5.7-.3,1.4-.7,1.9-1.3s1-1.2,1.3-2,.5-1.7.5-2.7-.2-1.9-.5-2.7-.7-1.5-1.3-2c-.5-.6-1.2-1-1.9-1.3s-1.5-.5-2.3-.5-1.6.2-2.3.5-1.4.7-1.9,1.3-1,1.2-1.3,2-.5,1.7-.5,2.7.2,1.9.5,2.7.7,1.5,1.3,2c.5.6,1.2,1,1.9,1.3.7.3,1.5.5,2.3.5Z"/>
      </g>
      <path class="st0" d="M381.1,41.7c-1.8-1.4-3.7-2.3-5.6-3.1h0v-.5l.7-.8-1.2-1.2h0c-.7-.5-1.7-1.2-3-1.7-.4-.2-.8-.4-1.3-.5h0c-1.1-.4-2.4-.9-4-1.2-6.3-1.5-11.4-1.5-17.7,0-1.5.3-2.7.7-3.8,1.1h0c-.4,0-.9.3-1.5.6h-.1c-.8.5-1.9,1-2.8,1.7h0l-1.2,1.1.7.7v.5h0c-1.8.7-3.8,1.7-5.6,3.1h0l.9,1.5h0c1.3-.7,2.8-1.3,4.4-1.9,0,4.3.6,12.7,6.3,21,4.1,6.1,9.9,9.5,11.4,9.8h.8c1.5-.3,7.2-3.8,11.4-9.8,5.7-8.3,6.4-16.8,6.3-21.1,1.1.4,2.1.8,3.2,1.2.5.2.9.4,1.4.5h0l.9-1.3h0l-.6.3h0ZM356.6,61.6l1.5-3.7,5-3.9-4.4,6.8h.8l-3.4,4.1,1.4-3.3h-1s.1,0,.1,0ZM358.3,67.6c3.2-6.9,6.3-13.7,9.4-20.5h0c-3.3,3.4-6.7,6.9-10,10.3-3.4-3.5-6.7-6.9-10-10.3h0c3.1,6.9,6.3,13.7,9.5,20.7-.4-.2-.8-.5-1.4-.8-1.9-1.4-4.5-3.7-6.6-6.7-4.9-7.2-5.6-14.6-5.6-18.4,2.5,2.6,5,5.2,7.5,7.8,2,2.1,4.1,4.2,6.1,6.3.1,0,.2.3.2.4v.2h0c.2-.2.4-.4.6-.6.4-.4.7-.7,1-1,5-5.2,8.9-9.2,12.6-13,0,3.8-.7,11.2-5.6,18.3-1.5,2.2-3.2,3.9-4.8,5.3-1.2,1-2.3,1.7-3,2.1h0ZM365.6,37.7c.7.2,1.3.3,1.8.5-1.2,1.7-2.3,3.3-3.4,4.9-2,2.9-4.2,6-6.4,9.2-2.2-3.2-4.3-6.2-6.4-9.2-1.1-1.6-2.3-3.3-3.4-5,.5-.2,1.1-.3,1.7-.5,4.2-1,9-1.6,16,0h0Z"/>
    </g>
    <path class="st0" d="M480.3,65.9c-.3,0-.6,0-.9-.2s-.5-.3-.7-.5-.4-.5-.5-.7-.2-.6-.2-.9,0-.6.2-.9c.1-.3.3-.5.5-.7s.5-.4.7-.5.6-.2.9-.2.6,0,.9.2.5.3.7.5.4.5.5.7c.1.3.2.6.2.9s0,.6-.2.9c-.1.3-.3.5-.5.7s-.5.4-.7.5-.6.2-.9.2ZM480.3,65.4h.7c.2,0,.4-.2.6-.4.2-.2.3-.3.4-.6,0-.2.1-.5.1-.7s0-.5-.1-.7c0-.2-.2-.4-.4-.6-.2-.2-.4-.3-.6-.4h-1.4c-.2,0-.4.2-.6.4s-.3.3-.4.6c0,.2-.1.5-.1.7s0,.5.1.7c0,.2.2.4.4.6.2.2.3.3.6.4s.5,0,.7,0ZM479.6,62.5h1c.2,0,.4,0,.5.2.1,0,.2.3.2.5s0,.3-.1.4c0,0-.2.2-.3.2l.6.8h-.6l-.6-.8h-.2v.8h-.5v-2.2h0ZM480.5,63.4c.1,0,.2,0,.2-.2,0-.1,0-.2-.2-.2h-.4v.4h.4Z"/>
  </g>
  <g>
    <g>
      <polygon class="st0" points="78 38.8 83.5 38.8 80.7 31.5 78 38.8"/>
      <polygon class="st0" points="129.9 38.8 135.3 38.8 132.6 31.5 129.9 38.8"/>
      <g>
        <path class="st0" d="M33.9,14.7v58.4h150.7V14.7H33.9ZM68.8,46.5h-4.5v-8h-8.7v8h-4.5v-19.8h4.5v7.8h8.7v-7.8h4.5v19.8ZM86.3,46.5l-1.4-3.8h-8.3l-1.4,3.8h-4.7l7.5-19.8h5.4l7.5,19.8h-4.6ZM107,43.3l-.2-.2c-.4.8-.9,1.5-1.6,2.1s-1.5,1-2.5,1.3-2,.5-3.2.5-2.2,0-3.1-.4c-.9-.3-1.7-.6-2.4-1-.7-.4-1.3-.9-1.8-1.4s-.9-1-1.3-1.6l2.9-2.9c.3.4.6.8,1,1.2.4.4.8.8,1.3,1.1s1,.6,1.6.7c.6.2,1.3.3,2,.3,1,0,1.8-.2,2.3-.6.5-.4.8-1,.8-1.6s0-.5-.1-.7c0-.2-.2-.4-.4-.6-.2-.2-.5-.3-.8-.5-.4,0-.8-.3-1.4-.3l-1.6-.2c-.9,0-1.7-.4-2.5-.7-.8-.3-1.4-.7-1.9-1.2s-.9-1.1-1.2-1.7c-.3-.6-.4-1.4-.4-2.2s.2-1.7.5-2.5c.3-.8.8-1.4,1.5-2,.6-.6,1.4-1,2.3-1.3.9-.3,1.9-.5,3.1-.5s2.9.3,4.2.9c1.2.6,2.2,1.3,3,2.3l-2.8,3c-.6-.7-1.3-1.2-2.1-1.6-.8-.4-1.6-.6-2.4-.6s-1.5.2-1.9.6c-.5.4-.7.8-.7,1.3s.2.8.5,1.2c.3.3.9.6,1.7.7l1.6.2c2.1.3,3.8,1,4.9,2,1.2,1,1.7,2.4,1.7,4.2s-.2,1.9-.6,2.7ZM118.3,46.5h-4.4v-15.9h-5.9v-3.9h16.2v3.9h-5.9v15.9ZM138.2,46.5l-1.4-3.8h-8.3l-1.4,3.8h-4.7l7.5-19.8h5.4l7.5,19.8h-4.6ZM169.2,40c-.5,1.5-1.1,2.8-2,3.8-.9,1-1.9,1.8-3.2,2.4s-2.6.8-4.2.8-3.3-.4-4.5-1.1c-1.2-.7-2.2-1.6-2.9-2.7l3.3-3c.4.6,1,1.2,1.7,1.6.7.4,1.5.6,2.4.6s2.3-.4,3.2-1.2c.9-.8,1.5-2,1.7-3.7-.6.6-1.3,1.1-2.1,1.5-.8.4-1.8.6-2.9.6s-1.9-.2-2.8-.5c-.9-.4-1.7-.9-2.3-1.5-.7-.7-1.2-1.5-1.6-2.4-.4-1-.6-2-.6-3.2s.2-2.2.7-3.2c.4-1,1.1-1.8,1.8-2.5.8-.7,1.7-1.2,2.7-1.6,1-.4,2.1-.6,3.3-.6s2.8.3,4,.8c1.1.6,2.1,1.3,2.8,2.3.8,1,1.3,2.1,1.7,3.5.4,1.3.6,2.8.6,4.4s-.2,3.6-.7,5.1Z"/>
        <path class="st0" d="M160.7,28.5c-1.1,0-1.9.3-2.5,1-.6.6-.9,1.4-.9,2.3s.3,1.7.9,2.3c.6.6,1.4,1,2.5,1s1.9-.3,2.5-1c.6-.6.9-1.4.9-2.3s-.3-1.7-.9-2.3c-.6-.6-1.4-1-2.5-1Z"/>
      </g>
    </g>
    <rect class="st2" x="54.4" y="56" width="108.8" height="34.4"/>
    <g>
      <path class="st1" d="M83,62.5h6.5l5.5,14.9,5.5-14.9h6.5v21.1h-4.8v-13.7l-4.9,13.7h-4.3l-4.9-13.7v13.7h-4.8v-21.1h-.3,0Z"/>
      <path class="st1" d="M118.5,84.1c-1.3,0-2.4,0-3.4-.4s-1.8-.6-2.6-1.1c-.8-.5-1.4-1-1.9-1.5s-1-1.1-1.4-1.7l3.1-3.1c.3.5.7.9,1.1,1.3s.9.8,1.4,1.1c.5.3,1.1.6,1.7.8s1.3.3,2.1.3,1.9-.2,2.5-.7.8-1,.8-1.7v-.7c0-.2-.2-.4-.5-.6s-.5-.4-.9-.5c-.4-.2-.9-.3-1.5-.4l-1.7-.2c-1,0-1.9-.4-2.7-.7-.8-.3-1.5-.8-2.1-1.3s-1-1.1-1.3-1.8c-.3-.7-.5-1.5-.5-2.3s.2-1.8.5-2.7c.4-.8.9-1.5,1.6-2.1s1.5-1.1,2.5-1.4c1-.3,2.1-.5,3.3-.5s3.1.3,4.5.9c1.3.6,2.4,1.4,3.2,2.4l-3,3.2c-.7-.7-1.4-1.3-2.2-1.7-.8-.4-1.7-.6-2.6-.6s-1.5.2-2,.6-.7.8-.7,1.3.2.9.6,1.3,1,.6,1.8.7l1.7.2c2.3.3,4,1.1,5.2,2.2s1.8,2.6,1.8,4.5-.2,2-.6,2.9-1,1.6-1.8,2.2-1.6,1.1-2.7,1.4c-1,.3-2.1.5-3.4.5h.2,0Z"/>
      <path class="st1" d="M129.8,62.5h4.8v21.1h-4.8v-21.1Z"/>
    </g>
  </g>
</svg>