<?xml version="1.0" encoding="UTF-8"?>
<svg id="Capa_1" xmlns="http://www.w3.org/2000/svg" version="1.1" viewBox="0 0 500 500">
  <!-- Generator: Adobe Illustrator 29.6.1, SVG Export Plug-In . SVG Version: 2.1.1 Build 9)  -->
  <defs>
    <style>
      .st0 {
        isolation: isolate;
      }

      .st1 {
        fill: #3aaa35;
      }
    </style>
  </defs>
  <g id="jSC18h.tif">
    <g>
      <path class="st1" d="M292.1,61.6c-43.6-11.7-89.9-4.3-127.7,20.1-130.2,84.4-74.8,284,78.2,291.7,97.6,4.9,178.2-83.2,164.6-180-.9-6.4-4.7-17.8-4.1-23.3s8.8-10.9,15-7.9c5.2,2.5,6.1,8.8,7.3,13.7,21.6,89.6-35.7,184.6-122.8,210.9-134.7,40.7-262.4-82.8-226.4-218.7C101.2,73.5,205.6,12.5,300.3,42.7c-3,6.2-6.5,12.1-8.2,18.9h0Z"/>
      <path class="st1" d="M353.1,35.9c13.5,0,23.9,6.9,34.4,14.4s7.3,4.7,7.1,6l-47.4,69.2c-11.5-8.1-25.2-14.6-31.8-27.8-14-28.3,6.1-61.6,37.7-61.9h0Z"/>
      <path class="st1" d="M396.1,92.5l11.7-17.5c7.8,4.6,24.4,12.8,16.1,23.8-8.6,11.4-19.5-2.6-27.7-6.3h-.1Z"/>
      <path class="st1" d="M369.5,131.2l11.6-17.6c.9,0,13.5,8.6,14.7,9.8,7.1,7,3,18.4-7.1,18.3s-13.4-8.1-19.3-10.6h0Z"/>
    </g>
  </g>
  <g class="st0">
    <g class="st0">
      <path class="st1" d="M161.3,432l-17.3,39.8h-9.1l-17.3-39.8h11.8l10.1,26.6,10.1-26.6h11.8Z"/>
      <path class="st1" d="M163.7,452.1c0-12.1,9-21,21.9-21s21.9,9,21.9,21-9,21-21.9,21-21.9-9-21.9-21ZM196.1,452.1c0-6.7-4.4-11.6-10.4-11.6s-10.4,4.9-10.4,11.6,4.3,11.6,10.4,11.6,10.4-4.8,10.4-11.6Z"/>
      <path class="st1" d="M215.7,413.2h11.1v58.6h-11.1v-58.6Z"/>
      <path class="st1" d="M262,440.5h-9.8v31.3h-11.1v-31.3h-6v-8.5h6v-11.5h11.1v11.5h9.8v8.5Z"/>
      <path class="st1" d="M269.2,419.7c0-3.4,2.9-6.3,6.5-6.3s6.6,2.8,6.6,6.3-2.9,6.3-6.6,6.3-6.5-2.8-6.5-6.3ZM270.2,432h11.1v39.8h-11.1v-39.8Z"/>
      <path class="st1" d="M319.2,471.8l-15.4-17.8v17.8h-11.1v-58.6h11.1v33.4l13.2-14.5h14.1l-17.6,18.1,19.9,21.6h-14.2Z"/>
      <path class="st1" d="M378.1,432v39.8h-9.2l-1.3-4.9c-2.9,3.4-7.2,5.8-13.1,5.8-10.3,0-18.5-7.7-18.5-20.8s8.1-20.9,18.5-20.9,10.2,2.4,13.2,5.9l1.3-4.9h9.1ZM367.8,451.9c0-6.8-4.2-11.5-10.3-11.5s-10.1,4.7-10.1,11.5,4.1,11.4,10.1,11.4,10.3-4.7,10.3-11.4Z"/>
    </g>
  </g>
  <path class="st1" d="M360.5,190c-7.9-6.2-16.5-10.3-24.8-13.8h0l-.3-2,3.2-3.4-5.5-5.2-.4.4c-3.2-2.6-7.7-5.7-13-8-1.6-.8-3.3-1.6-5.8-2.4h-.3c0-.1-.2.2-.2.2,0,0-.1.2-.2.3-4.8-1.9-10.6-3.7-17.5-5.4-27.7-6.5-50.2-6.5-77.9,0-6.5,1.5-12.1,3.3-16.7,5l-.2-.2h-.3c-1.9.7-4.1,1.5-6.7,2.6l-.5.2.2.3c-3.7,1.6-8.1,4-12.1,7.2l-.3-.3-5.4,5.3,2.9,3.1-.3,2.2v.2c-7.9,3.3-16.6,7.5-24.5,13.7l-.3.3,4,6.3.4-.2c5.9-2.9,12.3-5.5,19.6-8-.4,18.7,2.7,56,27.8,92.5,18.3,26.6,43.6,41.9,50.1,43.2l1.7.3,1.7-.3c6.5-1.3,31.8-16.6,50.1-43.2,25.1-36.6,28.1-73.9,27.8-92.6,4.7,1.7,9.3,3.5,14.1,5.4,2,.8,4,1.5,6,2.3h.4c0,.1,3.7-5.8,3.7-5.8l-.3-.3h-.2ZM252.7,277.4l6.8-16.2,21.9-17.2-19.6,29.9h3.7l-14.8,17.9,6.3-14.6h-4.4v.2ZM260.3,303.8c13.9-30.4,27.6-60.4,41.3-90.3-.1,0-.2-.1-.4-.2-14.7,15.1-29.3,30.2-44.1,45.5-14.9-15.3-29.5-30.4-44.1-45.5-.1,0-.2.2-.3.2,13.8,30.2,27.6,60.4,41.6,91-1.6-.9-3.6-2.1-6-3.7-8.4-6.1-19.7-16.1-29-29.5-21.6-31.5-24.8-64.1-24.7-80.9,11,11.4,22.1,22.8,33.1,34.2,8.9,9.2,17.9,18.4,26.8,27.7.5.5.8,1.1,1.1,1.7.1.3.3.5.4.7l.3.5.4-.4c1-.9,1.8-1.7,2.7-2.5,1.6-1.5,3.1-2.9,4.4-4.3,22-22.7,39.3-40.5,55.5-57.2,0,16.9-3.2,49.3-24.7,80.6-6.5,9.5-14.1,17.3-21,23.2-5.4,4.3-10.1,7.5-13.4,9.4v-.2ZM292.3,172.3c2.9.7,5.6,1.4,8,2.2-5.1,7.4-10.2,14.7-15.1,21.8-9,13-18.3,26.4-28.1,40.3-9.8-13.9-19-27.3-27.9-40.3-4.9-7.2-10-14.5-15.1-21.9,2.4-.7,4.9-1.4,7.7-2.1,18.3-4.3,39.5-7.2,70.5,0Z"/>
  <g class="st0">
    <g class="st0">
      <path class="st1" d="M388.1,487.6c-.9,0-1.7-.2-2.5-.5-.8-.3-1.4-.8-2-1.3-.6-.6-1-1.2-1.3-2-.3-.8-.5-1.6-.5-2.5s.2-1.7.5-2.4.8-1.4,1.3-2c.6-.6,1.2-1,2-1.3s1.6-.5,2.5-.5,1.7.2,2.4.5c.8.3,1.4.8,2,1.3.6.6,1,1.2,1.3,2,.3.8.5,1.6.5,2.4s-.2,1.7-.5,2.5c-.3.8-.8,1.4-1.3,2s-1.2,1-2,1.3c-.8.3-1.6.5-2.4.5ZM388.1,486.1c.7,0,1.3-.1,1.9-.4.6-.2,1.1-.6,1.5-1,.4-.4.8-.9,1-1.5.2-.6.4-1.2.4-1.9s-.1-1.3-.4-1.9c-.2-.6-.6-1.1-1-1.5-.4-.4-.9-.8-1.5-1-.6-.2-1.2-.4-1.9-.4s-1.3.1-1.9.4c-.6.2-1.1.6-1.5,1s-.8.9-1,1.5c-.2.6-.4,1.2-.4,1.9s.1,1.3.4,1.9c.2.6.6,1.1,1,1.5s.9.8,1.5,1c.6.2,1.2.4,1.9.4ZM386,478.3h2.6c.6,0,1,.2,1.4.5s.6.8.6,1.4-.1.8-.3,1c-.2.3-.5.5-.8.6l1.7,2.3h0c0,0-1.7,0-1.7,0l-1.5-2.2h-.6v2.2h-1.4v-5.9ZM388.5,480.8c.4,0,.6-.2.6-.6s-.2-.6-.6-.6h-1.1v1.1h1.1Z"/>
    </g>
  </g>
</svg>